<svg width="21" height="20" viewBox="0 0 21 20" fill="none" xmlns="http://www.w3.org/2000/svg">
<g clip-path="url(#clip0_6240_8136)">
<path d="M5.90619 0.835938C5.51169 0.835938 5.19189 1.13974 5.19189 1.51452V2.87165H6.62045V1.51452C6.62045 1.13974 6.30065 0.835938 5.90619 0.835938Z" fill="#1D607A"/>
<path d="M15.9062 0.835938C15.5117 0.835938 15.1919 1.13974 15.1919 1.51452V2.87165H16.6205V1.51452C16.6205 1.13974 16.3007 0.835938 15.9062 0.835938Z" fill="#1D607A"/>
<path d="M18.7634 2.87109H16.6205V5.58539C16.6205 5.96017 16.3007 6.26397 15.9062 6.26397C15.5117 6.26397 15.1919 5.96017 15.1919 5.58539V2.87109H6.62052V5.58539C6.62052 5.96017 6.30072 6.26397 5.90622 6.26397C5.51172 6.26397 5.19192 5.96017 5.19192 5.58539V2.87109H3.04911C1.86564 2.87109 0.90625 3.78251 0.90625 4.90681V17.7997C0.90625 18.924 1.86564 19.8354 3.04911 19.8354H18.7634C19.9469 19.8354 20.9062 18.924 20.9062 17.7997V4.90681C20.9062 3.78251 19.9469 2.87109 18.7634 2.87109ZM19.4777 17.7997C19.4777 18.1744 19.1579 18.4782 18.7634 18.4782H3.04911C2.6546 18.4782 2.33481 18.1744 2.33481 17.7997V8.97823H19.4777V17.7997Z" fill="#1D607A"/>
<path d="M15.6975 10.5349C15.4186 10.2697 14.9662 10.2696 14.6871 10.5345L9.47784 15.4834L7.12568 13.2488C6.84657 12.9839 6.39423 12.984 6.11532 13.2492C5.83641 13.5144 5.83658 13.9441 6.1157 14.209L8.97285 16.9233C9.2518 17.1883 9.70393 17.1883 9.98284 16.9233L15.6971 11.4947C15.9762 11.2298 15.9764 10.8001 15.6975 10.5349Z" fill="#1D607A"/>
</g>
<defs>
<clipPath id="clip0_6240_8136">
<rect width="20" height="19" fill="white" transform="translate(0.90625 0.835938)"/>
</clipPath>
</defs>
</svg>
