<svg width="313" height="253" viewBox="0 0 313 253" fill="none" xmlns="http://www.w3.org/2000/svg">
<g filter="url(#filter0_d_6240_5738)">
<path d="M234.472 149.183L119.384 213.276C118.291 213.885 117.05 214.18 115.8 214.128C114.549 214.076 113.337 213.68 112.298 212.983L53.9935 173.97C53.0254 173.323 52.2403 172.438 51.714 171.4C51.1876 170.362 50.9376 169.206 50.988 168.043C51.0385 166.881 51.3877 165.751 52.002 164.762C52.6164 163.774 53.4751 162.96 54.4957 162.399L163.933 102.158C164.937 101.606 166.063 101.316 167.208 101.316C168.353 101.316 169.48 101.606 170.483 102.158L234.444 137.325C235.505 137.91 236.39 138.767 237.007 139.808C237.624 140.849 237.951 142.036 237.954 143.246C237.957 144.456 237.635 145.645 237.023 146.688C236.411 147.732 235.53 148.594 234.472 149.183V149.183Z" fill="#FFE922"/>
<path opacity="0.32" d="M102.741 177.023L141.368 199.672L132.37 204.646L94.2102 182.987C99.3717 179.497 98.2766 181.336 102.741 177.023Z" fill="url(#paint0_linear_6240_5738)"/>
<path d="M79.083 164.042L66.6117 162.105L77.4648 173.155" fill="#FFC65A"/>
<path d="M79.0819 173.643C77.0364 173.643 75.3782 171.494 75.3782 168.843C75.3782 166.192 77.0364 164.043 79.0819 164.043C81.1274 164.043 82.7856 166.192 82.7856 168.843C82.7856 171.494 81.1274 173.643 79.0819 173.643Z" fill="#40006B"/>
<path d="M121.482 198.444L77.4627 173.155L80.4689 164.391L124.642 189.777L121.482 198.444Z" fill="#40006B"/>
<path d="M122.927 198.819C120.882 198.819 119.223 196.67 119.223 194.019C119.223 191.368 120.882 189.219 122.927 189.219C124.973 189.219 126.631 191.368 126.631 194.019C126.631 196.67 124.973 198.819 122.927 198.819Z" fill="#40006B"/>
<path opacity="0.52" d="M122.927 198.819C120.882 198.819 119.223 196.67 119.223 194.019C119.223 191.368 120.882 189.219 122.927 189.219C124.973 189.219 126.631 191.368 126.631 194.019C126.631 196.67 124.973 198.819 122.927 198.819Z" fill="#505A63"/>
<path d="M66.6096 162.133L71.3525 162.829C71.3525 162.829 69.5879 163.422 70.0971 165.616L66.6096 162.133Z" fill="#895415"/>
<path style="mix-blend-mode:multiply" d="M215.979 154.546C211.446 150.659 208.146 147.029 203.424 143.337L219.934 141.672L230.438 145.81C225.723 148.855 220.855 151.683 215.979 154.546Z" fill="url(#paint1_linear_6240_5738)"/>
<path d="M218.323 134.485C218.619 134.484 218.912 134.419 219.181 134.297L219.313 135.168L205.363 135.523V134.485H218.323Z" fill="#EF8A3F"/>
<path d="M219.188 134.324L219.313 135.16L211.606 139.605V138.525C214.201 137.271 216.705 135.822 219.188 134.324Z" fill="#EF8A3F"/>
<path d="M211.403 74.199C211.859 74.2744 212.327 74.2062 212.743 74.0039L221.587 142.18C221.05 142.507 220.492 142.8 219.948 143.106L210.999 74.1363L211.403 74.199Z" fill="#EF8A3F"/>
<path d="M209.367 74.125C209.69 74.1603 210.015 74.1603 210.337 74.125C210.595 74.125 210.86 74.125 211.118 74.1668L205.141 144.07C204.686 143.848 204.221 143.651 203.746 143.478L203.508 143.36H203.467L209.367 74.125Z" fill="#EF8A3F"/>
<path d="M210.34 74.125C210.697 74.1268 211.053 74.1524 211.407 74.2016C211.546 74.2126 211.686 74.2126 211.825 74.2016L212.411 148.048C212.112 147.942 211.789 147.915 211.476 147.972H210.974H210.681L210.095 74.125H210.34Z" fill="#EF8A3F"/>
<path d="M219.985 75.3008V90.5717C219.985 90.5717 202.394 91.0942 202.394 90.5717V75.3008" fill="#40006B"/>
<path d="M211.19 79.3402C206.332 79.3402 202.394 77.5186 202.394 75.2717C202.394 73.0247 206.332 71.2031 211.19 71.2031C216.047 71.2031 219.985 73.0247 219.985 75.2717C219.985 77.5186 216.047 79.3402 211.19 79.3402Z" fill="#40006B"/>
<path opacity="0.46" d="M211.19 79.3402C206.332 79.3402 202.394 77.5186 202.394 75.2717C202.394 73.0247 206.332 71.2031 211.19 71.2031C216.047 71.2031 219.985 73.0247 219.985 75.2717C219.985 77.5186 216.047 79.3402 211.19 79.3402Z" fill="#091114"/>
<path d="M211.19 94.8714C206.332 94.8714 202.394 93.0499 202.394 90.8029C202.394 88.5559 206.332 86.7344 211.19 86.7344C216.047 86.7344 219.985 88.5559 219.985 90.8029C219.985 93.0499 216.047 94.8714 211.19 94.8714Z" fill="#40006B"/>
<path d="M96.1921 120.221C96.1921 117.024 101.193 117.017 101.172 120.221C101.075 133.946 100.535 147.647 99.5541 161.325C99.3239 164.494 94.3507 164.522 94.5739 161.325C95.5551 147.647 96.0945 133.946 96.1921 120.221Z" fill="#091114"/>
<path d="M127.098 108.813L144.814 133.043C146.704 135.627 142.387 138.114 140.518 135.551L122.801 111.321C120.876 108.736 125.228 106.256 127.098 108.813Z" fill="#091114"/>
<path d="M58.5135 80.4289L151.567 26.9249C151.983 26.6862 152.452 26.5563 152.932 26.5474C153.412 26.5384 153.886 26.6508 154.31 26.8739C154.735 27.097 155.096 27.4237 155.36 27.8236C155.624 28.2235 155.783 28.6836 155.822 29.1612L161.792 103.301C161.835 103.839 161.723 104.379 161.47 104.856C161.217 105.334 160.833 105.729 160.362 105.997L69.2829 157.55C68.8733 157.781 68.4127 157.907 67.9425 157.916C67.4722 157.926 67.0069 157.819 66.5882 157.605C66.1695 157.391 65.8103 157.077 65.543 156.69C65.2756 156.304 65.1083 155.857 65.056 155.39L57.1115 83.2017C57.0507 82.6535 57.1508 82.0994 57.3997 81.6071C57.6487 81.1148 58.0357 80.7054 58.5135 80.4289V80.4289Z" fill="#D15713"/>
<path d="M67.8394 98.3112L107.269 76.2617L112.751 122.311L73.2241 144.486L67.8394 98.3112Z" fill="#40006B"/>
<path d="M142.499 49.4062C142.499 49.4062 142.443 65.548 145.38 68.7527L133.153 75.8865C131.885 74.2577 131.036 72.3446 130.677 70.3132C130.412 68.4949 129.526 56.4705 129.526 56.4705L142.499 49.4062Z" fill="#40006B"/>
<path d="M127.55 58.0391C127.55 58.0391 127.494 74.1808 130.431 77.3855L118.197 84.5194C116.929 82.8906 116.079 80.9774 115.72 78.946C115.455 77.1417 114.597 65.1172 114.597 65.1172L127.55 58.0391Z" fill="#40006B"/>
<path d="M96.515 79.3359L97.8682 84.5331L75.6946 96.5854L74.1253 92.0431L96.515 79.3359Z" fill="#091114"/>
<path d="M120.772 63.4875C119.632 63.4875 118.708 62.5643 118.708 61.4254C118.708 60.2865 119.632 59.3633 120.772 59.3633C121.913 59.3633 122.837 60.2865 122.837 61.4254C122.837 62.5643 121.913 63.4875 120.772 63.4875Z" fill="#E28133"/>
<path d="M122.956 117.636L119.217 88.815L144.376 73.7461L122.956 117.636Z" fill="#AD3C04"/>
<path d="M145.087 74.1172L122.956 87.0403V117.638L145.087 104.408V74.1172Z" fill="#FF876A"/>
<path d="M134.759 54.693C133.642 54.693 132.737 53.7885 132.737 52.6727C132.737 51.5569 133.642 50.6523 134.759 50.6523C135.877 50.6523 136.782 51.5569 136.782 52.6727C136.782 53.7885 135.877 54.693 134.759 54.693Z" fill="#E28133"/>
<path opacity="0.32" d="M160.18 155.398L209.793 183.202L191.658 194.043L143.126 166.503C149.669 162.052 154.496 160.881 160.18 155.398Z" fill="url(#paint2_linear_6240_5738)"/>
<path d="M145.025 81.5799C145.025 81.5799 145.429 78.7932 145.025 77.7621C144.691 76.4439 144.474 75.0987 144.376 73.7424C144.112 73.6829 143.835 73.7206 143.597 73.8486C143.359 73.9766 143.175 74.1863 143.079 74.439C142.695 75.3656 143.497 77.6437 143.497 77.6437C143.497 77.6437 141.209 82.388 143.497 84.5477C145.785 86.7073 145.025 81.5799 145.025 81.5799Z" fill="#FFAC99"/>
<path d="M160.216 96.3892L145.024 81.5781C145.024 81.5781 141.586 89.0464 145.024 92.467L158.974 106.317" fill="#091114"/>
<path d="M163.057 157.627C163.057 157.627 165.149 160.532 164.982 162.232C164.815 163.932 162.136 166.795 161.529 168.007C160.923 169.219 160.762 169.756 161.529 170.641C162.297 171.525 168.832 165.834 169.007 164.921C169.181 164.008 168.093 160.518 168.093 160.518L170.994 164.183L173.087 162.936L168.602 155.391" fill="#EA7554"/>
<path d="M162.224 170.73C162.399 170.556 167.581 168.758 167.581 168.758C167.581 168.758 170.016 166.229 169.946 165.275C169.876 164.321 168.983 160.482 168.076 160.524C167.17 160.566 167.065 165.63 167.065 165.63L162.224 170.73Z" fill="#AF4127"/>
<path d="M156.059 162.448L155.362 170.188C155.362 170.188 153.688 171.414 153.269 171.303C152.851 171.191 151.63 170.878 151.616 170.683C151.602 170.488 152.209 165.214 152.035 165.109C151.86 165.005 149.293 169.136 148.491 169.227C147.689 169.317 141.516 165.743 142.13 164.392C142.744 163.04 145.687 163.744 147.152 163.737C148.162 163.689 149.135 163.345 149.95 162.748C150.765 162.151 151.386 161.327 151.735 160.379" fill="#EA7554"/>
<path d="M152.173 141.477L148.421 161.318C148.421 161.318 150.59 164.146 158.332 163.791L164.122 149.718" fill="#FFC65A"/>
<path d="M150.514 110.338C150.514 110.338 144.732 118.768 146.51 132.409C148.087 144.503 160.181 158.749 160.181 158.749C160.181 158.749 163.801 160.345 171.341 153.232L163.034 140.044C163.034 140.044 171.132 121.311 161.569 109.391" fill="#FFC65A"/>
<path d="M134.213 94.1674C134.213 93.9439 134.124 93.7294 133.966 93.5714C133.807 93.4133 133.593 93.3245 133.369 93.3245C133.145 93.3245 132.93 93.4133 132.772 93.5714C132.614 93.7294 132.525 93.9439 132.525 94.1674C132.525 94.7317 132.525 95.303 132.525 95.8673L132.336 95.4981C131.676 93.9284 131.183 92.2939 130.865 90.6214C130.655 89.5346 129.093 90.0223 129.24 91.0673C129.352 91.8869 129.525 92.6972 129.756 93.4917L129.588 93.422C129.445 93.3787 129.295 93.3647 129.147 93.3807C128.998 93.3968 128.855 93.4427 128.725 93.5155C128.594 93.5884 128.48 93.6868 128.389 93.8048C128.297 93.9228 128.231 94.058 128.193 94.2023C128.11 94.4612 128.096 94.7373 128.151 95.0034H128.026C127.842 95.0622 127.674 95.1639 127.537 95.3002C127.4 95.4364 127.297 95.6033 127.237 95.787C127.177 95.9707 127.162 96.166 127.192 96.3568C127.222 96.5476 127.298 96.7285 127.412 96.8844C127.203 97.05 127.059 97.2846 127.008 97.5463C126.971 97.8432 127.016 98.1445 127.139 98.4173C127.262 98.6901 127.458 98.9238 127.705 99.0929C128.284 99.5736 128.919 100.201 129.449 100.716C130.146 101.413 130.934 102.068 131.583 102.611C132.232 103.154 133.306 101.364 133.32 100.765C133.44 100.804 133.568 100.813 133.693 100.791C133.818 100.769 133.935 100.717 134.035 100.639C134.134 100.562 134.214 100.461 134.265 100.345C134.317 100.23 134.34 100.104 134.331 99.9776C134.196 98.0502 134.157 96.1135 134.213 94.1674Z" fill="#FFAC99"/>
<path d="M130.835 95.9522C130.435 95.1209 130.068 94.2779 129.733 93.4233C129.663 93.2422 129.363 93.3188 129.44 93.5069C129.784 94.3894 130.161 95.2556 130.57 96.1055C130.64 96.3006 130.926 96.1473 130.835 95.9522Z" fill="#AF594A"/>
<path d="M151.394 91.7344C149.945 93.0291 148.636 94.4721 147.488 96.0398C146.4 97.8023 142.02 102.623 140.22 101.174C138.421 99.7251 135.226 96.9524 135.226 96.9524C135.226 96.9524 130.672 100.08 131.146 103.334C131.146 103.334 135.191 111.589 141.497 109.764C147.802 107.939 149.372 105.584 149.372 105.584L150.327 110.948C150.327 110.948 158.153 113.394 161.773 109.764C161.773 109.764 164.152 94.3399 162.401 92.0409" fill="#091114"/>
<path d="M150.52 82.3948C150.465 82.5759 150.325 88.1702 152.229 88.6648C154.133 89.1594 157.37 87.8706 158.214 86.0941C159.058 84.3176 157.851 78.6746 154.852 78.3472C151.853 78.0197 151.057 80.7646 150.52 82.3948Z" fill="#FFAC99"/>
<path d="M152.83 83.4119C154.086 84.2618 153.291 85.8711 152.761 86.8952C152.366 87.6884 152.175 88.5668 152.203 89.452C152.219 90.2792 151.928 91.0832 151.387 91.7092C150.968 92.2339 150.61 92.8041 150.319 93.4091C153.1 93.9141 155.946 93.9495 158.738 93.5136C161.038 93.3283 163.327 93.0213 165.595 92.594C165.568 92.114 165.457 91.6424 165.267 91.2006C164.73 89.9675 163.872 89.3057 164.053 87.8566C164.214 86.735 164.5 85.6343 164.109 84.5266C163.718 83.4189 162.714 82.8546 161.814 82.1788C161.545 81.9822 161.293 81.7632 161.061 81.5239L160.866 81.1895C160.403 80.1754 159.837 79.2113 159.178 78.3123C158.442 77.5754 157.493 77.088 156.464 76.919C155.391 76.7213 154.289 76.7428 153.225 76.9823C152.16 77.2218 151.155 77.6742 150.271 78.3123C150.271 78.3123 148.638 79.8798 149.148 81.5588C149.657 83.2377 151.707 82.6665 152.83 83.4119Z" fill="#E28133"/>
<path d="M151.4 145.566C151.4 145.566 158.019 157.013 160.181 158.754L158.34 163.791C158.34 163.791 150.646 153.007 151.4 145.566Z" fill="#EA7554"/>
<path d="M162.879 139.435C160.766 134.979 159.591 130.137 159.426 125.209C159.426 124.819 158.798 124.812 158.812 125.209C158.982 130.246 160.186 135.195 162.349 139.749C162.516 140.097 163.046 139.791 162.879 139.435Z" fill="#EA7554"/>
</g>
<defs>
<filter id="filter0_d_6240_5738" x="0.90625" y="-10.1641" width="354" height="273" filterUnits="userSpaceOnUse" color-interpolation-filters="sRGB">
<feFlood flood-opacity="0" result="BackgroundImageFix"/>
<feColorMatrix in="SourceAlpha" type="matrix" values="0 0 0 0 0 0 0 0 0 0 0 0 0 0 0 0 0 0 127 0" result="hardAlpha"/>
<feOffset dx="43" dy="6"/>
<feGaussianBlur stdDeviation="16"/>
<feColorMatrix type="matrix" values="0 0 0 0 0 0 0 0 0 0 0 0 0 0 0 0 0 0 0.25 0"/>
<feBlend mode="normal" in2="BackgroundImageFix" result="effect1_dropShadow_6240_5738"/>
<feBlend mode="normal" in="SourceGraphic" in2="effect1_dropShadow_6240_5738" result="shape"/>
</filter>
<linearGradient id="paint0_linear_6240_5738" x1="133.71" y1="203.859" x2="125.473" y2="197.363" gradientUnits="userSpaceOnUse">
<stop stop-color="white" stop-opacity="0"/>
<stop offset="0.98" stop-color="#AA6800"/>
</linearGradient>
<linearGradient id="paint1_linear_6240_5738" x1="206.577" y1="130.337" x2="222.81" y2="152.642" gradientUnits="userSpaceOnUse">
<stop stop-color="#F15A24"/>
<stop offset="1" stop-color="white"/>
</linearGradient>
<linearGradient id="paint2_linear_6240_5738" x1="-8014.92" y1="9608.13" x2="-10321.9" y2="6999.07" gradientUnits="userSpaceOnUse">
<stop stop-color="white" stop-opacity="0"/>
<stop offset="0.98" stop-color="#AA6800"/>
</linearGradient>
</defs>
</svg>
