<svg width="101" height="101" viewBox="0 0 101 101" fill="none" xmlns="http://www.w3.org/2000/svg">
<path d="M92.582 74.1719C92.582 64.3891 86.2492 56.0834 77.5102 53.186C80.9336 50.9324 83.207 47.036 83.207 42.6094C83.207 35.6483 77.5992 29.9844 70.707 29.9844C70.0461 29.9844 69.4023 30.0522 68.7695 30.1517C68.857 29.896 68.968 29.6467 69.0445 29.3878L72.2695 28.6209V18.8018L69.0477 18.0348C68.6695 16.7534 68.1617 15.5161 67.5289 14.3373L69.2711 11.4919L62.4539 4.60497L59.6367 6.36616C58.4711 5.73017 57.2461 5.2157 55.9742 4.83222L55.2164 1.57812H45.5727L44.8148 4.83222C43.5445 5.2157 42.318 5.72859 41.1523 6.36616L38.3352 4.60497L31.518 11.4919L33.2602 14.3373C32.6289 15.5161 32.1211 16.7534 31.7414 18.0348L28.5195 18.8034V28.624L31.743 29.391C31.8195 29.6482 31.9305 29.8976 32.018 30.1532C31.3867 30.0522 30.743 29.9844 30.082 29.9844C23.1898 29.9844 17.582 35.6483 17.582 42.6094C17.582 47.036 19.8555 50.9324 23.2789 53.186C14.5398 56.0834 8.20703 64.3891 8.20703 74.1719V80.4844H32.468C29.9867 84.0667 28.5195 88.416 28.5195 93.1094V99.4219H72.2695V93.1094C72.2695 88.416 70.8023 84.0667 68.3211 80.4844H92.582V74.1719ZM73.832 56.8125C73.832 59.3785 72.4008 61.5469 70.707 61.5469C69.0133 61.5469 67.582 59.3785 67.582 56.8125C67.582 56.3643 67.6445 55.9209 67.7383 55.4806C68.7164 55.3227 69.707 55.2344 70.707 55.2344C71.7211 55.2344 72.7102 55.3385 73.6805 55.4963C73.7711 55.9319 73.832 56.3706 73.832 56.8125ZM50.3945 71.0156C45.2242 71.0156 41.0195 66.7689 41.0195 61.5469C41.0195 56.3249 45.2242 52.0781 50.3945 52.0781C55.5648 52.0781 59.7695 56.3249 59.7695 61.5469C59.7695 66.7689 55.5648 71.0156 50.3945 71.0156ZM38.232 57.125C38.3648 57.1897 38.4992 57.2496 38.6305 57.3175C38.1633 58.6431 37.8945 60.0619 37.8945 61.5469C37.8945 62.1765 37.9555 62.792 38.0445 63.398L35.9633 68.0235L32.1758 63.2434L38.232 57.125ZM50.3945 48.9219C46.0852 48.9219 42.2789 51.136 40.0305 54.4974C39.018 53.975 37.9664 53.541 36.8883 53.1844C40.3102 50.9292 42.582 47.0344 42.582 42.6094C42.582 42.3158 42.5586 42.0286 42.5383 41.7414C43.2789 42.0712 44.0383 42.3569 44.8148 42.592L45.5727 45.8461H55.2164L55.9742 42.592C56.7508 42.3569 57.5102 42.0712 58.2508 41.7414C58.2305 42.0286 58.207 42.3158 58.207 42.6094C58.207 47.036 60.4789 50.9292 63.9008 53.1844C62.8242 53.5395 61.7727 53.9766 60.7602 54.499C58.5117 51.1376 54.7039 48.9219 50.3945 48.9219ZM80.082 42.6094C80.082 47.8314 75.8773 52.0781 70.707 52.0781C65.5367 52.0781 61.332 47.8314 61.332 42.6094C61.332 37.3874 65.5367 33.1406 70.707 33.1406C75.8773 33.1406 80.082 37.3874 80.082 42.6094ZM34.5242 27.6929L34.2961 26.754L31.6445 26.1227V21.3L34.2945 20.6703L34.5227 19.7313C34.9164 18.109 35.5508 16.5577 36.4133 15.1247L36.9086 14.2994L35.4742 11.959L38.7945 8.60552L41.1117 10.0542L41.9289 9.55239C43.3445 8.68442 44.8805 8.04055 46.4914 7.64286L47.4211 7.41245L48.0477 4.73438H52.7414L53.3648 7.41088L54.2945 7.64128C55.9055 8.04055 57.4414 8.68284 58.857 9.55081L59.6742 10.0527L61.9914 8.60394L65.3117 11.9575L63.8789 14.2994L64.3742 15.1247C65.2367 16.5577 65.8711 18.109 66.2648 19.7313L66.493 20.6703L69.1445 21.3015V26.1243L66.4945 26.754L66.2664 27.6929C65.9508 28.998 65.4383 30.27 64.7898 31.4931C62.3102 32.8455 60.332 35.0202 59.2148 37.6525L58.8586 37.8703C57.443 38.7382 55.907 39.3821 54.2961 39.7798L53.3664 40.0102L52.743 42.6867H48.0492L47.4258 40.0086L46.4961 39.7782C44.8883 39.3805 43.3523 38.7382 41.9336 37.8687L41.5773 37.6509C40.4602 35.017 38.482 32.8424 36.0023 31.4899C35.3523 30.27 34.8398 28.998 34.5242 27.6929ZM20.707 42.6094C20.707 37.3874 24.9117 33.1406 30.082 33.1406C35.2523 33.1406 39.457 37.3874 39.457 42.6094C39.457 47.8314 35.2523 52.0781 30.082 52.0781C24.9117 52.0781 20.707 47.8314 20.707 42.6094ZM35.0211 55.9051L30.082 60.8935L25.157 55.9193C26.7289 55.4853 28.3758 55.2344 30.082 55.2344C31.7617 55.2344 33.4211 55.4648 35.0211 55.9051ZM27.9883 63.2418L24.2008 68.0219L19.8383 58.3291C20.5102 57.884 21.2164 57.4927 21.9445 57.136L27.9883 63.2418ZM11.332 74.1719C11.332 68.7147 13.643 63.8036 17.3133 60.3443L23.4633 74.0093L30.082 65.6516L36.7008 74.0093L39.518 67.7489C40.5102 69.5164 41.9102 71.0188 43.5898 72.125C40.3711 73.1919 37.482 74.9893 35.1133 77.3297H19.1445V67.861H16.0195V77.3297H11.332V74.1719ZM50.3945 74.1719C53.1102 74.1719 55.6852 74.77 58.018 75.8242L50.3945 93.8274L42.7711 75.8226C45.1039 74.77 47.6789 74.1719 50.3945 74.1719ZM31.6445 93.1094C31.6445 86.5412 34.9742 80.7479 40.0164 77.3502L48.0258 96.2656H39.457V86.7969H36.332V96.2656H31.6445V93.1094ZM69.1445 96.2656H64.457V86.7969H61.332V96.2656H52.7633L60.7727 77.3502C65.8148 80.7479 69.1445 86.5412 69.1445 93.1094V96.2656ZM89.457 77.3281H84.7695V67.8594H81.6445V77.3281H65.6742C63.3055 74.9878 60.4148 73.1903 57.1977 72.1235C60.6211 69.8699 62.8945 65.9735 62.8945 61.5469C62.8945 60.0634 62.6258 58.6447 62.1586 57.3207C62.9164 56.9277 63.6992 56.5868 64.5008 56.3043C64.4914 56.4732 64.457 56.6421 64.457 56.8125C64.457 61.1634 67.2602 64.7031 70.707 64.7031C74.1539 64.7031 76.957 61.1634 76.957 56.8125C76.957 56.6484 76.9242 56.4874 76.9148 56.3233C84.207 58.9193 89.457 65.9293 89.457 74.1719V77.3281Z" fill="#604CDA"/>
<path d="M50.3945 29.9844C53.8414 29.9844 56.6445 27.1532 56.6445 23.6719C56.6445 20.1905 53.8414 17.3594 50.3945 17.3594C46.9477 17.3594 44.1445 20.1905 44.1445 23.6719C44.1445 27.1532 46.9477 29.9844 50.3945 29.9844ZM50.3945 20.5156C52.118 20.5156 53.5195 21.9312 53.5195 23.6719C53.5195 25.4125 52.118 26.8281 50.3945 26.8281C48.6711 26.8281 47.2695 25.4125 47.2695 23.6719C47.2695 21.9312 48.6711 20.5156 50.3945 20.5156Z" fill="#604CDA"/>
<path d="M50.3945 36.2969C57.2867 36.2969 62.8945 30.633 62.8945 23.6719C62.8945 16.7108 57.2867 11.0469 50.3945 11.0469C43.5023 11.0469 37.8945 16.7108 37.8945 23.6719C37.8945 30.633 43.5023 36.2969 50.3945 36.2969ZM50.3945 14.2031C55.5648 14.2031 59.7695 18.4499 59.7695 23.6719C59.7695 28.8939 55.5648 33.1406 50.3945 33.1406C45.2242 33.1406 41.0195 28.8939 41.0195 23.6719C41.0195 18.4499 45.2242 14.2031 50.3945 14.2031Z" fill="#604CDA"/>
</svg>
