<svg width="534" height="399" viewBox="0 0 534 399" fill="none" xmlns="http://www.w3.org/2000/svg">
<g filter="url(#filter0_d_6232_32606)">
<path d="M61 51C61 39.9543 69.9543 31 81 31H451C462.046 31 471 39.9543 471 51V208.472C471 209.576 470.502 210.621 469.644 211.316V211.316C351.134 307.366 181.086 307.117 62.3691 211.322V211.322C61.5055 210.625 61 209.572 61 208.462V51Z" fill="url(#paint0_linear_6232_32606)"/>
</g>
<g opacity="0.7" filter="url(#filter1_d_6232_32606)">
<path d="M75.5625 66.0273C75.5625 64.3705 76.9056 63.0273 78.5625 63.0273L116.265 63.0274C117.921 63.0274 119.265 64.3705 119.265 66.0274V104.805C119.265 106.421 118.484 107.937 117.168 108.875L99.3773 121.565C97.5682 122.855 95.1244 122.797 93.379 121.421L77.4676 108.881C76.2646 107.933 75.5625 106.486 75.5625 104.954V66.0273Z" fill="#6D28FE"/>
</g>
<path opacity="0.95" d="M93.1113 99.1797L84.7837 95.7153V93.5474L93.1113 90.0903V92.6904L88.0503 94.6387L93.1113 96.5942V99.1797ZM97.4153 89.0796H98.9388L96.2435 100.176H94.7347L97.4153 89.0796ZM100.518 99.1797L108.846 95.7153V93.5474L100.518 90.0903V92.6904L105.579 94.6387L100.518 96.5942V99.1797Z" fill="white"/>
<g filter="url(#filter2_d_6232_32606)">
<ellipse cx="265.898" cy="267.93" rx="106" ry="104" fill="#E6E6E6" fill-opacity="0.6"/>
</g>
<path d="M293.775 372.375L287.228 368.454V301.977L293.775 305.897V372.375Z" fill="#7389D9"/>
<path d="M180.013 306.38L173.466 302.46V233.625L180.013 237.521V306.38Z" fill="#7389D9"/>
<path d="M180.013 306.378L253.6 265.611L218.744 216.113L180.013 237.519V306.378Z" fill="#879ADE"/>
<path d="M361.226 331.681L293.777 372.376V305.898L361.226 265.203V331.681Z" fill="#879ADE"/>
<path d="M293.633 306.212L170.506 234.178V230.113L363.392 260.225V264.314L293.633 306.212Z" fill="#99AFF0"/>
<path d="M293.633 302.145L170.506 230.111L241.18 187.035L363.392 260.223L293.633 302.145Z" fill="#99AFF0"/>
<path d="M293.633 302.145L170.506 230.111L241.18 187.035L363.392 260.223L293.633 302.145Z" fill="#99AFF0"/>
<path d="M221.345 239.011L257.453 259.959C257.737 260.101 258.05 260.175 258.368 260.175C258.685 260.175 258.998 260.101 259.282 259.959L273.725 253.033C274.207 252.768 274.688 246.707 274.038 248.679L234.874 232.397C234.587 232.249 234.269 232.172 233.947 232.172C233.625 232.172 233.307 232.249 233.02 232.397L221.201 236.966C220.72 237.183 220.792 238.65 221.345 239.011Z" fill="#7389D9"/>
<path d="M221.345 237.977L257.453 258.926C257.735 259.073 258.049 259.15 258.368 259.15C258.686 259.15 259 259.073 259.282 258.926C259.282 258.926 275.699 249.161 274.327 248.247L238.003 227.779C237.449 227.443 233.502 229.775 233.02 230.04L221.201 236.895C220.72 237.183 220.792 237.664 221.345 237.977Z" fill="#A2BFEF"/>
<path d="M234.992 232.368L232.874 231.141L234.005 230.516L236.1 231.742L234.992 232.368Z" fill="#879ADE"/>
<path d="M237.618 233.915L235.523 232.688L236.631 232.039L238.725 233.266L237.618 233.915Z" fill="#879ADE"/>
<path d="M232.777 233.664L230.659 232.437L232.489 231.379L234.607 232.606L232.777 233.664Z" fill="#879ADE"/>
<path d="M235.401 235.211L233.282 233.985L235.112 232.902L237.23 234.129L235.401 235.211Z" fill="#879ADE"/>
<path d="M268.741 252.453L266.911 253.511L262.169 250.745V250.312L268.741 251.996V252.453Z" fill="#879ADE"/>
<path d="M233.765 234.585L231.935 235.668L228.541 233.696L230.37 232.613L233.765 234.585Z" fill="#879ADE"/>
<path d="M230.371 237.23L226.399 234.922L228.229 233.863L232.201 236.172L230.371 237.23Z" fill="#879ADE"/>
<path d="M252.708 250.218L250.614 248.992L252.444 247.934L254.562 249.16L252.708 250.218Z" fill="#879ADE"/>
<path d="M264.48 254.932L262.651 255.99L258.823 253.778L260.653 252.695L264.48 254.932Z" fill="#879ADE"/>
<path d="M228.998 238.909L224.256 236.168L226.085 235.109L230.827 237.851L228.998 238.909Z" fill="#879ADE"/>
<path d="M231.623 240.449L229.505 239.222L231.334 238.164L233.453 239.391L231.623 240.449Z" fill="#879ADE"/>
<path d="M252.637 252.644L250.519 251.418L252.348 250.359L254.466 251.586L252.637 252.644Z" fill="#879ADE"/>
<path d="M260.51 257.239L255.961 254.594V254.137L262.34 255.724V256.157L260.51 257.239Z" fill="#879ADE"/>
<path d="M232.129 243.222L230.011 241.996L231.84 240.938L233.958 242.164L232.129 243.222Z" fill="#879ADE"/>
<path d="M252.324 252.843L250.495 253.901L232.634 243.511V243.078L252.324 252.386V252.843Z" fill="#879ADE"/>
<path d="M253.119 255.41L251.024 254.183V253.75L254.106 254.399V254.856L253.119 255.41Z" fill="#879ADE"/>
<path d="M255.742 256.957L253.624 255.73V255.273L257.572 255.442V255.899L255.742 256.957Z" fill="#879ADE"/>
<path d="M258.368 258.464L256.273 257.238V256.805L259.355 257.454V257.911L258.368 258.464Z" fill="#879ADE"/>
<path d="M234.174 230.668H232.874V231.149H234.174V230.668Z" fill="#879ADE"/>
<path d="M236.099 231.285H235.257V231.646H236.099V231.285Z" fill="#879ADE"/>
<path d="M238.748 232.828H237.328V233.237H238.748V232.828Z" fill="#879ADE"/>
<path d="M236.968 232.23H235.523V232.687H236.968V232.23Z" fill="#879ADE"/>
<path d="M235.112 233.523H233.282V233.98H235.112V233.523Z" fill="#879ADE"/>
<path d="M237.257 233.672H235.933V234.129H237.257V233.672Z" fill="#879ADE"/>
<path d="M232.201 231.934H230.709V232.391H232.201V231.934Z" fill="#879ADE"/>
<path d="M234.608 232.148H232.634V232.605H234.608V232.148Z" fill="#879ADE"/>
<path d="M230.202 233.242H228.541V233.675H230.202V233.242Z" fill="#879ADE"/>
<path d="M233.766 234.152H230.228V234.609H233.766V234.152Z" fill="#879ADE"/>
<path d="M227.723 234.492H226.399V234.925H227.723V234.492Z" fill="#879ADE"/>
<path d="M232.202 235.711H229.289V236.168H232.202V235.711Z" fill="#879ADE"/>
<path d="M230.829 237.422H226.905V237.855H230.829V237.422Z" fill="#879ADE"/>
<path d="M225.387 235.711H224.256V236.168H225.387V235.711Z" fill="#879ADE"/>
<path d="M233.452 238.961H231.141V239.394H233.452V238.961Z" fill="#879ADE"/>
<path d="M230.925 238.766H229.505V239.223H230.925V238.766Z" fill="#879ADE"/>
<path d="M234.992 231.942L232.874 230.716L234.005 230.066L236.1 231.293L234.992 231.942Z" fill="url(#paint1_linear_6232_32606)"/>
<path d="M237.618 233.485L235.523 232.235L236.631 231.609L238.725 232.836L237.618 233.485Z" fill="url(#paint2_linear_6232_32606)"/>
<path d="M269.127 252.218L267.033 250.992V250.559L270.259 251.136V251.593L269.127 252.218Z" fill="#879ADE"/>
<path d="M269.127 251.786L267.033 250.56L268.14 249.91L270.259 251.137L269.127 251.786Z" fill="url(#paint3_linear_6232_32606)"/>
<path d="M232.777 233.239L230.659 232.012L232.489 230.93L234.607 232.156L232.777 233.239Z" fill="url(#paint4_linear_6232_32606)"/>
<path d="M235.401 234.758L233.282 233.531L235.112 232.473L237.23 233.699L235.401 234.758Z" fill="url(#paint5_linear_6232_32606)"/>
<path d="M261.664 250.453L259.546 249.227V248.77L263.494 248.938V249.395L261.664 250.453Z" fill="#879ADE"/>
<path d="M261.664 250.028L259.546 248.777L261.375 247.719L263.494 248.945L261.664 250.028Z" fill="url(#paint6_linear_6232_32606)"/>
<path d="M259.04 248.941L256.922 247.715V247.258L260.87 247.426V247.859L259.04 248.941Z" fill="#879ADE"/>
<path d="M259.04 248.484L256.922 247.257L258.751 246.199L260.87 247.426L259.04 248.484Z" fill="url(#paint7_linear_6232_32606)"/>
<path d="M256.417 247.406L254.299 246.179V245.746L258.247 245.89V246.347L256.417 247.406Z" fill="#879ADE"/>
<path d="M256.417 246.977L254.299 245.75L256.128 244.668L258.247 245.895L256.417 246.977Z" fill="url(#paint8_linear_6232_32606)"/>
<path d="M253.794 245.887L251.676 244.66V244.203L255.624 244.371V244.804L253.794 245.887Z" fill="#879ADE"/>
<path d="M253.794 245.429L251.676 244.203L253.505 243.145L255.624 244.371L253.794 245.429Z" fill="url(#paint9_linear_6232_32606)"/>
<path d="M251.17 244.351L249.052 243.124V242.691L253 242.836V243.293L251.17 244.351Z" fill="#879ADE"/>
<path d="M251.17 243.914L249.052 242.688L250.881 241.605L253 242.832L251.17 243.914Z" fill="url(#paint10_linear_6232_32606)"/>
<path d="M248.547 242.836L246.429 241.609V241.152L250.376 241.321V241.778L248.547 242.836Z" fill="#879ADE"/>
<path d="M248.547 242.375L246.429 241.148L248.258 240.09L250.376 241.316L248.547 242.375Z" fill="url(#paint11_linear_6232_32606)"/>
<path d="M245.921 241.296L243.803 240.07V239.637L247.75 239.805V240.238L245.921 241.296Z" fill="#879ADE"/>
<path d="M245.921 240.86L243.803 239.633L245.632 238.551L247.75 239.801L245.921 240.86Z" fill="url(#paint12_linear_6232_32606)"/>
<path d="M243.274 239.781L241.18 238.555V238.098L245.127 238.266V238.723L243.274 239.781Z" fill="#879ADE"/>
<path d="M243.274 239.324L241.18 238.097L243.009 237.039L245.127 238.266L243.274 239.324Z" fill="url(#paint13_linear_6232_32606)"/>
<path d="M240.65 238.258L238.556 237.007V236.574L242.479 236.743V237.176L240.65 238.258Z" fill="#879ADE"/>
<path d="M240.65 237.808L238.556 236.582L240.385 235.523L242.479 236.75L240.65 237.808Z" fill="url(#paint14_linear_6232_32606)"/>
<path d="M238.027 236.727L235.933 235.5V235.043L239.856 235.211V235.668L238.027 236.727Z" fill="#879ADE"/>
<path d="M238.027 236.293L235.933 235.043L237.762 233.984L239.856 235.211L238.027 236.293Z" fill="url(#paint15_linear_6232_32606)"/>
<path d="M268.741 252.004L266.911 253.062L262.169 250.32L263.998 249.262L268.741 252.004Z" fill="url(#paint16_linear_6232_32606)"/>
<path d="M233.765 234.156L231.935 235.214L228.541 233.242L230.37 232.184L233.765 234.156Z" fill="url(#paint17_linear_6232_32606)"/>
<path d="M264.795 254.313L262.677 253.086V253.519L264.795 254.77L266.6 253.687V253.254L264.795 254.313Z" fill="#879ADE"/>
<path d="M266.624 253.25L264.506 252.023L262.7 253.058L264.794 254.308L266.624 253.25Z" fill="url(#paint18_linear_6232_32606)"/>
<path d="M230.371 236.801L226.399 234.492L228.229 233.41L232.201 235.719L230.371 236.801Z" fill="url(#paint19_linear_6232_32606)"/>
<path d="M255.549 251.418L253.431 250.191V250.624L255.549 251.851L257.378 250.793V250.36L255.549 251.418Z" fill="#879ADE"/>
<path d="M257.378 250.36L255.26 249.109L253.431 250.192L255.549 251.418L257.378 250.36Z" fill="url(#paint20_linear_6232_32606)"/>
<path d="M252.686 249.781L250.592 248.555V249.012L252.686 250.238L254.515 249.18V248.723L252.686 249.781Z" fill="#879ADE"/>
<path d="M254.515 248.731L252.421 247.504L250.592 248.562L252.686 249.789L254.515 248.731Z" fill="url(#paint21_linear_6232_32606)"/>
<path d="M249.846 248.176L247.752 246.949V247.382L249.846 248.609L251.676 247.551V247.094L249.846 248.176Z" fill="#879ADE"/>
<path d="M251.676 247.094L249.557 245.867L247.752 246.949L249.846 248.176L251.676 247.094Z" fill="url(#paint22_linear_6232_32606)"/>
<path d="M247.004 246.543L244.886 245.316V245.749L247.004 247L248.834 245.918V245.485L247.004 246.543Z" fill="#879ADE"/>
<path d="M248.834 245.477L246.715 244.25L244.886 245.308L247.004 246.535L248.834 245.477Z" fill="url(#paint23_linear_6232_32606)"/>
<path d="M244.165 244.906L242.047 243.68V244.137L244.165 245.363L245.995 244.305V243.848L244.165 244.906Z" fill="#879ADE"/>
<path d="M245.995 243.844L243.876 242.617L242.047 243.675L244.165 244.902L245.995 243.844Z" fill="url(#paint24_linear_6232_32606)"/>
<path d="M241.325 243.289L239.207 242.062V242.495L241.325 243.746L243.155 242.664V242.231L241.325 243.289Z" fill="#879ADE"/>
<path d="M243.155 242.227L241.036 241L239.207 242.058L241.325 243.285L243.155 242.227Z" fill="url(#paint25_linear_6232_32606)"/>
<path d="M238.483 241.652L236.364 240.426V240.883L238.483 242.109L240.312 241.051V240.594L238.483 241.652Z" fill="#879ADE"/>
<path d="M240.312 240.594L238.194 239.367L236.364 240.425L238.483 241.652L240.312 240.594Z" fill="url(#paint26_linear_6232_32606)"/>
<path d="M235.644 240.047L233.525 238.82V239.253L235.644 240.48L237.473 239.422V238.989L235.644 240.047Z" fill="#879ADE"/>
<path d="M237.473 238.988L235.355 237.762L233.525 238.82L235.644 240.047L237.473 238.988Z" fill="url(#paint27_linear_6232_32606)"/>
<path d="M232.804 238.406L230.686 237.18V237.637L232.804 238.863L234.633 237.781V237.348L232.804 238.406Z" fill="#879ADE"/>
<path d="M234.633 237.356L232.515 236.129L230.686 237.187L232.804 238.414L234.633 237.356Z" fill="url(#paint28_linear_6232_32606)"/>
<path d="M258.366 253.051L256.248 251.824V252.257L258.366 253.484L260.196 252.426V251.993L258.366 253.051Z" fill="#879ADE"/>
<path d="M260.196 252L258.078 250.773L256.248 251.832L258.366 253.058L260.196 252Z" fill="url(#paint29_linear_6232_32606)"/>
<path d="M264.48 254.478L262.651 255.561L258.823 253.324L260.653 252.266L264.48 254.478Z" fill="url(#paint30_linear_6232_32606)"/>
<path d="M228.998 238.484L224.256 235.718L226.085 234.66L230.827 237.426L228.998 238.484Z" fill="url(#paint31_linear_6232_32606)"/>
<path d="M231.623 240L229.505 238.773L231.334 237.715L233.453 238.941L231.623 240Z" fill="url(#paint32_linear_6232_32606)"/>
<path d="M255.261 253.727L253.143 252.5V252.957L255.261 254.184L257.09 253.125V252.668L255.261 253.727Z" fill="#879ADE"/>
<path d="M257.09 252.676L254.972 251.449L253.143 252.507L255.261 253.734L257.09 252.676Z" fill="url(#paint33_linear_6232_32606)"/>
<path d="M252.637 252.215L250.519 250.988V251.421L252.637 252.648L254.466 251.59V251.157L252.637 252.215Z" fill="#879ADE"/>
<path d="M254.466 251.161L252.348 249.91L250.519 250.992L252.637 252.219L254.466 251.161Z" fill="url(#paint34_linear_6232_32606)"/>
<path d="M250.014 250.676L247.896 249.449V249.906L250.014 251.133L251.843 250.051V249.618L250.014 250.676Z" fill="#879ADE"/>
<path d="M251.843 249.613L249.725 248.387L247.896 249.445L250.014 250.672L251.843 249.613Z" fill="url(#paint35_linear_6232_32606)"/>
<path d="M247.391 249.16L245.272 247.934V248.367L247.391 249.593L249.22 248.535V248.078L247.391 249.16Z" fill="#879ADE"/>
<path d="M249.22 248.082L247.102 246.855L245.272 247.938L247.391 249.164L249.22 248.082Z" fill="url(#paint36_linear_6232_32606)"/>
<path d="M244.767 247.621L242.648 246.395V246.852L244.767 248.078L246.596 246.996V246.563L244.767 247.621Z" fill="#879ADE"/>
<path d="M246.596 246.559L244.478 245.332L242.648 246.39L244.767 247.617L246.596 246.559Z" fill="url(#paint37_linear_6232_32606)"/>
<path d="M242.144 246.109L240.025 244.883V245.316L242.144 246.542L243.973 245.484V245.027L242.144 246.109Z" fill="#879ADE"/>
<path d="M243.973 245.02L241.855 243.793L240.025 244.875L242.144 246.102L243.973 245.02Z" fill="url(#paint38_linear_6232_32606)"/>
<path d="M239.496 244.566L237.401 243.34V243.773L239.496 245.023L241.349 243.941V243.508L239.496 244.566Z" fill="#879ADE"/>
<path d="M241.349 243.508L239.231 242.281L237.401 243.34L239.496 244.566L241.349 243.508Z" fill="url(#paint39_linear_6232_32606)"/>
<path d="M236.871 243.051L234.776 241.801V242.258L236.871 243.484L238.7 242.426V241.969L236.871 243.051Z" fill="#879ADE"/>
<path d="M238.7 241.965L236.606 240.738L234.776 241.797L236.871 243.047L238.7 241.965Z" fill="url(#paint40_linear_6232_32606)"/>
<path d="M234.246 241.516L232.151 240.289V240.746L234.246 241.973L236.075 240.89V240.457L234.246 241.516Z" fill="#879ADE"/>
<path d="M236.075 240.453L233.957 239.227L232.151 240.285L234.246 241.511L236.075 240.453Z" fill="url(#paint41_linear_6232_32606)"/>
<path d="M260.51 256.79L255.961 254.144L257.79 253.086L262.34 255.732L260.51 256.79Z" fill="url(#paint42_linear_6232_32606)"/>
<path d="M224.232 238.191L222.138 236.965V237.422L224.232 238.648L226.061 237.566V237.133L224.232 238.191Z" fill="#879ADE"/>
<path d="M223.967 235.91L222.138 236.968L224.232 238.195L226.061 237.137L223.967 235.91Z" fill="url(#paint43_linear_6232_32606)"/>
<path d="M226.858 239.711L224.812 238.484V239.014L226.906 240.264L228.735 239.206V238.749L226.858 239.711Z" fill="#879ADE"/>
<path d="M226.593 237.422L224.764 238.48L226.858 239.707L228.687 238.648L226.593 237.422Z" fill="url(#paint44_linear_6232_32606)"/>
<path d="M229.481 241.254L227.387 240.027V240.46L229.481 241.687L231.31 240.629V240.196L229.481 241.254Z" fill="#879ADE"/>
<path d="M229.216 239.008L227.387 240.066L229.481 241.293L231.31 240.234L229.216 239.008Z" fill="url(#paint45_linear_6232_32606)"/>
<path d="M232.032 242.766L229.938 241.539V241.972L232.032 243.223L233.861 242.14V241.707L232.032 242.766Z" fill="#879ADE"/>
<path d="M231.79 240.473L229.961 241.531L232.055 242.758L233.885 241.699L231.79 240.473Z" fill="url(#paint46_linear_6232_32606)"/>
<path d="M252.324 252.378L250.495 253.437L232.634 243.071L234.463 241.988L252.324 252.378Z" fill="url(#paint47_linear_6232_32606)"/>
<path d="M253.119 254.98L251.024 253.753L251.987 253.176L254.106 254.402L253.119 254.98Z" fill="url(#paint48_linear_6232_32606)"/>
<path d="M255.742 256.496L253.624 255.269L255.478 254.211L257.572 255.438L255.742 256.496Z" fill="url(#paint49_linear_6232_32606)"/>
<path d="M258.368 258.034L256.273 256.808L257.236 256.23L259.355 257.457L258.368 258.034Z" fill="url(#paint50_linear_6232_32606)"/>
<path d="M262.001 252.695L259.907 251.469V251.926L262.001 253.152L263.855 252.094V251.637L262.001 252.695Z" fill="#879ADE"/>
<path d="M263.854 251.633L261.736 250.406L259.931 251.465L262.025 252.691L263.854 251.633Z" fill="url(#paint51_linear_6232_32606)"/>
<path d="M259.257 251.09L257.139 249.863V250.32L259.257 251.547L261.062 250.489V250.032L259.257 251.09Z" fill="#879ADE"/>
<path d="M261.088 250.023L258.969 248.797L257.164 249.855L259.258 251.082L261.088 250.023Z" fill="url(#paint52_linear_6232_32606)"/>
<path d="M256.489 249.473L254.371 248.246V248.703L256.489 249.93L258.319 248.871V248.414L256.489 249.473Z" fill="#879ADE"/>
<path d="M258.319 248.41L256.104 247.184L254.299 248.242L256.393 249.493L258.319 248.41Z" fill="url(#paint53_linear_6232_32606)"/>
<path d="M253.696 247.887L251.602 246.66V247.093L253.696 248.32L255.549 247.261V246.804L253.696 247.887Z" fill="#879ADE"/>
<path d="M255.549 246.829L253.43 245.578L251.625 246.636L253.695 247.887L255.549 246.829Z" fill="url(#paint54_linear_6232_32606)"/>
<path d="M250.953 246.277L248.835 245.051V245.484L250.953 246.71L252.759 245.652V245.219L250.953 246.277Z" fill="#879ADE"/>
<path d="M252.758 245.215L250.664 243.988L248.883 245.022L250.953 246.273L252.758 245.215Z" fill="url(#paint55_linear_6232_32606)"/>
<path d="M248.16 244.66L246.065 243.434V243.891L248.16 245.117L250.013 244.035V243.602L248.16 244.66Z" fill="#879ADE"/>
<path d="M250.014 243.602L247.895 242.375L246.09 243.433L248.16 244.66L250.014 243.602Z" fill="url(#paint56_linear_6232_32606)"/>
<path d="M245.392 243.055L243.298 241.828V242.285L245.392 243.512L247.222 242.453V241.996L245.392 243.055Z" fill="#879ADE"/>
<path d="M247.223 241.996L245.129 240.77L243.323 241.828L245.393 243.054L247.223 241.996Z" fill="url(#paint57_linear_6232_32606)"/>
<path d="M242.625 241.462L240.53 240.211V240.668L242.625 241.895L244.454 240.836V240.379L242.625 241.462Z" fill="#879ADE"/>
<path d="M244.454 240.379L242.36 239.152L240.53 240.211L242.625 241.437L244.454 240.379Z" fill="url(#paint58_linear_6232_32606)"/>
<path d="M239.856 239.852L237.762 238.625V239.058L239.856 240.285L241.709 239.226V238.769L239.856 239.852Z" fill="#879ADE"/>
<path d="M241.662 238.773L239.568 237.547L237.738 238.605L239.833 239.856L241.662 238.773Z" fill="url(#paint59_linear_6232_32606)"/>
<path d="M237.088 238.246L234.994 237.02V237.452L237.088 238.679L238.918 237.621V237.188L237.088 238.246Z" fill="#879ADE"/>
<path d="M238.917 237.18L236.847 235.953L235.018 236.987L237.112 238.238L238.917 237.18Z" fill="url(#paint60_linear_6232_32606)"/>
<path d="M234.32 236.629L232.226 235.402V235.859L234.32 237.086L236.173 236.004V235.571L234.32 236.629Z" fill="#879ADE"/>
<path d="M236.149 235.566L234.055 234.34L232.226 235.374L234.44 236.601L236.149 235.566Z" fill="url(#paint61_linear_6232_32606)"/>
<path d="M266.504 250.699L264.386 249.473V249.016L267.611 249.593V250.05L266.504 250.699Z" fill="#879ADE"/>
<path d="M266.504 250.243L264.386 249.017L265.517 248.367L267.611 249.594L266.504 250.243Z" fill="url(#paint62_linear_6232_32606)"/>
<path d="M263.88 249.163L261.786 247.937V247.504L264.988 248.081V248.514L263.88 249.163Z" fill="#879ADE"/>
<path d="M263.88 248.731L261.786 247.505L262.869 246.855L264.988 248.082L263.88 248.731Z" fill="url(#paint63_linear_6232_32606)"/>
<path d="M261.254 247.648L259.136 246.422V245.965L262.361 246.542V246.999L261.254 247.648Z" fill="#879ADE"/>
<path d="M261.254 247.192L259.136 245.966L260.243 245.316L262.361 246.543L261.254 247.192Z" fill="url(#paint64_linear_6232_32606)"/>
<path d="M258.631 246.113L256.513 244.886V244.453L259.738 245.03V245.463L258.631 246.113Z" fill="#879ADE"/>
<path d="M258.631 245.669L256.513 244.442L257.62 243.793L259.738 245.02L258.631 245.669Z" fill="url(#paint65_linear_6232_32606)"/>
<path d="M256.008 244.594L253.89 243.367V242.91L257.115 243.487V243.944L256.008 244.594Z" fill="#879ADE"/>
<path d="M256.008 244.138L253.89 242.911L254.997 242.262L257.115 243.488L256.008 244.138Z" fill="url(#paint66_linear_6232_32606)"/>
<path d="M253.384 243.05L251.266 241.824V241.391L254.491 241.968V242.401L253.384 243.05Z" fill="#879ADE"/>
<path d="M253.384 242.614L251.266 241.388L252.373 240.738L254.491 241.965L253.384 242.614Z" fill="url(#paint67_linear_6232_32606)"/>
<path d="M250.761 241.539L248.643 240.288V239.855L251.868 240.433V240.89L250.761 241.539Z" fill="#879ADE"/>
<path d="M250.761 241.075L248.643 239.849L249.75 239.199L251.868 240.426L250.761 241.075Z" fill="url(#paint68_linear_6232_32606)"/>
<path d="M248.135 239.995L246.017 238.769V238.336L249.242 238.913V239.346L248.135 239.995Z" fill="#879ADE"/>
<path d="M248.135 239.563L246.017 238.337L247.124 237.688L249.242 238.914L248.135 239.563Z" fill="url(#paint69_linear_6232_32606)"/>
<path d="M245.512 238.477L243.394 237.25V236.793L246.619 237.37V237.827L245.512 238.477Z" fill="#879ADE"/>
<path d="M245.512 238.021L243.394 236.794L244.501 236.145L246.619 237.371L245.512 238.021Z" fill="url(#paint70_linear_6232_32606)"/>
<path d="M242.888 236.941L240.77 235.714V235.281L243.995 235.858V236.291L242.888 236.941Z" fill="#879ADE"/>
<path d="M242.888 236.485L240.77 235.282L241.877 234.633L243.995 235.859L242.888 236.485Z" fill="url(#paint71_linear_6232_32606)"/>
<path d="M240.241 235.426L238.146 234.175V233.742L241.372 234.319V234.776L240.241 235.426Z" fill="#879ADE"/>
<path d="M240.241 234.97L238.146 233.743L239.254 233.094L241.372 234.32L240.241 234.97Z" fill="url(#paint72_linear_6232_32606)"/>
<path d="M222.525 234.153L247.223 219.891L232.323 211.305L207.625 225.543L222.525 234.153Z" fill="#E7EBFA"/>
<path d="M253.937 219.144L281.282 235.042C284.303 232.692 287.622 230.751 291.151 229.269L262.073 212.434C258.552 213.889 255.242 215.806 252.228 218.134L253.937 219.192V219.144Z" fill="#A2BFEF"/>
<g opacity="0.31">
<path opacity="0.31" d="M253.937 219.125C256.344 220.376 258.607 221.53 260.918 222.877L264.36 224.801L267.802 226.773C270.21 228.072 272.376 229.395 274.639 230.742L278.057 232.738L281.427 234.806L280.994 235.047L281.475 234.566L281.74 234.374L281.957 234.229L282.823 233.628L284.58 232.522L285.471 231.992C285.76 231.8 286.073 231.656 286.386 231.487L288.215 230.525L286.458 231.608L285.567 232.137L284.701 232.69C284.123 233.075 283.545 233.46 282.992 233.868L281.331 235.047L253.913 219.173L253.937 219.125Z" fill="#99AFF0"/>
</g>
<path d="M291.153 229.391C287.621 230.858 284.301 232.791 281.283 235.139V237.159L291.201 231.411V229.391H291.153Z" fill="#7389D9"/>
<path d="M253.938 219.143L252.181 218.133V220.153L281.283 236.989V234.945L253.938 219.143Z" fill="#879ADE"/>
<path d="M269.68 210.938V222.963C269.694 223.139 269.755 223.307 269.857 223.451C269.959 223.594 270.097 223.708 270.257 223.781C270.697 224.007 271.184 224.124 271.678 224.124C272.172 224.124 272.659 224.007 273.098 223.781C273.258 223.708 273.397 223.594 273.498 223.451C273.6 223.307 273.661 223.139 273.676 222.963V210.938H269.68Z" fill="#99AFF0"/>
<path d="M281.162 223.207L279.309 222.125V221.668L281.162 222.75V223.207Z" fill="#A2BFEF"/>
<path d="M283.521 224.578L281.668 223.496V223.039L283.521 224.121V224.578Z" fill="#A2BFEF"/>
<path d="M285.906 225.949L284.053 224.867V224.41L285.906 225.492V225.949Z" fill="#A2BFEF"/>
<path d="M292.716 191.745L242.503 162.571C242.274 162.425 242.003 162.358 241.732 162.379C241.232 162.617 240.75 162.891 240.288 163.197L241.107 164.712V197.758C241.138 198.24 241.28 198.707 241.522 199.124C241.765 199.542 242.1 199.897 242.503 200.163L292.09 229.025L292.355 230.227L293.438 229.554C293.824 229.554 294.088 229.145 294.088 228.568V194.175C294.069 193.69 293.935 193.217 293.696 192.794C293.457 192.372 293.122 192.012 292.716 191.745V191.745Z" fill="#A2BFEF"/>
<path d="M291.538 230.033L241.349 200.859C240.946 200.593 240.61 200.237 240.368 199.82C240.126 199.403 239.984 198.935 239.952 198.454V164.061C239.933 163.9 239.954 163.737 240.012 163.586C240.071 163.435 240.166 163.3 240.289 163.195C240.445 163.088 240.63 163.031 240.819 163.031C241.008 163.031 241.192 163.088 241.349 163.195L291.538 192.417C291.941 192.683 292.276 193.039 292.518 193.456C292.761 193.873 292.903 194.341 292.934 194.822V229.216C292.934 230.105 292.212 230.466 291.538 230.033Z" fill="#A2BFEF"/>
<path d="M292.357 194.517V227.587C292.357 228.068 291.971 228.261 291.538 227.996L241.349 198.822C241.108 198.675 240.907 198.471 240.764 198.227C240.621 197.984 240.541 197.709 240.53 197.427V164.453C240.517 164.342 240.538 164.23 240.589 164.131C240.641 164.033 240.721 163.952 240.819 163.899C240.9 163.855 240.991 163.832 241.084 163.832C241.176 163.832 241.267 163.855 241.349 163.899L291.538 193.098C291.777 193.253 291.976 193.462 292.118 193.709C292.26 193.956 292.342 194.232 292.357 194.517V194.517Z" fill="#A2BFEF"/>
<path d="M292.357 194.494V227.565C292.275 227.609 292.184 227.632 292.092 227.632C291.999 227.632 291.908 227.609 291.827 227.565L241.662 198.318C241.429 198.159 241.236 197.948 241.098 197.702C240.96 197.456 240.881 197.181 240.867 196.899V163.853C240.944 163.808 241.031 163.785 241.12 163.785C241.209 163.785 241.296 163.808 241.373 163.853L291.538 193.099C291.775 193.251 291.973 193.456 292.115 193.698C292.257 193.941 292.34 194.214 292.357 194.494Z" fill="#2A3463"/>
<path d="M260.293 178.762L242.359 168.42V166.641L260.293 176.959V178.762Z" fill="#A2BFEF"/>
<path d="M274.64 187.034L266.118 182.127V180.348L274.64 185.254V187.034Z" fill="#A2BFEF"/>
<path d="M250.712 180.329L242.359 175.495V173.715L250.712 178.525V180.329Z" fill="#A2BFEF"/>
<path d="M255.864 183.279L252.253 181.186V179.406L255.864 181.499V183.279Z" fill="#A2BFEF"/>
<path d="M260.388 185.88L257.018 183.956V182.152L260.388 184.1V185.88Z" fill="#A2BFEF"/>
<path d="M252.253 185.156L242.359 179.432V177.652L252.253 183.353V185.156Z" fill="#A2BFEF"/>
<path d="M256.921 187.857L253.527 185.885V184.105L256.921 186.054V187.857Z" fill="#FB3300"/>
<path d="M256.851 191.747L242.359 183.402V181.598L256.851 189.968V191.747Z" fill="#FB3300"/>
<path d="M261.111 194.203L256.297 191.437V189.633L261.111 192.423V194.203Z" fill="#A2BFEF"/>
<path d="M266.286 197.19L262.338 194.929V193.125L266.286 195.41V197.19Z" fill="#A2BFEF"/>
<path d="M251.94 192.855L242.359 187.347V185.543L251.94 191.075V192.855Z" fill="#A2BFEF"/>
<path d="M256.586 195.552L253.264 193.627V191.848L256.586 193.748V195.552Z" fill="#A2BFEF"/>
<path d="M252.662 197.237L242.359 191.296V189.492L252.662 195.433V197.237Z" fill="#A2BFEF"/>
<path d="M256.32 199.349L253.527 197.713V195.934L256.32 197.545V199.349Z" fill="#A2BFEF"/>
<path d="M262.29 202.788L257.5 200.023V198.219L262.29 200.985V202.788Z" fill="#FB3300"/>
<path d="M252.181 200.893L242.359 195.241V193.438L252.181 199.114V200.893Z" fill="#A2BFEF"/>
<path d="M257.138 203.751L252.709 201.202V199.422L257.138 201.971V203.751Z" fill="#FB3300"/>
<path d="M266.6 185.301L242.359 171.303V169.523L266.6 183.497V185.301Z" fill="#A2BFEF"/>
<path d="M282.006 194.181L268.839 186.581V184.801L282.006 192.377V194.181Z" fill="#A2BFEF"/>
<path d="M288.264 227.321L286.41 226.262V225.781L288.264 226.864V227.321Z" fill="#A2BFEF"/>
<path d="M286.122 226.074L284.269 224.992V224.535L286.122 225.593V226.074Z" fill="#A2BFEF"/>
<path d="M290.742 228.596C290.742 229.053 290.43 229.246 290.02 229.005C289.815 228.871 289.644 228.69 289.522 228.477C289.401 228.263 289.332 228.024 289.322 227.779C289.322 227.322 289.635 227.129 290.02 227.37C290.232 227.5 290.409 227.679 290.535 227.893C290.66 228.107 290.732 228.348 290.742 228.596V228.596Z" fill="#99AFF0"/>
<path d="M290.335 229.584C290.143 229.577 289.957 229.51 289.805 229.392C289.522 229.22 289.285 228.981 289.117 228.696C288.949 228.41 288.855 228.087 288.843 227.756C288.832 227.586 288.869 227.417 288.95 227.267C289.03 227.117 289.151 226.992 289.299 226.907C289.446 226.822 289.615 226.78 289.785 226.786C289.956 226.791 290.121 226.844 290.263 226.939C290.539 227.116 290.769 227.357 290.932 227.642C291.096 227.926 291.188 228.246 291.202 228.574C291.219 228.699 291.209 228.825 291.174 228.946C291.138 229.066 291.077 229.178 290.995 229.274C290.914 229.369 290.812 229.446 290.699 229.5C290.585 229.553 290.461 229.582 290.335 229.584V229.584ZM289.805 227.756C289.815 227.928 289.863 228.095 289.946 228.245C290.03 228.395 290.146 228.524 290.287 228.622C290.276 228.454 290.229 228.29 290.15 228.141C290.072 227.991 289.962 227.861 289.83 227.756H289.805Z" fill="#A2BFEF"/>
<path opacity="0.06" d="M292.357 194.35V227.228C292.274 227.267 292.183 227.287 292.092 227.287C292 227.287 291.91 227.267 291.827 227.228L241.662 197.958C241.432 197.801 241.241 197.594 241.103 197.352C240.965 197.11 240.885 196.841 240.867 196.563V194.711C247.627 191.837 254.874 190.278 262.219 190.117C281.982 190.117 289.805 193.773 292.357 194.35Z" fill="url(#paint73_linear_6232_32606)"/>
<path d="M311.831 252.675L339.176 268.573C342.197 266.224 345.516 264.283 349.045 262.801L319.967 245.965C316.451 247.415 313.148 249.332 310.146 251.665C310.686 252.051 311.248 252.404 311.831 252.723V252.675Z" fill="#A2BFEF"/>
<g opacity="0.31">
<path opacity="0.31" d="M311.829 252.652C314.236 253.903 316.499 255.057 318.81 256.404L322.252 258.328L325.694 260.301C328.101 261.599 330.268 262.922 332.53 264.269L335.949 266.265L339.319 268.334L338.909 268.574C339.058 268.402 339.219 268.241 339.391 268.093L339.656 267.901L339.872 267.757L340.715 267.155L342.472 266.049L343.363 265.52L344.277 265.015L346.107 264.053L344.35 265.135L343.459 265.664L342.592 266.217C342.015 266.602 341.437 266.987 340.883 267.396L339.222 268.574L311.805 252.7L311.829 252.652Z" fill="#99AFF0"/>
</g>
<path d="M349.044 262.801C345.515 264.273 342.196 266.206 339.175 268.549V270.569C342.497 268.661 345.803 266.745 349.092 264.821V262.801H349.044Z" fill="#7389D9"/>
<path d="M311.83 252.674L310.073 251.664V253.684L339.176 270.52V268.476L311.83 252.674Z" fill="#879ADE"/>
<path d="M327.573 244.469V256.494C327.59 256.672 327.655 256.843 327.761 256.987C327.867 257.131 328.01 257.243 328.175 257.312C328.61 257.538 329.093 257.655 329.583 257.655C330.073 257.655 330.556 257.538 330.991 257.312C331.152 257.24 331.29 257.126 331.392 256.982C331.493 256.838 331.555 256.67 331.569 256.494V244.469H327.573Z" fill="#99AFF0"/>
<path d="M339.056 256.738L337.202 255.656V255.199L339.056 256.282V256.738Z" fill="#A2BFEF"/>
<path d="M341.438 258.11L339.561 257.027V256.57L341.438 257.653V258.11Z" fill="#A2BFEF"/>
<path d="M343.798 259.481L341.944 258.398V257.941L343.798 259.024V259.481Z" fill="#A2BFEF"/>
<path d="M350.611 225.276L300.397 196.102C300.176 195.958 299.914 195.89 299.651 195.909C299.144 196.14 298.653 196.405 298.183 196.703L299.001 198.242V231.289C299.032 231.77 299.175 232.238 299.417 232.655C299.659 233.072 299.995 233.428 300.397 233.694L349.985 262.556L350.25 263.758L351.333 263.085C351.742 263.085 352.007 262.676 352.007 262.099V227.705C351.983 227.219 351.844 226.745 351.601 226.323C351.359 225.901 351.019 225.542 350.611 225.276Z" fill="#A2BFEF"/>
<path d="M349.43 263.567L299.241 234.393C298.838 234.127 298.503 233.771 298.261 233.354C298.018 232.936 297.876 232.469 297.845 231.988V197.594C297.833 197.43 297.857 197.266 297.915 197.112C297.973 196.958 298.064 196.819 298.182 196.704C298.341 196.606 298.524 196.555 298.711 196.555C298.898 196.555 299.082 196.606 299.241 196.704L349.43 225.879C349.833 226.145 350.169 226.5 350.411 226.918C350.653 227.335 350.795 227.802 350.827 228.284V262.749C350.827 263.639 350.201 264 349.43 263.567Z" fill="#A2BFEF"/>
<path d="M350.247 228.037V261.108C350.247 261.589 349.886 261.781 349.429 261.517L299.239 232.343C298.998 232.196 298.797 231.991 298.654 231.748C298.512 231.505 298.431 231.23 298.421 230.948V197.925C298.408 197.815 298.428 197.703 298.48 197.604C298.531 197.505 298.611 197.425 298.71 197.372C298.791 197.328 298.882 197.305 298.975 197.305C299.067 197.305 299.158 197.328 299.239 197.372L349.429 226.546C349.677 226.708 349.882 226.929 350.025 227.189C350.168 227.45 350.244 227.741 350.247 228.037V228.037Z" fill="#A2BFEF"/>
<path d="M350.249 228.013V261.084C350.168 261.128 350.077 261.151 349.984 261.151C349.892 261.151 349.801 261.128 349.719 261.084L299.434 231.789C299.195 231.634 298.996 231.425 298.854 231.178C298.712 230.931 298.63 230.655 298.615 230.37V197.372C298.696 197.328 298.787 197.305 298.88 197.305C298.973 197.305 299.064 197.328 299.145 197.372L349.334 226.546C349.599 226.693 349.822 226.905 349.982 227.161C350.142 227.418 350.234 227.711 350.249 228.013V228.013Z" fill="#2A3463"/>
<path d="M313.202 234.198C313.107 234.223 313.008 234.223 312.913 234.198L302.899 228.426C302.803 228.374 302.724 228.298 302.668 228.205C302.612 228.112 302.583 228.005 302.583 227.897C302.583 227.788 302.612 227.682 302.668 227.589C302.724 227.496 302.803 227.419 302.899 227.368L312.841 221.644C312.93 221.586 313.035 221.555 313.141 221.555C313.248 221.555 313.353 221.586 313.442 221.644L323.504 227.223C323.59 227.278 323.661 227.352 323.711 227.44C323.761 227.528 323.79 227.627 323.793 227.728C323.794 227.834 323.767 227.938 323.717 228.03C323.666 228.123 323.593 228.201 323.504 228.258L313.563 234.006C313.463 234.102 313.338 234.169 313.202 234.198V234.198ZM304.391 227.704L313.202 232.779L321.94 227.728L313.153 222.654L304.391 227.704Z" fill="#D3E2F7"/>
<path d="M313.202 226.077C313.109 226.112 313.006 226.112 312.913 226.077L302.899 220.304C302.804 220.259 302.724 220.187 302.669 220.097C302.613 220.008 302.585 219.904 302.586 219.799C302.588 219.692 302.618 219.586 302.673 219.494C302.728 219.401 302.806 219.324 302.899 219.27L312.841 213.546C312.93 213.488 313.035 213.457 313.141 213.457C313.248 213.457 313.353 213.488 313.442 213.546L323.504 219.222C323.593 219.273 323.666 219.347 323.717 219.435C323.768 219.524 323.794 219.625 323.793 219.727C323.791 219.832 323.764 219.935 323.714 220.027C323.664 220.119 323.592 220.198 323.504 220.256L313.563 225.98C313.458 226.055 313.33 226.089 313.202 226.077V226.077ZM304.391 219.775L313.202 224.85L321.94 219.775L313.153 214.652L304.391 219.775Z" fill="#D3E2F7"/>
<path d="M313.202 234.199C313.107 234.223 313.007 234.223 312.913 234.199L302.899 228.426C302.806 228.373 302.728 228.296 302.673 228.203C302.618 228.11 302.588 228.005 302.586 227.897V219.768C302.588 219.66 302.618 219.555 302.673 219.462C302.728 219.37 302.806 219.293 302.899 219.239C302.992 219.192 303.095 219.168 303.2 219.168C303.304 219.168 303.407 219.192 303.501 219.239L313.49 225.011C313.584 225.065 313.662 225.142 313.716 225.235C313.771 225.327 313.801 225.433 313.803 225.54V233.477C313.802 233.582 313.774 233.685 313.724 233.777C313.674 233.869 313.602 233.948 313.514 234.006C313.428 234.095 313.32 234.162 313.202 234.199V234.199ZM303.79 227.488L312.6 232.563V225.805L303.765 220.73L303.79 227.488Z" fill="#D3E2F7"/>
<path d="M323.143 228.334H322.854L312.84 222.562C312.748 222.509 312.672 222.431 312.621 222.338C312.57 222.245 312.546 222.139 312.552 222.033V214.024C312.55 213.918 312.579 213.815 312.634 213.726C312.69 213.636 312.77 213.564 312.864 213.519C312.954 213.461 313.059 213.43 313.165 213.43C313.272 213.43 313.377 213.461 313.466 213.519L323.504 219.219C323.599 219.264 323.679 219.336 323.734 219.426C323.79 219.515 323.818 219.619 323.817 219.724V227.733C323.82 227.839 323.794 227.943 323.744 228.036C323.693 228.129 323.619 228.207 323.528 228.262C323.41 228.324 323.276 228.349 323.143 228.334V228.334ZM313.731 221.624L322.541 226.699V220.085L313.707 214.962L313.731 221.624Z" fill="#D3E2F7"/>
<path d="M313.25 234.193C313.147 234.217 313.04 234.217 312.937 234.193C312.843 234.142 312.765 234.065 312.714 233.971C312.663 233.877 312.64 233.77 312.648 233.664V225.462C312.65 225.357 312.677 225.254 312.727 225.162C312.778 225.07 312.85 224.991 312.937 224.933L322.951 219.161C323.044 219.114 323.147 219.09 323.252 219.09C323.356 219.09 323.459 219.114 323.553 219.161C323.646 219.214 323.724 219.291 323.779 219.384C323.833 219.477 323.863 219.582 323.866 219.69V227.699C323.864 227.804 323.837 227.907 323.786 227.999C323.736 228.091 323.664 228.17 323.577 228.228L313.563 234C313.479 234.093 313.371 234.16 313.25 234.193V234.193ZM313.876 225.799V232.437L322.662 227.362V220.724L313.876 225.799Z" fill="#D3E2F7"/>
<path d="M333.327 245.434C333.224 245.459 333.117 245.459 333.014 245.434L323 239.662C322.911 239.605 322.838 239.527 322.787 239.434C322.737 239.342 322.711 239.238 322.711 239.133C322.71 239.031 322.736 238.93 322.787 238.841C322.838 238.752 322.911 238.679 323 238.628L332.941 232.879C333.035 232.833 333.138 232.809 333.242 232.809C333.347 232.809 333.45 232.833 333.543 232.879L343.557 238.652C343.65 238.706 343.728 238.783 343.783 238.875C343.838 238.968 343.868 239.073 343.87 239.181C343.871 239.286 343.843 239.389 343.787 239.479C343.732 239.568 343.652 239.64 343.557 239.686L333.615 245.434C333.52 245.456 333.422 245.456 333.327 245.434V245.434ZM324.516 239.012L333.327 244.087L342.065 239.012L333.254 233.938L324.516 239.012Z" fill="#D3E2F7"/>
<path d="M333.326 245.429C333.224 245.454 333.116 245.454 333.013 245.429L323 239.657C322.859 239.569 322.756 239.432 322.711 239.272C322.676 239.197 322.658 239.115 322.658 239.032C322.658 238.949 322.676 238.867 322.711 238.791L332.652 225.034C332.722 224.925 332.827 224.843 332.95 224.804C333.073 224.764 333.206 224.769 333.326 224.817C333.447 224.858 333.551 224.936 333.625 225.039C333.698 225.143 333.737 225.268 333.736 225.395V244.9C333.733 245.008 333.703 245.113 333.649 245.206C333.594 245.299 333.516 245.375 333.423 245.429C333.391 245.432 333.358 245.432 333.326 245.429ZM324.179 239.008L332.701 243.818V227.198L324.179 239.008Z" fill="#D3E2F7"/>
<path d="M343.267 239.706C343.166 239.74 343.055 239.74 342.954 239.706L332.94 233.933C332.852 233.882 332.778 233.808 332.728 233.72C332.677 233.631 332.65 233.53 332.651 233.428V225.323C332.65 225.196 332.689 225.071 332.762 224.968C332.836 224.864 332.94 224.786 333.061 224.746C333.181 224.702 333.313 224.699 333.435 224.739C333.557 224.778 333.662 224.856 333.735 224.962L343.773 238.743C343.831 238.835 343.865 238.94 343.871 239.048C343.877 239.156 343.855 239.264 343.806 239.361C343.757 239.459 343.684 239.541 343.594 239.602C343.504 239.662 343.399 239.698 343.291 239.706H343.267ZM333.855 232.971L341.077 237.156L333.855 227.175V232.971Z" fill="#D3E2F7"/>
<path d="M346.155 260.852L344.302 259.794V259.312L346.155 260.395V260.852Z" fill="#A2BFEF"/>
<path d="M344.038 259.598L342.185 258.516V258.035L344.038 259.117V259.598Z" fill="#A2BFEF"/>
<path d="M348.634 262.128C348.634 262.585 348.321 262.777 347.912 262.537C347.706 262.402 347.535 262.221 347.414 262.008C347.293 261.794 347.224 261.555 347.214 261.31C347.214 260.853 347.527 260.661 347.912 260.901C348.124 261.031 348.3 261.21 348.426 261.424C348.552 261.638 348.623 261.88 348.634 262.128V262.128Z" fill="#99AFF0"/>
<path d="M348.251 263.059C348.053 263.063 347.859 263.004 347.697 262.891C347.421 262.714 347.191 262.472 347.028 262.188C346.864 261.903 346.772 261.583 346.758 261.255C346.741 261.086 346.774 260.915 346.851 260.764C346.928 260.612 347.047 260.486 347.194 260.4C347.341 260.313 347.51 260.271 347.68 260.278C347.85 260.285 348.015 260.34 348.154 260.438C348.431 260.615 348.66 260.856 348.824 261.141C348.987 261.425 349.08 261.745 349.093 262.073C349.107 262.194 349.095 262.316 349.059 262.432C349.023 262.548 348.964 262.656 348.885 262.748C348.806 262.84 348.709 262.916 348.6 262.969C348.491 263.023 348.372 263.053 348.251 263.059V263.059ZM347.673 261.231C347.686 261.402 347.735 261.568 347.818 261.717C347.901 261.867 348.016 261.996 348.154 262.097C348.15 261.927 348.106 261.761 348.027 261.611C347.948 261.461 347.835 261.331 347.697 261.231H347.673Z" fill="#A2BFEF"/>
<path opacity="0.06" d="M350.249 227.874V260.656C350.166 260.694 350.076 260.714 349.984 260.714C349.893 260.714 349.802 260.694 349.719 260.656L299.434 231.481C299.197 231.33 298.999 231.125 298.857 230.882C298.714 230.64 298.632 230.367 298.615 230.086V228.234C305.383 225.358 312.638 223.798 319.991 223.641C339.874 223.641 347.577 227.296 350.249 227.874Z" fill="url(#paint74_linear_6232_32606)"/>
<path d="M201.725 261.64L196.911 281.554C196.911 281.554 195.202 283.118 194.696 283.07C194.552 283.07 194.528 282.877 194.696 282.613C195.13 281.17 196.309 280.4 196.598 278.524C196.815 277.153 199.39 267.292 200.762 262.025C201.196 260.413 200.329 259.475 199.077 260.173L197.152 261.207C190.941 264.67 180.302 270.659 179.026 271.958C177.268 273.834 173.417 278.62 173.417 278.62C173.417 278.62 172.743 279.077 172.647 278.788C172.55 278.5 172.647 278.331 173.056 277.706C174.538 275.66 176.146 273.708 177.87 271.862L178.039 271.693L178.4 271.357L178.592 271.212L178.761 271.068C178.847 270.977 178.944 270.896 179.05 270.827L179.411 270.611L197.344 260.269L199.294 259.139C199.456 259.029 199.635 258.948 199.824 258.898C200.046 258.813 200.283 258.773 200.522 258.778C201.894 258.754 202.736 259.836 201.725 261.64Z" fill="#A2BFEF"/>
<path d="M200.74 262.034C199.368 267.301 196.792 277.162 196.576 278.533C196.287 280.409 195.107 281.179 194.674 282.622C194.674 282.886 194.674 283.006 194.674 283.055C194.217 283.055 190.895 282.044 191.328 280.649C191.761 279.254 192.941 278.437 193.23 276.561C193.446 275.286 195.637 266.603 197.105 261.168L199.031 260.134C200.234 259.484 201.101 260.422 200.74 262.034Z" fill="#879ADE"/>
<path d="M200.5 258.774C200.261 258.769 200.024 258.81 199.801 258.894C199.613 258.944 199.434 259.025 199.272 259.135L197.322 260.265L179.389 270.607L179.076 270.751L178.763 270.992L178.522 271.208L178.33 271.353L177.968 271.689L177.8 271.858C176.076 273.705 174.468 275.656 172.986 277.702C172.625 278.328 172.528 278.64 172.576 278.785L169.447 276.957C169.158 276.957 169.014 276.812 169.616 275.802C171.448 273.138 173.607 270.715 176.043 268.587L195.926 257.211C196.16 257.103 196.414 257.047 196.672 257.047C196.93 257.047 197.184 257.103 197.418 257.211L198.526 257.788L200.5 258.774Z" fill="#A2BFEF"/>
<path d="M211.909 297.43L211.668 311.909L210.32 310.49L211.909 297.43Z" fill="#99AFF0"/>
<path d="M237.976 354.457C237.892 354.531 237.794 354.588 237.688 354.625L237.976 354.457Z" fill="#085956"/>
<path d="M235.692 355.706C235.716 355.936 235.688 356.168 235.608 356.384C235.529 356.601 235.401 356.797 235.235 356.957C235.006 357.129 234.727 357.222 234.44 357.222C234.154 357.222 233.875 357.129 233.646 356.957C233.04 356.567 232.537 356.039 232.177 355.416C231.817 354.792 231.611 354.092 231.576 353.373C231.563 353.083 231.621 352.794 231.744 352.531C231.798 352.401 231.88 352.284 231.984 352.188C232.088 352.092 232.211 352.021 232.346 351.978C232.566 351.918 232.796 351.906 233.02 351.943C233.245 351.981 233.458 352.066 233.646 352.195C233.863 352.324 234.065 352.477 234.248 352.652C234.924 353.308 235.399 354.142 235.62 355.057C235.644 355.265 235.644 355.474 235.62 355.682L235.692 355.706Z" fill="#99AFF0"/>
<path d="M235.86 354.718C235.872 355.016 235.814 355.312 235.692 355.584C235.715 355.376 235.715 355.166 235.692 354.959C235.471 354.044 234.995 353.21 234.319 352.554C234.137 352.379 233.935 352.226 233.718 352.097C233.528 351.971 233.316 351.885 233.092 351.844C232.869 351.802 232.64 351.807 232.418 351.856C232.284 351.908 232.162 351.985 232.059 352.084C231.956 352.184 231.873 352.302 231.816 352.433V352.289C231.774 352.001 231.826 351.707 231.965 351.451C232.104 351.196 232.322 350.992 232.586 350.87C232.793 350.817 233.009 350.806 233.22 350.839C233.431 350.872 233.633 350.948 233.814 351.062C234.057 351.205 234.283 351.375 234.488 351.567C235.164 352.223 235.639 353.057 235.86 353.973C235.883 354.221 235.883 354.47 235.86 354.718V354.718Z" fill="#A2BFEF"/>
<path d="M238.457 353.229C238.455 353.526 238.398 353.819 238.289 354.095C238.204 354.238 238.099 354.368 237.976 354.48L237.687 354.648L235.689 355.803V355.586C235.812 355.315 235.869 355.018 235.858 354.72C235.88 354.472 235.88 354.223 235.858 353.975C235.637 353.06 235.161 352.226 234.486 351.57C234.303 351.395 234.101 351.242 233.884 351.113C233.696 350.983 233.484 350.895 233.26 350.853C233.036 350.812 232.805 350.818 232.584 350.872L234.823 349.573C235.061 349.401 235.347 349.309 235.641 349.309C235.935 349.309 236.221 349.401 236.46 349.573C237.059 349.981 237.552 350.525 237.9 351.161C238.247 351.796 238.438 352.505 238.457 353.229Z" fill="#A2BFEF"/>
<path d="M238.292 354.234C238.306 354.461 238.27 354.689 238.187 354.901C238.103 355.112 237.975 355.304 237.81 355.461L237.521 355.629L235.114 356.952C235.273 356.807 235.397 356.627 235.476 356.427C235.555 356.227 235.588 356.012 235.572 355.797L237.57 354.643L237.858 354.475C237.981 354.363 238.087 354.233 238.171 354.09L238.292 354.234Z" fill="#879ADE"/>
<path d="M188.703 325.984C188.625 326.067 188.525 326.126 188.414 326.152L188.703 325.984Z" fill="#085956"/>
<path d="M186.296 327.226C186.312 327.454 186.277 327.682 186.193 327.894C186.11 328.106 185.981 328.297 185.815 328.453C185.586 328.625 185.307 328.718 185.02 328.718C184.734 328.718 184.455 328.625 184.226 328.453C183.624 328.066 183.122 327.541 182.762 326.922C182.402 326.303 182.194 325.608 182.156 324.893C182.144 324.596 182.202 324.299 182.324 324.028C182.449 323.775 182.663 323.577 182.926 323.474C183.146 323.42 183.375 323.411 183.598 323.448C183.822 323.486 184.036 323.568 184.226 323.691C184.442 323.822 184.644 323.975 184.828 324.148C185.505 324.803 185.98 325.637 186.2 326.553C186.223 326.753 186.223 326.955 186.2 327.154C186.2 327.154 186.296 327.178 186.296 327.226Z" fill="#99AFF0"/>
<path d="M186.466 326.249C186.478 326.539 186.42 326.828 186.297 327.091C186.321 326.891 186.321 326.689 186.297 326.49C186.078 325.574 185.602 324.74 184.925 324.084C184.741 323.911 184.539 323.758 184.323 323.627C184.137 323.505 183.928 323.423 183.708 323.386C183.488 323.348 183.264 323.357 183.047 323.411C182.912 323.457 182.786 323.53 182.679 323.625C182.572 323.72 182.484 323.835 182.422 323.964V323.82C182.381 323.535 182.434 323.245 182.573 322.993C182.712 322.742 182.929 322.542 183.192 322.425C183.398 322.365 183.615 322.352 183.827 322.385C184.039 322.418 184.241 322.497 184.42 322.617C184.666 322.744 184.894 322.906 185.094 323.098C185.724 323.801 186.141 324.669 186.297 325.6C186.371 325.811 186.427 326.028 186.466 326.249V326.249Z" fill="#A2BFEF"/>
<path d="M189.063 324.755C189.065 325.044 189.008 325.33 188.894 325.596C188.816 325.744 188.71 325.875 188.581 325.981L188.292 326.15L186.294 327.304C186.307 327.232 186.307 327.159 186.294 327.088C186.417 326.825 186.475 326.536 186.463 326.246C186.424 326.025 186.368 325.808 186.294 325.596C186.074 324.681 185.598 323.847 184.922 323.191C184.74 323.016 184.538 322.863 184.32 322.734C184.132 322.607 183.918 322.522 183.694 322.485C183.47 322.448 183.24 322.459 183.021 322.518L185.283 321.219C185.515 321.042 185.798 320.945 186.09 320.945C186.381 320.945 186.665 321.042 186.896 321.219C187.509 321.597 188.025 322.115 188.401 322.729C188.777 323.343 189.004 324.037 189.063 324.755V324.755Z" fill="#A2BFEF"/>
<path d="M188.895 325.742C188.916 325.97 188.883 326.199 188.8 326.412C188.716 326.625 188.584 326.816 188.414 326.969L188.125 327.137L185.838 328.46C185.998 328.316 186.123 328.136 186.202 327.936C186.282 327.736 186.313 327.52 186.295 327.305L188.293 326.151L188.582 325.982C188.711 325.876 188.817 325.745 188.895 325.598V325.742Z" fill="#879ADE"/>
<path d="M188.703 354.457C188.619 354.531 188.521 354.588 188.414 354.625L188.703 354.457Z" fill="#085956"/>
<path d="M186.296 355.706C186.312 355.937 186.277 356.169 186.194 356.385C186.111 356.601 185.982 356.796 185.815 356.957C185.586 357.129 185.307 357.222 185.02 357.222C184.734 357.222 184.455 357.129 184.226 356.957C183.621 356.567 183.117 356.039 182.757 355.416C182.397 354.792 182.191 354.092 182.156 353.373C182.144 353.083 182.201 352.794 182.324 352.531C182.378 352.401 182.46 352.284 182.564 352.188C182.668 352.092 182.791 352.021 182.926 351.978C183.146 351.918 183.376 351.906 183.6 351.943C183.825 351.981 184.038 352.066 184.226 352.195C184.448 352.318 184.65 352.471 184.828 352.652C185.504 353.308 185.979 354.142 186.2 355.057C186.224 355.265 186.224 355.474 186.2 355.682C186.232 355.692 186.264 355.7 186.296 355.706V355.706Z" fill="#99AFF0"/>
<path d="M186.464 354.718C186.476 355.016 186.418 355.312 186.296 355.584C186.319 355.376 186.319 355.166 186.296 354.959C186.075 354.044 185.599 353.21 184.924 352.554C184.746 352.373 184.543 352.219 184.322 352.097C184.137 351.972 183.928 351.886 183.709 351.845C183.489 351.803 183.264 351.807 183.046 351.856C182.907 351.904 182.78 351.98 182.673 352.079C182.565 352.178 182.479 352.299 182.42 352.433V352.289C182.386 352.002 182.441 351.711 182.579 351.457C182.717 351.203 182.931 350.998 183.191 350.87C183.397 350.817 183.613 350.806 183.824 350.839C184.035 350.872 184.238 350.948 184.418 351.062C184.661 351.205 184.887 351.375 185.092 351.567C185.768 352.223 186.244 353.057 186.464 353.973C186.487 354.221 186.487 354.47 186.464 354.718Z" fill="#A2BFEF"/>
<path d="M189.064 353.231C189.061 353.527 189.004 353.821 188.895 354.097C188.846 354.224 188.781 354.345 188.703 354.457L188.414 354.626L186.416 355.78C186.428 355.709 186.428 355.635 186.416 355.564C186.538 355.292 186.596 354.996 186.584 354.698C186.607 354.45 186.607 354.2 186.584 353.952C186.364 353.037 185.888 352.203 185.212 351.547C185.03 351.372 184.828 351.219 184.61 351.09C184.423 350.961 184.21 350.872 183.986 350.831C183.762 350.789 183.532 350.796 183.311 350.85L185.573 349.551C185.808 349.381 186.09 349.289 186.38 349.289C186.669 349.289 186.952 349.381 187.186 349.551C187.766 349.974 188.239 350.527 188.565 351.167C188.891 351.806 189.062 352.513 189.064 353.231V353.231Z" fill="#A2BFEF"/>
<path d="M188.895 354.239C188.914 354.466 188.881 354.695 188.797 354.908C188.714 355.121 188.582 355.311 188.414 355.465L188.125 355.634L185.838 356.956C185.997 356.811 186.12 356.632 186.2 356.432C186.279 356.232 186.312 356.016 186.295 355.802L188.293 354.648L188.702 354.455C188.825 354.343 188.931 354.213 189.015 354.07L188.895 354.239Z" fill="#879ADE"/>
<path d="M237.976 325.984C237.899 326.067 237.798 326.126 237.688 326.152L237.976 325.984Z" fill="#085956"/>
<path d="M235.692 327.226C235.716 327.452 235.687 327.681 235.608 327.894C235.528 328.106 235.401 328.298 235.235 328.453C235.005 328.625 234.727 328.718 234.44 328.718C234.154 328.718 233.875 328.625 233.646 328.453C233.043 328.066 232.542 327.541 232.182 326.922C231.822 326.303 231.614 325.608 231.576 324.893C231.564 324.596 231.622 324.299 231.744 324.028C231.869 323.775 232.083 323.577 232.346 323.474C232.566 323.42 232.795 323.411 233.018 323.448C233.242 323.486 233.455 323.568 233.646 323.691C234.148 324.009 234.581 324.423 234.92 324.911C235.259 325.398 235.497 325.948 235.62 326.529C235.643 326.729 235.643 326.93 235.62 327.13L235.692 327.226Z" fill="#99AFF0"/>
<path d="M235.859 326.241C235.872 326.531 235.814 326.819 235.691 327.082C235.714 326.883 235.714 326.681 235.691 326.481C235.568 325.9 235.33 325.35 234.991 324.863C234.652 324.375 234.219 323.961 233.717 323.643C233.527 323.52 233.313 323.438 233.09 323.401C232.866 323.363 232.637 323.372 232.417 323.427C232.155 323.53 231.94 323.727 231.815 323.98V323.835C231.815 323.09 232.104 322.585 232.586 322.44C232.792 322.381 233.009 322.367 233.221 322.401C233.433 322.434 233.635 322.513 233.813 322.633C234.048 322.785 234.259 322.972 234.439 323.186C235.115 323.842 235.591 324.676 235.811 325.591C235.844 325.806 235.86 326.023 235.859 326.241V326.241Z" fill="#A2BFEF"/>
<path d="M238.46 324.751C238.462 325.041 238.405 325.327 238.291 325.593C238.213 325.741 238.107 325.872 237.978 325.978L237.689 326.146L235.691 327.301V327.084C235.815 326.821 235.872 326.533 235.86 326.243C235.884 325.987 235.884 325.729 235.86 325.473C235.605 324.596 235.114 323.805 234.44 323.188C234.257 323.013 234.055 322.86 233.838 322.731C233.649 322.604 233.436 322.519 233.212 322.482C232.987 322.445 232.758 322.456 232.538 322.515L234.777 321.216C235.013 321.04 235.3 320.945 235.595 320.945C235.89 320.945 236.177 321.04 236.414 321.216C237.004 321.608 237.497 322.131 237.852 322.744C238.206 323.357 238.415 324.044 238.46 324.751V324.751Z" fill="#A2BFEF"/>
<path d="M238.292 325.742C238.307 325.969 238.272 326.197 238.189 326.409C238.106 326.621 237.976 326.812 237.81 326.969L237.521 327.137L235.114 328.46C235.275 328.316 235.399 328.136 235.479 327.936C235.558 327.736 235.59 327.52 235.572 327.305L237.57 326.151L237.858 325.982C238.031 325.889 238.179 325.757 238.292 325.598V325.742Z" fill="#879ADE"/>
<path d="M236.847 320.276C236.606 320.276 235.836 319.554 235.523 319.506C227.868 317.894 219.01 319.987 210.151 325.086C200.132 331.183 191.466 339.261 184.683 348.824C184.058 349.666 183.889 350.676 184.25 351.061C184.611 351.446 185.406 351.638 185.598 351.831C185.791 352.023 186.754 351.831 187.355 351.061C193.762 342.005 201.954 334.352 211.427 328.573C219.828 323.763 228.277 321.767 235.499 323.282C236.076 323.282 236.847 322.873 237.232 322.055C237.617 321.238 237.569 320.396 236.847 320.276Z" fill="#99AFF0"/>
<path d="M236.847 349.649C230.124 340.102 221.524 332.024 211.572 325.91C202.689 320.787 193.783 318.695 186.104 320.282C185.791 320.282 185.021 320.979 184.78 321.028C184.154 321.172 183.986 321.966 184.347 322.783C184.708 323.601 185.526 324.178 186.104 324.058C193.326 322.543 201.823 324.539 210.176 329.421C219.646 335.175 227.838 342.803 234.247 351.837C234.825 352.631 235.595 352.992 235.981 352.607C236.366 352.222 237.04 352.102 237.305 351.837C237.569 351.573 237.569 350.442 236.847 349.649Z" fill="#99AFF0"/>
<path d="M211.21 327.516C210.837 327.706 210.424 327.805 210.006 327.805C209.588 327.805 209.175 327.706 208.802 327.516C208.297 327.228 208.152 326.795 208.417 326.434V296.418L211.739 298.342V326.53C211.835 326.867 211.691 327.252 211.21 327.516Z" fill="#879ADE"/>
<path d="M208.37 241.126C210.073 241.465 211.812 241.586 213.546 241.487C215.523 241.008 217.535 240.686 219.564 240.525C220.068 240.573 220.576 240.516 221.056 240.357L228.278 236.989L233.862 234.849C235.173 235.011 236.499 235.011 237.81 234.849C238.869 234.512 239.712 234.296 239.303 235.137C239.027 235.571 238.652 235.933 238.208 236.192C237.764 236.452 237.264 236.601 236.751 236.629C236.242 236.648 235.742 236.771 235.283 236.989L239.495 237.206C239.495 237.206 239.856 238.865 238.653 238.865C237.449 238.865 234.247 239.106 234.247 239.106C233.186 239.644 232.226 240.36 231.407 241.222C230.652 242.055 230.012 242.985 229.505 243.988C229.788 244.393 230.194 244.694 230.664 244.846C231.133 244.998 231.639 244.992 232.105 244.83C234.055 244.445 234.873 245.648 234.873 246.273C234.873 246.899 233.453 247.812 232.635 247.668C231.816 247.524 231.046 247.043 230.805 247.043C229.744 247.286 228.641 247.286 227.58 247.043C225.172 246.634 222.765 245.552 221.706 245.552C220.651 245.582 219.598 245.671 218.553 245.816C218.553 245.816 204.904 247.62 202.208 247.452C199.512 247.283 195.757 247.235 196.672 242.112C197.586 236.989 208.37 241.126 208.37 241.126Z" fill="#FFC69C"/>
<path fill-rule="evenodd" clip-rule="evenodd" d="M217.59 277.64L219.323 311.311C219.302 311.445 219.323 311.581 219.384 311.702C219.444 311.823 219.541 311.922 219.66 311.985C220.791 312.634 224.474 311.528 228.037 309.58C229.481 308.738 230.757 284.254 231.576 283.484C231.921 280.08 232.074 276.659 232.033 273.238L217.59 277.64Z" fill="#2A3463"/>
<path d="M203.145 235.016L205.745 228.762C205.745 228.762 201.821 222.966 203.145 218.204C204.469 213.442 207.646 210.988 214.964 210.988C222.282 210.988 223.895 215.799 224.208 216.809C224.856 218.518 225.063 220.362 224.809 222.172C224.208 223.615 223.197 223.88 223.245 224.77C223.293 225.66 224.159 225.323 223.245 227.03C222.33 228.738 222.041 232.177 219.73 232.995C217.419 233.813 216.12 232.995 215.831 234.847C215.397 237.014 215.108 239.208 214.964 241.413C234.438 261.255 192.77 243.818 203.145 235.016Z" fill="#FFC69C"/>
<path d="M202.976 270.469H200.401V271.214C200.397 271.339 200.432 271.461 200.501 271.564C200.57 271.667 200.67 271.747 200.786 271.792C201.07 271.933 201.383 272.007 201.7 272.007C202.018 272.007 202.331 271.933 202.615 271.792C202.729 271.746 202.825 271.666 202.89 271.562C202.955 271.458 202.985 271.336 202.976 271.214V270.469Z" fill="#879ADE"/>
<path d="M202.618 271C202.334 271.142 202.021 271.216 201.703 271.216C201.386 271.216 201.073 271.142 200.789 271C200.675 270.966 200.576 270.896 200.505 270.801C200.435 270.705 200.396 270.59 200.396 270.471C200.396 270.353 200.435 270.237 200.505 270.142C200.576 270.047 200.675 269.977 200.789 269.942C201.073 269.8 201.386 269.727 201.703 269.727C202.021 269.727 202.334 269.8 202.618 269.942C202.732 269.977 202.831 270.047 202.902 270.142C202.972 270.237 203.01 270.353 203.01 270.471C203.01 270.59 202.972 270.705 202.902 270.801C202.831 270.896 202.732 270.966 202.618 271Z" fill="#99AFF0"/>
<path d="M211.787 285.328H209.211V286.05C209.207 286.177 209.241 286.303 209.31 286.411C209.379 286.518 209.479 286.602 209.597 286.651C209.876 286.793 210.186 286.866 210.499 286.866C210.813 286.866 211.122 286.793 211.402 286.651C211.52 286.602 211.62 286.518 211.689 286.411C211.758 286.303 211.792 286.177 211.787 286.05V285.328Z" fill="#879ADE"/>
<path d="M211.402 285.86C211.122 286.001 210.813 286.075 210.499 286.075C210.185 286.075 209.876 286.001 209.596 285.86C209.483 285.825 209.383 285.755 209.313 285.66C209.242 285.564 209.204 285.449 209.204 285.33C209.204 285.212 209.242 285.096 209.313 285.001C209.383 284.906 209.483 284.836 209.596 284.801C209.876 284.66 210.185 284.586 210.499 284.586C210.813 284.586 211.122 284.66 211.402 284.801C211.515 284.836 211.614 284.906 211.685 285.001C211.756 285.096 211.794 285.212 211.794 285.33C211.794 285.449 211.756 285.564 211.685 285.66C211.614 285.755 211.515 285.825 211.402 285.86V285.86Z" fill="#99AFF0"/>
<path fill-rule="evenodd" clip-rule="evenodd" d="M236.292 269.938C230.274 267.87 219.996 273.257 212.221 277.154C212.876 283.725 213.864 290.26 215.182 296.731C221.031 294.711 225.797 288.458 232.826 283.455L239.47 280.064C239.975 273.233 239.47 271.021 236.292 269.938Z" fill="#2A3463"/>
<path fill-rule="evenodd" clip-rule="evenodd" d="M222.404 304.738L217.59 308.394C217.59 312.819 217.59 315.008 219.347 316.138C221.104 317.269 224.956 316.427 227.074 315.441L227.652 313.733C229.698 313.445 229.241 314.07 231.455 312.819C235.162 310.775 240.602 307.6 241.325 303.92C241.517 302.982 240.795 301.299 239.856 301.515L231.118 304.546L222.404 304.738Z" fill="#120A30"/>
<path fill-rule="evenodd" clip-rule="evenodd" d="M243.082 319.921L238.123 323.384C238.003 327.81 237.906 329.975 239.567 331.201C241.228 332.428 245.152 331.706 247.319 330.816L247.968 329.133C249.768 329.267 251.56 328.784 253.048 327.762C256.634 325.91 260.991 323.288 261.786 320.041C262.002 319.103 261.352 317.396 260.414 317.636L254.251 320.354L243.082 319.921Z" fill="#085956"/>
<path fill-rule="evenodd" clip-rule="evenodd" d="M250.398 278.021C249.796 281.028 242.478 287.185 241.756 290.047C241.756 290.047 238.29 324.464 238.458 324.633C239.373 325.571 248.279 327.182 249.555 319.991C253.286 319.005 258.317 284.828 258.317 284.828C260.484 277.757 252.323 271.648 250.398 278.021Z" fill="#2A3463"/>
<path d="M250.592 298.229L234.439 303.232L224.522 310.832L214.027 314.368L211.619 311.963L210.368 310.495L211.956 297.436L212.462 293.299L209.79 283.221L208.346 275.477C209.427 275.283 210.542 275.417 211.547 275.862C211.547 275.862 250.592 298.229 250.592 298.229Z" fill="#99AFF0"/>
<path fill-rule="evenodd" clip-rule="evenodd" d="M204.567 278.217L192.122 277.736C190.629 284.495 191.472 292.504 194.529 295.775C199.03 300.585 207.744 306.862 216.434 304.866C222.958 303.375 234.079 296.737 241.661 291.422L258.102 284.206C261.183 278.025 262.917 274.177 254.179 272.325C247.968 270.978 231.527 277.664 223.68 281.512L204.567 278.217Z" fill="#2A3463"/>
<path d="M220.501 296.951C219.055 297.37 217.519 297.37 216.072 296.951C209.501 295.772 192 289.976 192.289 278.672C192.434 273.861 195.756 273.188 191.23 261.018C182.468 237.472 194.961 231.074 197.344 231.074C199.655 231.37 201.906 232.028 204.012 233.022C203.596 233.576 203.3 234.21 203.144 234.885C202.989 235.56 202.976 236.26 203.108 236.94C203.239 237.62 203.512 238.264 203.908 238.832C204.304 239.4 204.815 239.879 205.408 240.238C212.63 244.615 212.63 242.426 215.206 242.138C218.07 241.777 222.427 246.058 224.834 248.535C229.504 253.346 222.74 267.776 224.666 271.649C226.258 275.817 227.42 280.136 228.132 284.54C228.59 287.182 228.067 289.901 226.663 292.185C225.258 294.47 223.067 296.164 220.501 296.951V296.951Z" fill="#44B8AC"/>
<path d="M220.503 296.949C219.056 297.368 217.52 297.368 216.074 296.949C213.835 292.86 214.413 284.25 212.198 276.938C208.924 266.163 212.198 251.468 217.133 250.121C217.596 249.999 218.076 249.958 218.553 250.001C220.021 251.155 221.249 252.117 221.61 252.406C222.465 253.681 222.871 255.204 222.766 256.735C222.766 257.409 222.766 258.154 222.766 258.948C222.517 263.21 223.156 267.477 224.643 271.479C226.236 275.646 227.397 279.966 228.11 284.37C228.614 287.035 228.116 289.791 226.713 292.112C225.309 294.433 223.098 296.155 220.503 296.949V296.949Z" fill="#24B289"/>
<path d="M230.034 269.818C230.034 269.818 235.185 263.084 235.787 261.785C236.389 260.486 240.986 253.704 240.986 253.704L239.253 252.333C239.253 252.333 238.94 251.01 238.411 250.698C237.881 250.385 236.244 249.375 237.087 248.798C237.565 248.514 238.133 248.421 238.677 248.537C239.221 248.653 239.702 248.969 240.023 249.423C240.77 250.361 241.203 250.866 241.203 250.866L242.984 246.609V242.4C242.984 242.4 242.984 240.5 243.658 240.404C244.332 240.307 245.319 240.404 244.838 241.486C244.356 242.568 244.958 243.073 244.958 243.073L245.44 246.849L246.451 243.242C246.891 242.555 247.269 241.83 247.582 241.077C247.659 240.946 247.776 240.844 247.917 240.786C248.057 240.728 248.212 240.717 248.359 240.755C248.506 240.793 248.637 240.878 248.731 240.997C248.825 241.116 248.878 241.262 248.882 241.414C248.882 242.207 248.882 244.324 248.882 244.324L247.919 247.378L249.917 244.108L252.083 242.183C252.083 242.183 253.528 242.063 253.022 243.073C252.579 243.852 252.072 244.592 251.506 245.286L249.917 248.822L252.517 248.148H255.165C255.165 248.148 255.165 249.591 254.346 249.663C253.851 249.687 253.359 249.76 252.878 249.88L250.976 250.818C250.74 252.316 250.145 253.735 249.243 254.955C248.488 255.581 247.683 256.144 246.836 256.638C246.836 256.638 236.702 279.896 233.307 281.892C229.913 283.888 228.156 273.546 230.034 269.818Z" fill="#FFC69C"/>
<path d="M228.637 266.642C229.206 265.795 230.02 265.141 230.97 264.767C231.921 264.394 232.962 264.318 233.957 264.55C235.729 265.226 237.262 266.412 238.363 267.957C239.464 269.501 240.083 271.337 240.143 273.232C239.662 276.214 236.027 282.396 232.272 282.131C228.516 281.866 224.593 271.14 228.637 266.642Z" fill="#24B289"/>
<path d="M214.628 256.235C214.628 262.633 222.908 287.358 231.646 282.956C240.384 278.555 232.898 268.862 231.646 265.495C230.395 262.128 229.552 248.25 223.462 247.817C217.372 247.385 214.579 249.862 214.628 256.235Z" fill="#44B8AC"/>
<path d="M218.721 227.398C218.577 227.398 219.203 225.931 217.999 226.484C216.795 227.037 216.073 227.735 216.073 228.889C216.073 230.044 215.833 232.401 216.531 231.92C217.127 231.349 217.624 230.682 217.999 229.947H217.132C216.675 229.947 217.012 228.047 217.397 227.855C217.816 227.643 218.261 227.489 218.721 227.398V227.398Z" fill="#FFC69C"/>
<path opacity="0.25" d="M212.1 231.289C212.1 231.289 213.304 228.451 218.889 225.949C221.609 224.723 228.06 218.325 222.451 213.635C220.775 212.148 218.666 211.237 216.433 211.037C212.75 210.484 204.253 212.865 203.772 220.273C203.146 230.495 210.006 235.642 212.1 231.289Z" fill="#120A30"/>
<path d="M211.908 297.435L210.367 310.495L211.715 311.914V314.319L174.26 292.985V292.745L173.706 292.504C167.785 289.065 172.527 281.2 172.527 274.875C172.527 268.549 168.555 257.75 168.41 255.441C168.266 253.132 169.036 251.377 169.373 251.569L207.96 273.937L208.225 275.476L209.669 283.221L211.884 295.246L211.908 297.435Z" fill="#A2BFEF"/>
<path d="M207.96 273.928C207.96 273.928 214.46 291.221 214.219 294.997C213.978 298.773 209.838 309.933 213.93 312.29C218.022 314.647 236.678 301.539 239.711 299.856C242.744 298.172 250.712 296.657 250.712 298.966C250.712 301.275 246.716 298.798 243.49 300.577C240.264 302.357 218.215 318.279 212.197 314.864C206.179 311.449 211.017 303.56 211.017 297.234C211.017 290.909 207.021 280.11 206.877 277.801C206.733 275.492 207.695 273.736 207.96 273.928Z" fill="#A2BFEF"/>
<path d="M243.827 285.928L239.013 305.818C239.013 305.818 237.303 307.382 236.798 307.334C236.292 307.285 236.629 307.141 236.798 306.877C237.231 305.434 238.411 304.664 238.724 302.788C238.916 301.441 241.492 291.556 242.864 286.313C243.297 284.701 242.431 283.739 241.179 284.437L239.253 285.495C233.031 288.753 226.989 292.342 221.151 296.246C219.37 298.122 215.519 302.884 215.519 302.884C215.519 302.884 214.845 303.365 214.748 303.052C214.652 302.74 214.748 302.595 215.158 301.994C216.633 299.935 218.241 297.975 219.972 296.126L220.116 295.981L220.477 295.621L220.67 295.476L220.838 295.332L221.151 295.091L221.488 294.875L239.422 284.533L241.372 283.403C241.541 283.307 241.718 283.227 241.901 283.162C242.132 283.118 242.369 283.118 242.599 283.162C243.634 283.09 244.236 284.244 243.827 285.928Z" fill="#99AFF0"/>
<path d="M242.743 286.317C241.371 291.56 238.795 301.445 238.603 302.792C238.29 304.668 237.11 305.437 236.677 306.88C236.677 307.145 236.677 307.289 236.677 307.313C236.22 307.313 232.922 306.327 233.331 304.908C233.74 303.489 234.944 302.695 235.257 300.819C235.449 299.545 237.664 290.838 239.108 285.427L241.034 284.368C242.31 283.743 243.176 284.705 242.743 286.317Z" fill="#A2BFEF"/>
<path d="M242.574 283.048C242.344 283.003 242.107 283.003 241.876 283.048C241.693 283.112 241.516 283.193 241.347 283.288L239.397 284.419L221.463 294.761L221.199 294.929L220.91 295.145L220.645 295.362L220.452 295.506L220.091 295.867L219.947 296.011C218.216 297.861 216.608 299.821 215.133 301.88C214.771 302.481 214.699 302.794 214.723 302.938C214.747 303.082 211.642 301.11 211.642 301.11C211.642 301.11 211.209 300.99 211.811 299.956C213.65 297.297 215.808 294.874 218.238 292.74L238.121 281.268C238.357 281.166 238.611 281.113 238.867 281.113C239.124 281.113 239.378 281.166 239.613 281.268L240.721 281.845L242.574 283.048Z" fill="#A2BFEF"/>
<path d="M210.512 233.142C210.512 233.142 210.319 222.8 215.904 220.323C218.624 219.096 227.266 218.808 224.666 209.957C224.329 208.73 221.753 203.968 210.873 208.033C208.451 208.649 206.294 210.031 204.723 211.973C203.153 213.915 202.253 216.313 202.159 218.808C201.509 229.005 202.64 232.517 210.512 233.142Z" fill="#120A30"/>
<path d="M294.137 285.333L320.808 271.143V269.291V267.992L274.903 272.225V275.376L294.137 285.333Z" fill="#F7991D"/>
<path d="M294.137 282.183L320.808 267.992L301.575 258.035L274.903 272.225L294.137 282.183Z" fill="#F6B735"/>
<path d="M307.834 271.139L313.804 268.036L302.803 262.336L296.833 265.415L307.834 271.139Z" fill="#FAD445"/>
<path d="M294.427 282.971V284.654L275.627 275.13V273.254L294.427 282.971Z" fill="white"/>
<path d="M294.426 282.973L320.808 269.047V270.514L294.426 284.656V282.973Z" fill="#D3E2F7"/>
<defs>
<filter id="filter0_d_6232_32606" x="0" y="0" width="534" height="376.262" filterUnits="userSpaceOnUse" color-interpolation-filters="sRGB">
<feFlood flood-opacity="0" result="BackgroundImageFix"/>
<feColorMatrix in="SourceAlpha" type="matrix" values="0 0 0 0 0 0 0 0 0 0 0 0 0 0 0 0 0 0 127 0" result="hardAlpha"/>
<feOffset dx="1" dy="31"/>
<feGaussianBlur stdDeviation="31"/>
<feColorMatrix type="matrix" values="0 0 0 0 0 0 0 0 0 0 0 0 0 0 0 0 0 0 0.1 0"/>
<feBlend mode="normal" in2="BackgroundImageFix" result="effect1_dropShadow_6232_32606"/>
<feBlend mode="normal" in="SourceGraphic" in2="effect1_dropShadow_6232_32606" result="shape"/>
</filter>
<filter id="filter1_d_6232_32606" x="45.5625" y="33.0273" width="103.702" height="119.465" filterUnits="userSpaceOnUse" color-interpolation-filters="sRGB">
<feFlood flood-opacity="0" result="BackgroundImageFix"/>
<feColorMatrix in="SourceAlpha" type="matrix" values="0 0 0 0 0 0 0 0 0 0 0 0 0 0 0 0 0 0 127 0" result="hardAlpha"/>
<feOffset/>
<feGaussianBlur stdDeviation="15"/>
<feColorMatrix type="matrix" values="0 0 0 0 0 0 0 0 0 0 0 0 0 0 0 0 0 0 0.25 0"/>
<feBlend mode="normal" in2="BackgroundImageFix" result="effect1_dropShadow_6232_32606"/>
<feBlend mode="normal" in="SourceGraphic" in2="effect1_dropShadow_6232_32606" result="shape"/>
</filter>
<filter id="filter2_d_6232_32606" x="136.898" y="144.93" width="258" height="254" filterUnits="userSpaceOnUse" color-interpolation-filters="sRGB">
<feFlood flood-opacity="0" result="BackgroundImageFix"/>
<feColorMatrix in="SourceAlpha" type="matrix" values="0 0 0 0 0 0 0 0 0 0 0 0 0 0 0 0 0 0 127 0" result="hardAlpha"/>
<feOffset dy="4"/>
<feGaussianBlur stdDeviation="11.5"/>
<feColorMatrix type="matrix" values="0 0 0 0 0 0 0 0 0 0 0 0 0 0 0 0 0 0 0.25 0"/>
<feBlend mode="normal" in2="BackgroundImageFix" result="effect1_dropShadow_6232_32606"/>
<feBlend mode="normal" in="SourceGraphic" in2="effect1_dropShadow_6232_32606" result="shape"/>
</filter>
<linearGradient id="paint0_linear_6232_32606" x1="266" y1="31" x2="266" y2="285.127" gradientUnits="userSpaceOnUse">
<stop stop-color="#FFD02B"/>
<stop offset="0.822917" stop-color="#FD754A"/>
</linearGradient>
<linearGradient id="paint1_linear_6232_32606" x1="232.874" y1="231.004" x2="236.1" y2="231.004" gradientUnits="userSpaceOnUse">
<stop stop-color="#D3E2F7"/>
<stop offset="1" stop-color="#A2BFEF"/>
</linearGradient>
<linearGradient id="paint2_linear_6232_32606" x1="243.399" y1="327.867" x2="247.689" y2="327.867" gradientUnits="userSpaceOnUse">
<stop stop-color="#D3E2F7"/>
<stop offset="1" stop-color="#A2BFEF"/>
</linearGradient>
<linearGradient id="paint3_linear_6232_32606" x1="317.191" y1="360.444" x2="321.514" y2="360.444" gradientUnits="userSpaceOnUse">
<stop stop-color="#D3E2F7"/>
<stop offset="1" stop-color="#A2BFEF"/>
</linearGradient>
<linearGradient id="paint4_linear_6232_32606" x1="232.436" y1="348.962" x2="238.91" y2="348.962" gradientUnits="userSpaceOnUse">
<stop stop-color="#D3E2F7"/>
<stop offset="1" stop-color="#A2BFEF"/>
</linearGradient>
<linearGradient id="paint5_linear_6232_32606" x1="239.362" y1="350.715" x2="245.836" y2="350.715" gradientUnits="userSpaceOnUse">
<stop stop-color="#D3E2F7"/>
<stop offset="1" stop-color="#A2BFEF"/>
</linearGradient>
<linearGradient id="paint6_linear_6232_32606" x1="308.695" y1="381.868" x2="315.17" y2="381.868" gradientUnits="userSpaceOnUse">
<stop stop-color="#D3E2F7"/>
<stop offset="1" stop-color="#A2BFEF"/>
</linearGradient>
<linearGradient id="paint7_linear_6232_32606" x1="301.769" y1="377.488" x2="308.243" y2="377.488" gradientUnits="userSpaceOnUse">
<stop stop-color="#D3E2F7"/>
<stop offset="1" stop-color="#A2BFEF"/>
</linearGradient>
<linearGradient id="paint8_linear_6232_32606" x1="294.842" y1="375.884" x2="301.277" y2="375.884" gradientUnits="userSpaceOnUse">
<stop stop-color="#D3E2F7"/>
<stop offset="1" stop-color="#A2BFEF"/>
</linearGradient>
<linearGradient id="paint9_linear_6232_32606" x1="287.916" y1="371.531" x2="294.351" y2="371.531" gradientUnits="userSpaceOnUse">
<stop stop-color="#D3E2F7"/>
<stop offset="1" stop-color="#A2BFEF"/>
</linearGradient>
<linearGradient id="paint10_linear_6232_32606" x1="280.95" y1="369.889" x2="287.424" y2="369.889" gradientUnits="userSpaceOnUse">
<stop stop-color="#D3E2F7"/>
<stop offset="1" stop-color="#A2BFEF"/>
</linearGradient>
<linearGradient id="paint11_linear_6232_32606" x1="274.024" y1="365.598" x2="280.498" y2="365.598" gradientUnits="userSpaceOnUse">
<stop stop-color="#D3E2F7"/>
<stop offset="1" stop-color="#A2BFEF"/>
</linearGradient>
<linearGradient id="paint12_linear_6232_32606" x1="267.094" y1="363.902" x2="273.569" y2="363.902" gradientUnits="userSpaceOnUse">
<stop stop-color="#D3E2F7"/>
<stop offset="1" stop-color="#A2BFEF"/>
</linearGradient>
<linearGradient id="paint13_linear_6232_32606" x1="260.168" y1="359.645" x2="266.643" y2="359.645" gradientUnits="userSpaceOnUse">
<stop stop-color="#D3E2F7"/>
<stop offset="1" stop-color="#A2BFEF"/>
</linearGradient>
<linearGradient id="paint14_linear_6232_32606" x1="253.152" y1="356.667" x2="259.587" y2="356.667" gradientUnits="userSpaceOnUse">
<stop stop-color="#D3E2F7"/>
<stop offset="1" stop-color="#A2BFEF"/>
</linearGradient>
<linearGradient id="paint15_linear_6232_32606" x1="246.252" y1="354.949" x2="252.687" y2="354.949" gradientUnits="userSpaceOnUse">
<stop stop-color="#D3E2F7"/>
<stop offset="1" stop-color="#A2BFEF"/>
</linearGradient>
<linearGradient id="paint16_linear_6232_32606" x1="351.148" y1="473.658" x2="369.089" y2="473.658" gradientUnits="userSpaceOnUse">
<stop stop-color="#D3E2F7"/>
<stop offset="1" stop-color="#A2BFEF"/>
</linearGradient>
<linearGradient id="paint17_linear_6232_32606" x1="226.243" y1="389.131" x2="237.578" y2="389.131" gradientUnits="userSpaceOnUse">
<stop stop-color="#D3E2F7"/>
<stop offset="1" stop-color="#A2BFEF"/>
</linearGradient>
<linearGradient id="paint18_linear_6232_32606" x1="316.651" y1="388.842" x2="323.047" y2="388.842" gradientUnits="userSpaceOnUse">
<stop stop-color="#D3E2F7"/>
<stop offset="1" stop-color="#A2BFEF"/>
</linearGradient>
<linearGradient id="paint19_linear_6232_32606" x1="218.684" y1="411.043" x2="232.665" y2="411.043" gradientUnits="userSpaceOnUse">
<stop stop-color="#D3E2F7"/>
<stop offset="1" stop-color="#A2BFEF"/>
</linearGradient>
<linearGradient id="paint20_linear_6232_32606" x1="292.513" y1="384.597" x2="298.988" y2="384.597" gradientUnits="userSpaceOnUse">
<stop stop-color="#D3E2F7"/>
<stop offset="1" stop-color="#A2BFEF"/>
</linearGradient>
<linearGradient id="paint21_linear_6232_32606" x1="284.806" y1="380.049" x2="291.241" y2="380.049" gradientUnits="userSpaceOnUse">
<stop stop-color="#D3E2F7"/>
<stop offset="1" stop-color="#A2BFEF"/>
</linearGradient>
<linearGradient id="paint22_linear_6232_32606" x1="277.337" y1="378.238" x2="283.771" y2="378.238" gradientUnits="userSpaceOnUse">
<stop stop-color="#D3E2F7"/>
<stop offset="1" stop-color="#A2BFEF"/>
</linearGradient>
<linearGradient id="paint23_linear_6232_32606" x1="269.994" y1="373.688" x2="276.468" y2="373.688" gradientUnits="userSpaceOnUse">
<stop stop-color="#D3E2F7"/>
<stop offset="1" stop-color="#A2BFEF"/>
</linearGradient>
<linearGradient id="paint24_linear_6232_32606" x1="262.496" y1="370.524" x2="268.971" y2="370.524" gradientUnits="userSpaceOnUse">
<stop stop-color="#D3E2F7"/>
<stop offset="1" stop-color="#A2BFEF"/>
</linearGradient>
<linearGradient id="paint25_linear_6232_32606" x1="254.998" y1="367.353" x2="261.433" y2="367.353" gradientUnits="userSpaceOnUse">
<stop stop-color="#D3E2F7"/>
<stop offset="1" stop-color="#A2BFEF"/>
</linearGradient>
<linearGradient id="paint26_linear_6232_32606" x1="247.497" y1="364.189" x2="253.932" y2="364.189" gradientUnits="userSpaceOnUse">
<stop stop-color="#D3E2F7"/>
<stop offset="1" stop-color="#A2BFEF"/>
</linearGradient>
<linearGradient id="paint27_linear_6232_32606" x1="239.96" y1="361.031" x2="246.435" y2="361.031" gradientUnits="userSpaceOnUse">
<stop stop-color="#D3E2F7"/>
<stop offset="1" stop-color="#A2BFEF"/>
</linearGradient>
<linearGradient id="paint28_linear_6232_32606" x1="232.462" y1="357.867" x2="238.936" y2="357.867" gradientUnits="userSpaceOnUse">
<stop stop-color="#D3E2F7"/>
<stop offset="1" stop-color="#A2BFEF"/>
</linearGradient>
<linearGradient id="paint29_linear_6232_32606" x1="299.95" y1="386.404" x2="306.424" y2="386.404" gradientUnits="userSpaceOnUse">
<stop stop-color="#D3E2F7"/>
<stop offset="1" stop-color="#A2BFEF"/>
</linearGradient>
<linearGradient id="paint30_linear_6232_32606" x1="327.498" y1="450.594" x2="340.791" y2="450.594" gradientUnits="userSpaceOnUse">
<stop stop-color="#D3E2F7"/>
<stop offset="1" stop-color="#A2BFEF"/>
</linearGradient>
<linearGradient id="paint31_linear_6232_32606" x1="209.733" y1="437.264" x2="227.673" y2="437.264" gradientUnits="userSpaceOnUse">
<stop stop-color="#D3E2F7"/>
<stop offset="1" stop-color="#A2BFEF"/>
</linearGradient>
<linearGradient id="paint32_linear_6232_32606" x1="229.386" y1="360.961" x2="235.861" y2="360.961" gradientUnits="userSpaceOnUse">
<stop stop-color="#D3E2F7"/>
<stop offset="1" stop-color="#A2BFEF"/>
</linearGradient>
<linearGradient id="paint33_linear_6232_32606" x1="291.791" y1="387.742" x2="298.266" y2="387.742" gradientUnits="userSpaceOnUse">
<stop stop-color="#D3E2F7"/>
<stop offset="1" stop-color="#A2BFEF"/>
</linearGradient>
<linearGradient id="paint34_linear_6232_32606" x1="284.864" y1="386.16" x2="291.299" y2="386.16" gradientUnits="userSpaceOnUse">
<stop stop-color="#D3E2F7"/>
<stop offset="1" stop-color="#A2BFEF"/>
</linearGradient>
<linearGradient id="paint35_linear_6232_32606" x1="277.938" y1="381.777" x2="284.373" y2="381.777" gradientUnits="userSpaceOnUse">
<stop stop-color="#D3E2F7"/>
<stop offset="1" stop-color="#A2BFEF"/>
</linearGradient>
<linearGradient id="paint36_linear_6232_32606" x1="270.972" y1="380.173" x2="277.447" y2="380.173" gradientUnits="userSpaceOnUse">
<stop stop-color="#D3E2F7"/>
<stop offset="1" stop-color="#A2BFEF"/>
</linearGradient>
<linearGradient id="paint37_linear_6232_32606" x1="264.045" y1="375.821" x2="270.52" y2="375.821" gradientUnits="userSpaceOnUse">
<stop stop-color="#D3E2F7"/>
<stop offset="1" stop-color="#A2BFEF"/>
</linearGradient>
<linearGradient id="paint38_linear_6232_32606" x1="257.119" y1="374.178" x2="263.593" y2="374.178" gradientUnits="userSpaceOnUse">
<stop stop-color="#D3E2F7"/>
<stop offset="1" stop-color="#A2BFEF"/>
</linearGradient>
<linearGradient id="paint39_linear_6232_32606" x1="250.192" y1="369.846" x2="256.666" y2="369.846" gradientUnits="userSpaceOnUse">
<stop stop-color="#D3E2F7"/>
<stop offset="1" stop-color="#A2BFEF"/>
</linearGradient>
<linearGradient id="paint40_linear_6232_32606" x1="243.212" y1="368.191" x2="249.647" y2="368.191" gradientUnits="userSpaceOnUse">
<stop stop-color="#D3E2F7"/>
<stop offset="1" stop-color="#A2BFEF"/>
</linearGradient>
<linearGradient id="paint41_linear_6232_32606" x1="236.31" y1="363.889" x2="242.745" y2="363.889" gradientUnits="userSpaceOnUse">
<stop stop-color="#D3E2F7"/>
<stop offset="1" stop-color="#A2BFEF"/>
</linearGradient>
<linearGradient id="paint42_linear_6232_32606" x1="325.875" y1="477.616" x2="342.779" y2="477.616" gradientUnits="userSpaceOnUse">
<stop stop-color="#D3E2F7"/>
<stop offset="1" stop-color="#A2BFEF"/>
</linearGradient>
<linearGradient id="paint43_linear_6232_32606" x1="209.974" y1="357.42" x2="216.409" y2="357.42" gradientUnits="userSpaceOnUse">
<stop stop-color="#D3E2F7"/>
<stop offset="1" stop-color="#A2BFEF"/>
</linearGradient>
<linearGradient id="paint44_linear_6232_32606" x1="216.877" y1="360.394" x2="223.312" y2="360.394" gradientUnits="userSpaceOnUse">
<stop stop-color="#D3E2F7"/>
<stop offset="1" stop-color="#A2BFEF"/>
</linearGradient>
<linearGradient id="paint45_linear_6232_32606" x1="223.777" y1="363.419" x2="230.212" y2="363.419" gradientUnits="userSpaceOnUse">
<stop stop-color="#D3E2F7"/>
<stop offset="1" stop-color="#A2BFEF"/>
</linearGradient>
<linearGradient id="paint46_linear_6232_32606" x1="230.549" y1="366.323" x2="236.984" y2="366.323" gradientUnits="userSpaceOnUse">
<stop stop-color="#D3E2F7"/>
<stop offset="1" stop-color="#A2BFEF"/>
</linearGradient>
<linearGradient id="paint47_linear_6232_32606" x1="257.444" y1="901.645" x2="418.71" y2="901.645" gradientUnits="userSpaceOnUse">
<stop stop-color="#D3E2F7"/>
<stop offset="1" stop-color="#A2BFEF"/>
</linearGradient>
<linearGradient id="paint48_linear_6232_32606" x1="278.447" y1="361.894" x2="282.391" y2="361.894" gradientUnits="userSpaceOnUse">
<stop stop-color="#D3E2F7"/>
<stop offset="1" stop-color="#A2BFEF"/>
</linearGradient>
<linearGradient id="paint49_linear_6232_32606" x1="293.062" y1="393.131" x2="299.536" y2="393.131" gradientUnits="userSpaceOnUse">
<stop stop-color="#D3E2F7"/>
<stop offset="1" stop-color="#A2BFEF"/>
</linearGradient>
<linearGradient id="paint50_linear_6232_32606" x1="290.413" y1="367.221" x2="294.357" y2="367.221" gradientUnits="userSpaceOnUse">
<stop stop-color="#D3E2F7"/>
<stop offset="1" stop-color="#A2BFEF"/>
</linearGradient>
<linearGradient id="paint51_linear_6232_32606" x1="309.369" y1="385.693" x2="315.765" y2="385.693" gradientUnits="userSpaceOnUse">
<stop stop-color="#D3E2F7"/>
<stop offset="1" stop-color="#A2BFEF"/>
</linearGradient>
<linearGradient id="paint52_linear_6232_32606" x1="302.09" y1="382.576" x2="308.486" y2="382.576" gradientUnits="userSpaceOnUse">
<stop stop-color="#D3E2F7"/>
<stop offset="1" stop-color="#A2BFEF"/>
</linearGradient>
<linearGradient id="paint53_linear_6232_32606" x1="295.704" y1="380.824" x2="302.257" y2="380.824" gradientUnits="userSpaceOnUse">
<stop stop-color="#D3E2F7"/>
<stop offset="1" stop-color="#A2BFEF"/>
</linearGradient>
<linearGradient id="paint54_linear_6232_32606" x1="287.527" y1="377.671" x2="293.922" y2="377.671" gradientUnits="userSpaceOnUse">
<stop stop-color="#D3E2F7"/>
<stop offset="1" stop-color="#A2BFEF"/>
</linearGradient>
<linearGradient id="paint55_linear_6232_32606" x1="279.887" y1="373.175" x2="286.204" y2="373.175" gradientUnits="userSpaceOnUse">
<stop stop-color="#D3E2F7"/>
<stop offset="1" stop-color="#A2BFEF"/>
</linearGradient>
<linearGradient id="paint56_linear_6232_32606" x1="272.967" y1="370.03" x2="279.363" y2="370.03" gradientUnits="userSpaceOnUse">
<stop stop-color="#D3E2F7"/>
<stop offset="1" stop-color="#A2BFEF"/>
</linearGradient>
<linearGradient id="paint57_linear_6232_32606" x1="265.551" y1="366.917" x2="271.907" y2="366.917" gradientUnits="userSpaceOnUse">
<stop stop-color="#D3E2F7"/>
<stop offset="1" stop-color="#A2BFEF"/>
</linearGradient>
<linearGradient id="paint58_linear_6232_32606" x1="258.383" y1="363.769" x2="264.779" y2="363.769" gradientUnits="userSpaceOnUse">
<stop stop-color="#D3E2F7"/>
<stop offset="1" stop-color="#A2BFEF"/>
</linearGradient>
<linearGradient id="paint59_linear_6232_32606" x1="251.079" y1="361.928" x2="257.474" y2="361.928" gradientUnits="userSpaceOnUse">
<stop stop-color="#D3E2F7"/>
<stop offset="1" stop-color="#A2BFEF"/>
</linearGradient>
<linearGradient id="paint60_linear_6232_32606" x1="243.792" y1="357.508" x2="250.148" y2="357.508" gradientUnits="userSpaceOnUse">
<stop stop-color="#D3E2F7"/>
<stop offset="1" stop-color="#A2BFEF"/>
</linearGradient>
<linearGradient id="paint61_linear_6232_32606" x1="236.542" y1="353.101" x2="242.937" y2="353.101" gradientUnits="userSpaceOnUse">
<stop stop-color="#D3E2F7"/>
<stop offset="1" stop-color="#A2BFEF"/>
</linearGradient>
<linearGradient id="paint62_linear_6232_32606" x1="311.028" y1="357.7" x2="315.35" y2="357.7" gradientUnits="userSpaceOnUse">
<stop stop-color="#D3E2F7"/>
<stop offset="1" stop-color="#A2BFEF"/>
</linearGradient>
<linearGradient id="paint63_linear_6232_32606" x1="304.591" y1="355.007" x2="308.881" y2="355.007" gradientUnits="userSpaceOnUse">
<stop stop-color="#D3E2F7"/>
<stop offset="1" stop-color="#A2BFEF"/>
</linearGradient>
<linearGradient id="paint64_linear_6232_32606" x1="298.746" y1="352.268" x2="303.068" y2="352.268" gradientUnits="userSpaceOnUse">
<stop stop-color="#D3E2F7"/>
<stop offset="1" stop-color="#A2BFEF"/>
</linearGradient>
<linearGradient id="paint65_linear_6232_32606" x1="292.607" y1="349.562" x2="296.93" y2="349.562" gradientUnits="userSpaceOnUse">
<stop stop-color="#D3E2F7"/>
<stop offset="1" stop-color="#A2BFEF"/>
</linearGradient>
<linearGradient id="paint66_linear_6232_32606" x1="286.468" y1="346.83" x2="290.79" y2="346.83" gradientUnits="userSpaceOnUse">
<stop stop-color="#D3E2F7"/>
<stop offset="1" stop-color="#A2BFEF"/>
</linearGradient>
<linearGradient id="paint67_linear_6232_32606" x1="280.328" y1="344.124" x2="284.651" y2="344.124" gradientUnits="userSpaceOnUse">
<stop stop-color="#D3E2F7"/>
<stop offset="1" stop-color="#A2BFEF"/>
</linearGradient>
<linearGradient id="paint68_linear_6232_32606" x1="274.189" y1="341.385" x2="278.479" y2="341.385" gradientUnits="userSpaceOnUse">
<stop stop-color="#D3E2F7"/>
<stop offset="1" stop-color="#A2BFEF"/>
</linearGradient>
<linearGradient id="paint69_linear_6232_32606" x1="268.015" y1="338.691" x2="272.338" y2="338.691" gradientUnits="userSpaceOnUse">
<stop stop-color="#D3E2F7"/>
<stop offset="1" stop-color="#A2BFEF"/>
</linearGradient>
<linearGradient id="paint70_linear_6232_32606" x1="261.876" y1="335.948" x2="266.199" y2="335.948" gradientUnits="userSpaceOnUse">
<stop stop-color="#D3E2F7"/>
<stop offset="1" stop-color="#A2BFEF"/>
</linearGradient>
<linearGradient id="paint71_linear_6232_32606" x1="255.736" y1="331.99" x2="260.059" y2="331.99" gradientUnits="userSpaceOnUse">
<stop stop-color="#D3E2F7"/>
<stop offset="1" stop-color="#A2BFEF"/>
</linearGradient>
<linearGradient id="paint72_linear_6232_32606" x1="249.597" y1="330.514" x2="253.92" y2="330.514" gradientUnits="userSpaceOnUse">
<stop stop-color="#D3E2F7"/>
<stop offset="1" stop-color="#A2BFEF"/>
</linearGradient>
<linearGradient id="paint73_linear_6232_32606" x1="266.07" y1="191.921" x2="268.786" y2="211.644" gradientUnits="userSpaceOnUse">
<stop stop-color="white"/>
<stop offset="0.2" stop-color="#C7D5F1"/>
<stop offset="0.39" stop-color="#98B2E6"/>
<stop offset="0.56" stop-color="#7496DD"/>
<stop offset="0.73" stop-color="#5A83D6"/>
<stop offset="0.88" stop-color="#4A77D2"/>
<stop offset="1" stop-color="#4573D1"/>
</linearGradient>
<linearGradient id="paint74_linear_6232_32606" x1="2323.69" y1="2016.52" x2="2353.77" y2="2323.25" gradientUnits="userSpaceOnUse">
<stop stop-color="white"/>
<stop offset="0.2" stop-color="#C7D5F1"/>
<stop offset="0.39" stop-color="#98B2E6"/>
<stop offset="0.56" stop-color="#7496DD"/>
<stop offset="0.73" stop-color="#5A83D6"/>
<stop offset="0.88" stop-color="#4A77D2"/>
<stop offset="1" stop-color="#4573D1"/>
</linearGradient>
</defs>
</svg>
