<svg width="34" height="34" viewBox="0 0 34 34" fill="none" xmlns="http://www.w3.org/2000/svg">
<g clip-path="url(#clip0_6160_1531)">
<path d="M4.87256 0.861328C2.68072 0.861328 0.906605 2.63863 0.90625 4.82551C0.90625 7.01452 2.68036 8.79147 4.87292 8.79147C7.05944 8.79147 8.83604 7.01452 8.83604 4.82551C8.83604 2.63828 7.05909 0.861328 4.87256 0.861328Z" fill="white"/>
<path d="M8.29053 11.8008H1.45117V33.8057H8.29053V11.8008Z" fill="white"/>
<path d="M25.701 11.2539C22.374 11.2539 20.1432 13.078 19.23 14.8078H19.1385V11.8011H12.579H12.5786V33.8057H19.4119V22.9199C19.4119 20.05 19.9584 17.2702 23.5166 17.2702C27.0236 17.2702 27.0705 20.5525 27.0705 23.1039V33.8053H33.9049V21.7358C33.9049 15.8114 32.6265 11.2539 25.701 11.2539Z" fill="white"/>
</g>
<defs>
<clipPath id="clip0_6160_1531">
<rect width="33" height="33" fill="white" transform="translate(0.90625 0.833984)"/>
</clipPath>
</defs>
</svg>
