<svg width="346" height="249" viewBox="0 0 346 249" fill="none" xmlns="http://www.w3.org/2000/svg">
<g filter="url(#filter0_d_6240_5792)">
<path d="M31.9414 155.71L127.449 210.915L270.205 128.854L174.578 73.582L31.9414 155.71Z" fill="#E2A1DE"/>
<path opacity="0.32" d="M178.737 91.0469C172.069 95.2505 165.703 98.9719 159.382 102.784C165.891 106.377 174.914 111.477 179.346 114.227C183.681 111.892 198.482 103.537 203.795 99.1603L178.737 91.0469Z" fill="url(#paint0_linear_6240_5792)"/>
<path opacity="0.32" d="M229.29 123.875C223.631 127.416 218.235 130.602 212.855 133.811C218.386 136.862 226.039 141.194 229.809 143.529C233.489 141.541 246.063 134.452 250.563 130.723L229.29 123.875Z" fill="url(#paint1_linear_6240_5792)"/>
<path opacity="0.32" d="M95.1958 191.26C104.617 186.175 137.629 165.278 146.983 160.072L80.6725 136.199L38.1562 158.965C47.9839 164.14 81.5529 182.815 95.1958 191.26Z" fill="url(#paint2_linear_6240_5792)"/>
<path d="M63.467 137.095L53.9554 73.0618C53.8321 72.23 53.9622 71.3804 54.3287 70.6237C54.6951 69.8671 55.281 69.2387 56.0097 68.8206L129.582 26.6941C130.18 26.3525 130.853 26.1642 131.541 26.146C132.229 26.1277 132.911 26.2801 133.526 26.5896C134.142 26.899 134.671 27.3559 135.067 27.9196C135.463 28.4833 135.714 29.1363 135.797 29.8205L143.638 94.8633C143.746 95.677 143.613 96.5044 143.254 97.2426C142.895 97.9807 142.328 98.5968 141.622 99.0142L69.6902 140.146C69.0973 140.488 68.4294 140.679 67.7453 140.703C67.0613 140.726 66.3821 140.58 65.7674 140.279C65.1527 139.978 64.6215 139.53 64.2203 138.974C63.8192 138.419 63.5605 137.774 63.467 137.095V137.095Z" fill="#053855"/>
<path d="M132.889 33.3242L57.6914 76.5204L65.8636 131.574L139.925 90.1632L132.889 33.3242Z" fill="#40006B"/>
<path d="M198.34 128.426V130.889L197.09 132.426" fill="#ADCEE1"/>
<path d="M148.757 98.3533L196.917 128.238C197.353 128.516 197.709 128.901 197.953 129.357C198.196 129.813 198.319 130.324 198.308 130.84C198.298 131.357 198.154 131.862 197.892 132.308C197.63 132.753 197.258 133.123 196.812 133.383L123.722 174.771C122.7 175.351 121.544 175.652 120.37 175.642C119.196 175.633 118.044 175.315 117.032 174.719L69.0978 146.476C65.6137 143.614 65.8771 138.19 69.0978 137.986L141.797 98.2629C142.857 97.6459 144.064 97.3284 145.29 97.3443C146.515 97.3602 147.714 97.709 148.757 98.3533V98.3533Z" fill="#88D3D8"/>
<path d="M148.759 96.2959L196.919 126.181C197.354 126.459 197.711 126.844 197.954 127.3C198.198 127.755 198.32 128.266 198.31 128.783C198.299 129.3 198.156 129.805 197.894 130.25C197.632 130.696 197.26 131.066 196.814 131.326L123.723 172.714C122.702 173.294 121.546 173.594 120.371 173.585C119.197 173.576 118.046 173.257 117.034 172.661L69.0994 144.434C68.539 144.106 68.074 143.637 67.7509 143.073C67.4278 142.509 67.2578 141.871 67.2578 141.221C67.2578 140.571 67.4278 139.933 67.7509 139.369C68.074 138.805 68.539 138.336 69.0994 138.008L141.768 96.1754C142.834 95.557 144.049 95.2415 145.28 95.2627C146.512 95.284 147.715 95.6412 148.759 96.2959Z" fill="white"/>
<path d="M151.717 103.143L169.325 114.126C169.638 114.32 169.896 114.592 170.072 114.916C170.248 115.24 170.337 115.604 170.331 115.972C170.324 116.341 170.221 116.702 170.033 117.018C169.845 117.335 169.578 117.598 169.257 117.78L106.047 153.857C105.102 154.403 104.031 154.691 102.94 154.691C101.848 154.691 100.777 154.403 99.8317 153.857C95.7682 151.484 88.77 147.213 84.4882 144.591C84.1057 144.358 83.7904 144.029 83.5733 143.637C83.3562 143.244 83.2449 142.802 83.2502 142.354C83.2555 141.905 83.3773 141.466 83.6036 141.079C83.8299 140.692 84.1529 140.371 84.5409 140.146C97.3334 132.703 139.037 108.424 148.165 103.12C148.703 102.8 149.318 102.633 149.944 102.637C150.57 102.641 151.183 102.816 151.717 103.143V103.143Z" fill="#40006B"/>
<path d="M150.772 132.955L128.687 145.385C128.349 145.578 128.068 145.857 127.872 146.194C127.677 146.531 127.574 146.913 127.574 147.302C127.574 147.692 127.677 148.074 127.872 148.411C128.068 148.748 128.349 149.027 128.687 149.22L141.622 156.828C142.068 157.086 142.574 157.222 143.089 157.222C143.605 157.222 144.111 157.086 144.557 156.828L167.132 143.931C167.415 143.77 167.65 143.537 167.814 143.255C167.978 142.973 168.064 142.653 168.064 142.327C168.064 142.001 167.978 141.68 167.814 141.398C167.65 141.117 167.415 140.883 167.132 140.722L153.662 132.97C153.223 132.718 152.726 132.585 152.219 132.582C151.713 132.579 151.214 132.708 150.772 132.955V132.955Z" fill="#40006B"/>
<path opacity="0.1" d="M151.717 103.143L169.325 114.126C169.638 114.32 169.896 114.592 170.072 114.916C170.248 115.24 170.337 115.604 170.331 115.972C170.324 116.341 170.221 116.702 170.033 117.018C169.845 117.335 169.578 117.598 169.257 117.78L106.047 153.857C105.102 154.403 104.031 154.691 102.94 154.691C101.848 154.691 100.777 154.403 99.8317 153.857C95.7682 151.484 88.77 147.213 84.4882 144.591C84.1057 144.358 83.7904 144.029 83.5733 143.637C83.3562 143.244 83.2449 142.802 83.2502 142.354C83.2555 141.905 83.3773 141.466 83.6036 141.079C83.8299 140.692 84.1529 140.371 84.5409 140.146C97.3334 132.703 139.037 108.424 148.165 103.12C148.703 102.8 149.318 102.633 149.944 102.637C150.57 102.641 151.183 102.816 151.717 103.143V103.143Z" fill="#053855"/>
<path opacity="0.1" d="M150.772 132.955L128.687 145.385C128.349 145.578 128.068 145.857 127.872 146.194C127.677 146.531 127.574 146.913 127.574 147.302C127.574 147.692 127.677 148.074 127.872 148.411C128.068 148.748 128.349 149.027 128.687 149.22L141.622 156.828C142.068 157.086 142.574 157.222 143.089 157.222C143.605 157.222 144.111 157.086 144.557 156.828L167.132 143.931C167.415 143.77 167.65 143.537 167.814 143.255C167.978 142.973 168.064 142.653 168.064 142.327C168.064 142.001 167.978 141.68 167.814 141.398C167.65 141.117 167.415 140.883 167.132 140.722L153.662 132.97C153.223 132.718 152.726 132.585 152.219 132.582C151.713 132.579 151.214 132.708 150.772 132.955V132.955Z" fill="#053855"/>
<path d="M241.208 133.811C247.912 133.811 253.346 129.98 253.346 125.253C253.346 120.527 247.912 116.695 241.208 116.695C234.505 116.695 229.07 120.527 229.07 125.253C229.07 129.98 234.505 133.811 241.208 133.811Z" fill="#40006B"/>
<path d="M241.219 123.927C246.24 123.927 250.309 122.257 250.309 120.198C250.309 118.138 246.24 116.469 241.219 116.469C236.199 116.469 232.129 118.138 232.129 120.198C232.129 122.257 236.199 123.927 241.219 123.927Z" fill="#974C26"/>
<path d="M241.817 120.29C242.57 119.288 243.247 118.233 243.999 117.05C244.963 115.544 245.866 113.999 246.686 112.41C247.455 110.997 248.112 109.526 248.65 108.01C249.248 106.367 249.729 104.682 250.087 102.97C250.178 102.518 250.26 102.066 250.336 101.614C250.336 101.403 250.373 101.426 250.373 101.456C250.373 101.486 250.373 101.313 250.373 101.064C250.456 100.145 250.516 99.2264 250.524 98.2998C250.567 95.1073 249.952 91.9401 248.718 88.9961C245.436 93.7615 243.223 99.1815 242.231 104.884C242.166 105.225 242.106 105.567 242.051 105.908C242.051 105.908 241.96 106.534 241.923 106.782L241.825 107.641C241.78 108.073 241.739 108.507 241.704 108.944C241.569 110.617 241.509 112.304 241.516 113.984C241.554 116.093 241.652 118.195 241.817 120.29ZM245.685 95.1734C245.906 94.9223 246.132 94.6712 246.362 94.4201C246.299 94.6326 246.284 94.8564 246.317 95.0755C246.103 95.0754 245.89 95.1084 245.685 95.1734V95.1734Z" fill="#999A1C"/>
<path d="M242.051 120.441C242.112 119.213 242.142 117.932 242.142 116.539C242.142 114.753 242.059 112.96 241.893 111.182C241.768 109.578 241.516 107.986 241.141 106.421C240.759 104.715 240.256 103.038 239.636 101.404C239.47 100.975 239.297 100.553 239.117 100.131C239.034 99.9351 239.049 99.9501 239.064 99.9803L238.876 99.6337C238.447 98.8201 238.003 98.0065 237.514 97.2306C235.827 94.5226 233.601 92.1916 230.975 90.3828C230.785 96.1668 231.848 101.923 234.09 107.257C234.22 107.579 234.353 107.898 234.489 108.214L234.85 109.02L235.234 109.774C235.429 110.165 235.63 110.552 235.836 110.934C236.626 112.44 237.484 113.864 238.394 115.273C239.561 117.051 240.78 118.768 242.051 120.441ZM231.742 97.2231C231.792 96.8916 231.853 96.5627 231.923 96.2362C231.985 96.4479 232.093 96.6434 232.239 96.8087C232.053 96.9202 231.885 97.06 231.742 97.2231V97.2231Z" fill="#999A1C"/>
<path d="M242.105 121.081C241.744 120.396 241.352 119.695 240.893 118.942C240.314 117.978 239.697 117.036 239.035 116.132C238.455 115.304 237.811 114.523 237.108 113.797C236.35 112.999 235.535 112.256 234.67 111.574L233.978 111.055C233.872 110.979 233.888 110.979 233.903 110.987L233.692 110.859C233.195 110.557 232.699 110.264 232.187 110C230.402 109.083 228.447 108.545 226.445 108.418C228.209 111.6 230.64 114.363 233.571 116.516L234.098 116.901L234.55 117.217L235.009 117.511L235.709 117.94C236.617 118.482 237.545 118.985 238.493 119.447C239.674 120.064 240.878 120.592 242.105 121.081ZM229.049 111.883C228.969 111.687 228.896 111.492 228.831 111.296C228.933 111.388 229.053 111.458 229.184 111.499C229.122 111.62 229.079 111.749 229.056 111.883H229.049Z" fill="#999A1C"/>
<path d="M241.817 120.29C242.57 119.288 243.247 118.233 243.999 117.05C244.963 115.544 245.866 113.999 246.686 112.41C247.455 110.997 248.112 109.526 248.65 108.01C249.248 106.367 249.729 104.682 250.087 102.97C250.178 102.518 250.26 102.066 250.336 101.614C250.336 101.403 250.373 101.426 250.373 101.456C250.373 101.486 250.373 101.313 250.373 101.064C250.456 100.145 250.516 99.2264 250.524 98.2998C250.567 95.1073 249.952 91.9401 248.718 88.9961C245.436 93.7615 243.223 99.1815 242.231 104.884C242.166 105.225 242.106 105.567 242.051 105.908C242.051 105.908 241.96 106.534 241.923 106.782L241.825 107.641C241.78 108.073 241.739 108.507 241.704 108.944C241.569 110.617 241.509 112.304 241.516 113.984C241.554 116.093 241.652 118.195 241.817 120.29ZM245.685 95.1734C245.906 94.9223 246.132 94.6712 246.362 94.4201C246.299 94.6326 246.284 94.8564 246.317 95.0755C246.103 95.0754 245.89 95.1084 245.685 95.1734V95.1734Z" fill="#999A1C"/>
<path d="M242.051 120.441C242.112 119.213 242.142 117.932 242.142 116.539C242.142 114.753 242.059 112.96 241.893 111.182C241.768 109.578 241.516 107.986 241.141 106.421C240.759 104.715 240.256 103.038 239.636 101.404C239.47 100.975 239.297 100.553 239.117 100.131C239.034 99.9351 239.049 99.9501 239.064 99.9803L238.876 99.6337C238.447 98.8201 238.003 98.0065 237.514 97.2306C235.827 94.5226 233.601 92.1916 230.975 90.3828C230.785 96.1668 231.848 101.923 234.09 107.257C234.22 107.579 234.353 107.898 234.489 108.214L234.85 109.02L235.234 109.774C235.429 110.165 235.63 110.552 235.836 110.934C236.626 112.44 237.484 113.864 238.394 115.273C239.561 117.051 240.78 118.768 242.051 120.441ZM231.742 97.2231C231.792 96.8916 231.853 96.5627 231.923 96.2362C231.985 96.4479 232.093 96.6434 232.239 96.8087C232.053 96.9202 231.885 97.06 231.742 97.2231V97.2231Z" fill="#999A1C"/>
<path d="M242.105 121.081C241.744 120.396 241.352 119.695 240.893 118.942C240.314 117.978 239.697 117.036 239.035 116.132C238.455 115.304 237.811 114.523 237.108 113.797C236.35 112.999 235.535 112.256 234.67 111.574L233.978 111.055C233.872 110.979 233.888 110.979 233.903 110.987L233.692 110.859C233.195 110.557 232.699 110.264 232.187 110C230.402 109.083 228.447 108.545 226.445 108.418C228.209 111.6 230.64 114.363 233.571 116.516L234.098 116.901L234.55 117.217L235.009 117.511L235.709 117.94C236.617 118.482 237.545 118.985 238.493 119.447C239.674 120.064 240.878 120.592 242.105 121.081ZM229.049 111.883C228.969 111.687 228.896 111.492 228.831 111.296C228.933 111.388 229.053 111.458 229.184 111.499C229.122 111.62 229.079 111.749 229.056 111.883H229.049Z" fill="#999A1C"/>
<path d="M46.643 89.2227L29.6064 98.8804V117.849C32.2026 116.456 42.0678 110.858 46.6506 108.252L46.643 89.2227Z" fill="#FE9881"/>
<path d="M46.643 113.027L29.6064 122.708V141.639C32.2026 140.245 42.0678 134.648 46.6506 132.041L46.643 113.027Z" fill="#FE9881"/>
<path d="M169.073 94.8124L188.638 83.1809C189.036 82.9449 189.489 82.8203 189.951 82.8203C190.413 82.8203 190.867 82.9449 191.264 83.1809L206.728 92.3716C207.115 92.6023 207.434 92.9305 207.655 93.3234C207.875 93.7163 207.988 94.1601 207.984 94.6107C207.979 95.0612 207.857 95.5027 207.628 95.891C207.4 96.2793 207.074 96.601 206.683 96.8238L187.976 107.438C187.59 107.656 187.155 107.771 186.712 107.771C186.269 107.771 185.833 107.656 185.448 107.438L169.111 98.2627C168.804 98.0934 168.547 97.8455 168.367 97.5443C168.187 97.2432 168.09 96.8995 168.086 96.5485C168.082 96.1975 168.172 95.8518 168.345 95.5468C168.518 95.2417 168.77 94.9883 169.073 94.8124V94.8124Z" fill="#146666"/>
<path d="M168.105 96.4907V93.2891L170.31 93.9821L169.663 96.5585L168.105 96.4907Z" fill="#146666"/>
<path d="M207.964 94.3772V91.3789L206.105 92.2528L206.978 93.9854L207.964 94.3772Z" fill="#146666"/>
<path d="M169.075 91.5897L188.64 79.9583C189.037 79.7222 189.491 79.5977 189.953 79.5977C190.415 79.5977 190.868 79.7222 191.266 79.9583L206.73 89.1489C207.116 89.3797 207.436 89.7078 207.656 90.1007C207.876 90.4936 207.99 90.9375 207.985 91.388C207.981 91.8385 207.858 92.28 207.63 92.6683C207.402 93.0567 207.076 93.3783 206.685 93.6011L187.977 104.216C187.592 104.433 187.156 104.548 186.713 104.548C186.27 104.548 185.835 104.433 185.449 104.216L169.112 95.0249C168.809 94.8546 168.555 94.6071 168.378 94.3075C168.2 94.0078 168.105 93.6666 168.101 93.3182C168.097 92.9698 168.185 92.6266 168.356 92.3231C168.527 92.0196 168.775 91.7667 169.075 91.5897V91.5897Z" fill="#2C9390"/>
<path d="M185.789 87.5354L187.994 86.5938L192.652 95.5509L190.447 96.4925L185.789 87.5354Z" fill="white"/>
<path d="M196.556 89.774C197.559 89.755 198.555 89.9422 199.483 90.3239C200.236 90.6704 200.642 91.0772 200.642 91.6272C200.642 92.1771 200.236 92.5839 199.408 92.9304C197.487 93.6132 195.387 93.5945 193.478 92.8777C192.726 92.5312 192.327 92.1244 192.319 91.5744C192.312 91.0245 192.718 90.6177 193.546 90.2636C194.504 89.8918 195.53 89.725 196.556 89.774V89.774ZM198.242 91.6272C198.242 91.4162 198.061 91.2354 197.707 91.0697C197.316 90.8984 196.893 90.8111 196.466 90.8136C196.042 90.7954 195.618 90.8673 195.224 91.0245C194.87 91.1752 194.69 91.356 194.697 91.5594C194.705 91.7628 194.878 91.9511 195.232 92.1168C195.624 92.2867 196.046 92.3739 196.473 92.373C196.897 92.3911 197.32 92.3192 197.715 92.162C198.069 92.0114 198.242 91.8306 198.242 91.6272Z" fill="white"/>
<path d="M186.178 91.4822C186.178 92.002 185.764 92.439 184.944 92.793C183.02 93.4759 180.916 93.4545 179.007 92.7328C178.254 92.3787 177.855 91.9794 177.848 91.4295C177.84 90.8796 178.262 90.4728 179.082 90.1262C181.002 89.4402 183.104 89.4589 185.012 90.179C185.787 90.5556 186.17 90.9926 186.178 91.4822ZM180.767 91.9795C181.159 92.1493 181.582 92.2365 182.009 92.2356C182.433 92.2524 182.856 92.1805 183.251 92.0247C183.604 91.874 183.777 91.6932 183.777 91.4898C183.777 91.2864 183.597 91.098 183.243 90.9323C182.45 90.6076 181.563 90.5942 180.76 90.8946C180.406 91.0453 180.233 91.2261 180.233 91.4295C180.233 91.6329 180.414 91.8212 180.767 91.987" fill="white"/>
<path d="M175.426 92.5077L194.991 80.8762C195.389 80.6402 195.842 80.5156 196.304 80.5156C196.767 80.5156 197.22 80.6402 197.618 80.8762L213.081 90.0669C213.468 90.2976 213.787 90.6258 214.008 91.0187C214.228 91.4116 214.342 91.8555 214.337 92.306C214.332 92.7565 214.21 93.198 213.982 93.5863C213.753 93.9746 213.427 94.2963 213.036 94.5191L194.299 105.134C193.913 105.351 193.478 105.466 193.035 105.466C192.592 105.466 192.156 105.351 191.771 105.134L175.487 95.9354C175.183 95.7666 174.93 95.521 174.752 95.2232C174.573 94.9255 174.476 94.586 174.47 94.2389C174.464 93.8918 174.549 93.5491 174.717 93.2453C174.885 92.9414 175.129 92.6871 175.426 92.5077V92.5077Z" fill="#146666"/>
<path d="M174.457 94.186L174.465 90.9844L176.669 91.6774L176.022 94.2538L174.457 94.186Z" fill="#146666"/>
<path d="M214.323 92.0686V89.0703L212.457 89.9442L213.337 91.6768L214.323 92.0686Z" fill="#146666"/>
<path d="M175.428 89.2811L194.993 77.6497C195.39 77.4136 195.844 77.2891 196.306 77.2891C196.768 77.2891 197.222 77.4136 197.619 77.6497L213.083 86.8403C213.47 87.0711 213.789 87.3992 214.009 87.7921C214.23 88.185 214.343 88.6289 214.339 89.0794C214.334 89.53 214.211 89.9714 213.983 90.3597C213.755 90.7481 213.429 91.0697 213.038 91.2925L194.301 101.907C193.915 102.125 193.479 102.239 193.036 102.239C192.594 102.239 192.158 102.125 191.772 101.907L175.488 92.7163C175.183 92.548 174.928 92.3022 174.749 92.0037C174.569 91.7052 174.471 91.3646 174.465 91.0162C174.459 90.6677 174.545 90.3239 174.714 90.0192C174.883 89.7146 175.129 89.46 175.428 89.2811V89.2811Z" fill="#2C9390"/>
<path d="M187.654 89.8248C188.43 89.8134 189.199 89.9648 189.912 90.2693C190.551 90.5631 190.86 90.9021 190.845 91.2863C190.83 91.6705 190.469 92.0396 189.776 92.3108L188.399 92.8984L190.604 93.9004L189.167 94.5106L182.477 91.4822L185.291 90.2844C186.039 89.9707 186.844 89.8142 187.654 89.8248V89.8248ZM188.903 91.3315C188.903 91.1658 188.775 91.0226 188.505 90.9021C188.198 90.7721 187.867 90.708 187.534 90.7138C187.194 90.7059 186.856 90.7674 186.541 90.8946L185.209 91.4596L187.128 92.3334L188.459 91.7684C188.745 91.6479 188.888 91.5048 188.896 91.339" fill="white"/>
<path d="M194.707 86.2539L201.427 89.32L199.989 89.9226L197.258 88.6796L194.398 89.8925L197.13 91.1431L195.692 91.7533L188.973 88.6947L190.41 88.0845L193.096 89.3049L195.956 88.092L193.269 86.8641L194.707 86.2539Z" fill="white"/>
<path d="M201.591 83.9049C202.366 83.8935 203.135 84.0449 203.848 84.3494C204.488 84.6432 204.796 84.9822 204.781 85.3664C204.766 85.7506 204.405 86.1197 203.713 86.3909L202.336 86.9785L204.54 87.9805L203.103 88.5907L196.383 85.5321L199.198 84.3343C199.957 84.0269 200.772 83.8807 201.591 83.9049V83.9049ZM202.84 85.4116C202.84 85.2459 202.712 85.1027 202.441 84.9822C202.134 84.8522 201.803 84.7881 201.47 84.7939C201.13 84.7861 200.792 84.8476 200.477 84.9747L199.145 85.5397L201.064 86.4135L202.396 85.8485C202.682 85.728 202.825 85.5849 202.832 85.4191" fill="white"/>
<path d="M36.1156 101.013C36.2936 100.97 36.4794 100.97 36.6574 101.013C36.789 101.059 36.9151 101.12 37.0336 101.194C37.1225 101.247 37.2014 101.316 37.2669 101.397L37.3422 101.495L36.7101 102.783L36.6574 102.708C36.6127 102.655 36.5622 102.607 36.5069 102.565C36.431 102.502 36.3443 102.453 36.251 102.422C36.1293 102.397 36.004 102.397 35.8823 102.422C35.7212 102.437 35.565 102.486 35.4233 102.565C34.95 102.839 34.5718 103.252 34.3397 103.747C34.0547 104.278 33.9048 104.87 33.9032 105.473C33.8795 105.705 33.9061 105.94 33.9815 106.161C34.0568 106.382 34.179 106.584 34.3397 106.753C34.4897 106.881 34.6772 106.957 34.874 106.969C35.0707 106.982 35.2661 106.93 35.4308 106.821C35.6065 106.731 35.7686 106.617 35.9124 106.482C36.0541 106.355 36.1827 106.213 36.2962 106.06C36.3965 105.92 36.4868 105.784 36.5671 105.653C36.63 105.55 36.6853 105.441 36.7326 105.329L36.7853 105.209L37.3873 105.804L37.3121 105.985C37.277 106.06 37.1992 106.203 37.0788 106.414C36.9611 106.618 36.8304 106.815 36.6875 107.002C36.5224 107.212 36.3385 107.406 36.1382 107.582C35.9288 107.775 35.6932 107.937 35.4383 108.064C35.1681 108.241 34.848 108.327 34.5255 108.308C34.2029 108.289 33.8951 108.166 33.6474 107.959C33.3818 107.707 33.1763 107.399 33.046 107.058C32.9157 106.716 32.8641 106.349 32.8949 105.985C32.9142 105.03 33.1729 104.094 33.6474 103.265C34.024 102.44 34.6402 101.747 35.4158 101.277C35.6308 101.146 35.8681 101.057 36.1156 101.013V101.013Z" fill="black"/>
<path d="M38.9452 105.579V103.967L37.8164 104.532V103.357L38.9376 102.777V101.165L39.6901 100.766V102.393L40.8189 101.813V103.018L39.6901 103.583V105.21L38.9452 105.579Z" fill="black"/>
<path d="M42.4217 103.868V102.21L41.293 102.775V101.562L42.4142 100.982V99.325L43.1667 98.9258V100.591L44.2954 100.011V101.276L43.1667 101.841V103.506L42.4217 103.868Z" fill="black"/>
<path d="M35.8518 126.782C35.9978 126.751 36.1497 126.764 36.2883 126.82C36.3953 126.868 36.4963 126.929 36.5893 127.001C36.6626 127.055 36.7262 127.121 36.7774 127.196L36.8376 127.294L36.3259 128.492L36.2732 128.394C36.2384 128.342 36.198 128.294 36.1528 128.251C36.0927 128.19 36.0211 128.141 35.9421 128.108C35.8456 128.085 35.7451 128.085 35.6486 128.108C35.5141 128.122 35.385 128.169 35.2724 128.244C34.8708 128.528 34.5641 128.927 34.3919 129.389C34.158 129.923 34.0376 130.5 34.0383 131.084C33.9963 131.535 34.1223 131.985 34.3919 132.349C34.4995 132.472 34.6505 132.549 34.8132 132.563C34.976 132.577 35.1378 132.527 35.2649 132.425C35.4107 132.337 35.5426 132.228 35.6562 132.101C35.7721 131.973 35.8755 131.834 35.9647 131.686C36.0449 131.551 36.1177 131.42 36.1829 131.295C36.2347 131.192 36.2799 131.086 36.3184 130.978L36.3635 130.858L36.8451 131.445L36.7774 131.626C36.7473 131.701 36.6846 131.842 36.5893 132.048C36.4951 132.245 36.3896 132.436 36.2732 132.62C36.1421 132.821 35.9936 133.011 35.8292 133.185C35.6657 133.369 35.4754 133.526 35.2649 133.652C35.0542 133.817 34.7891 133.897 34.5226 133.874C34.2561 133.852 34.0079 133.73 33.8276 133.532C33.3888 132.981 33.1787 132.283 33.2406 131.581C33.2446 130.658 33.4447 129.746 33.8276 128.906C34.1177 128.15 34.6226 127.496 35.2799 127.023C35.451 126.902 35.646 126.82 35.8518 126.782V126.782Z" fill="black"/>
<path d="M38.9378 128.923C38.7924 128.864 38.6337 128.845 38.4787 128.87C38.2985 128.886 38.1172 128.886 37.9369 128.87C37.8402 128.86 37.7476 128.825 37.6675 128.77C37.5874 128.715 37.5222 128.64 37.4779 128.554C37.3314 128.265 37.2664 127.942 37.2898 127.62C37.2974 127.074 37.4232 126.537 37.6585 126.045C37.8584 125.572 38.1902 125.167 38.6142 124.877C38.7493 124.788 38.8998 124.724 39.0582 124.689C39.1744 124.661 39.2956 124.661 39.4118 124.689C39.4968 124.712 39.578 124.748 39.6526 124.795C39.7092 124.829 39.758 124.875 39.7956 124.93L39.8408 124.99L39.3516 126.196L39.2689 126.09C39.2016 126.035 39.1212 125.999 39.0356 125.985C38.9722 125.971 38.9068 125.971 38.8434 125.984C38.78 125.997 38.7199 126.023 38.6669 126.06C38.505 126.168 38.3771 126.319 38.2981 126.497C38.2069 126.68 38.158 126.881 38.1552 127.085C38.1552 127.306 38.2179 127.441 38.3433 127.491C38.4891 127.549 38.6473 127.567 38.8023 127.544C38.9826 127.529 39.1638 127.529 39.3441 127.544C39.4416 127.555 39.5346 127.591 39.6148 127.648C39.695 127.704 39.7598 127.78 39.8031 127.868C39.9474 128.168 40.0097 128.501 39.9837 128.832C39.9818 129.429 39.8482 130.018 39.5924 130.558C39.3696 131.052 38.9988 131.465 38.5314 131.74C38.3773 131.834 38.2058 131.896 38.0272 131.921C37.8963 131.954 37.7593 131.954 37.6284 131.921C37.5294 131.883 37.4358 131.833 37.35 131.77C37.2833 131.725 37.2248 131.669 37.1769 131.605L37.1167 131.529L37.6058 130.407L37.7112 130.535C37.8176 130.617 37.9463 130.666 38.0805 130.674C38.2147 130.682 38.3482 130.649 38.4637 130.58C38.6607 130.46 38.8178 130.285 38.9152 130.075C39.0227 129.857 39.0793 129.618 39.0807 129.375C39.1108 129.129 39.0632 128.978 38.9378 128.923Z" fill="black"/>
<path d="M42.1355 126.989C41.9919 126.923 41.8328 126.9 41.6765 126.921C41.4962 126.938 41.3149 126.938 41.1347 126.921C41.0366 126.908 40.9434 126.871 40.8632 126.814C40.7831 126.756 40.7186 126.679 40.6756 126.59C40.5321 126.29 40.4698 125.957 40.495 125.625C40.5038 125.067 40.6321 124.518 40.8713 124.013C41.0688 123.535 41.4007 123.124 41.827 122.831C41.9616 122.74 42.1123 122.676 42.2709 122.642C42.3871 122.614 42.5084 122.614 42.6246 122.642C42.71 122.668 42.7912 122.706 42.8654 122.755C42.9225 122.792 42.9712 122.841 43.0084 122.898L43.0535 122.966L42.5644 124.194L42.4816 124.089C42.4144 124.034 42.334 123.997 42.2484 123.983C42.1851 123.969 42.1195 123.968 42.0559 123.981C41.9924 123.994 41.9323 124.021 41.8796 124.058C41.7167 124.168 41.5887 124.322 41.5109 124.503C41.4205 124.688 41.3717 124.892 41.3679 125.098C41.3679 125.324 41.4306 125.465 41.5561 125.52C41.701 125.581 41.8594 125.601 42.0151 125.58C42.1953 125.565 42.3766 125.565 42.5569 125.58C42.6556 125.594 42.7494 125.632 42.8297 125.691C42.9099 125.75 42.9739 125.829 43.0159 125.919C43.16 126.23 43.2222 126.572 43.1965 126.914C43.1951 127.525 43.0616 128.129 42.8052 128.684C42.5902 129.185 42.2246 129.606 41.7592 129.889C41.6057 129.984 41.4339 130.046 41.2551 130.07C41.1211 130.092 40.9837 130.079 40.8562 130.032C40.7595 129.992 40.6684 129.938 40.5853 129.874C40.5186 129.826 40.4601 129.768 40.4123 129.701L40.3521 129.618L40.8412 128.473L40.939 128.609C41.022 128.682 41.1235 128.732 41.2325 128.752C41.3129 128.772 41.3966 128.775 41.4783 128.76C41.5599 128.746 41.6377 128.715 41.7066 128.669C41.9047 128.547 42.0619 128.369 42.1581 128.157C42.2709 127.922 42.3275 127.664 42.3236 127.403C42.3035 127.187 42.2408 127.049 42.1355 126.989Z" fill="black"/>
<path d="M61.5654 78.5012L63.9057 94.276L78.8353 85.3641L76.5251 69.7852L61.5654 78.5012Z" fill="white"/>
<path d="M64.5742 97.1614L68.6227 124.432L83.5372 115.407L79.5339 88.4453L64.5742 97.1614Z" fill="white"/>
<path d="M118.602 67.8754C119.282 59.6156 115.139 52.5325 109.348 52.0549C103.558 51.5773 98.313 57.886 97.6332 66.1458C96.9534 74.4057 101.096 81.4887 106.887 81.9663C112.677 82.4439 117.922 76.1352 118.602 67.8754Z" fill="white"/>
<path d="M95.3838 65.6808C95.4055 65.6252 95.4333 65.5721 95.4666 65.5226C95.3367 65.3999 95.2362 65.2495 95.1723 65.0825C95.1085 64.9156 95.083 64.7364 95.0978 64.5583C95.1107 64.4441 95.1467 64.3338 95.2036 64.2341C95.2605 64.1343 95.3372 64.0473 95.4289 63.9782C95.3451 63.8809 95.2936 63.7597 95.2818 63.6317C95.2699 63.5037 95.2983 63.3751 95.3629 63.264C95.4275 63.1529 95.5252 63.0647 95.6422 63.0118C95.7593 62.9589 95.8899 62.9438 96.0159 62.9688C96.9114 63.1496 97.5209 64.3248 97.9874 65.0254C98.3411 65.5452 98.6797 66.0725 98.9883 66.6149C99.0409 65.8616 99.1538 65.0555 99.214 64.3549C99.2742 63.6543 100.403 63.6016 100.403 64.3549C100.337 65.524 100.456 66.6961 100.757 67.8278C100.875 67.8862 100.982 67.9653 101.073 68.0613C104.412 71.5731 108.597 74.1671 113.226 75.5946C113.457 75.6724 113.656 75.824 113.793 76.0263C113.93 76.2285 113.997 76.4702 113.983 76.7141C113.969 76.958 113.876 77.1906 113.717 77.3763C113.559 77.5619 113.344 77.6903 113.105 77.7416C113.093 77.9618 113.015 78.1732 112.881 78.348C112.746 78.5228 112.562 78.6528 112.353 78.721C112.319 78.8927 112.249 79.0553 112.148 79.1981C112.046 79.3409 111.916 79.4607 111.766 79.5496L112.518 79.8886C113.79 80.4235 113.233 82.5253 111.939 81.9904C107.088 79.9679 102.827 76.7492 99.5526 72.634C99.1764 72.2724 98.8001 71.8807 98.4389 71.5417C97.867 70.9616 95.1054 68.1818 95.7901 67.0217C95.5418 66.532 95.1806 66.2232 95.3838 65.6808Z" fill="#FBB5AD"/>
<path d="M114.535 52.7539C115.837 53.2737 116.838 56.0686 116.725 56.6637L115.709 56.1439L115.528 55.9405C115.343 54.8381 115.009 53.7661 114.535 52.7539V52.7539Z" fill="#FBB5AD"/>
<path d="M114.36 55.0353C114.428 54.9852 114.504 54.947 114.585 54.9223L114.676 54.847C115.18 54.4553 115.97 54.96 116.421 55.2161C117.01 55.5275 117.564 55.8986 118.077 56.3235C118.31 56.6408 118.476 57.0022 118.566 57.3857C118.754 57.8528 118.957 58.3123 119.168 58.7643C119.613 59.7084 120.116 60.6242 120.673 61.5065C121.773 63.2297 123.071 64.8176 124.541 66.2374C125.226 66.9004 124.18 67.9324 123.495 67.277L123.006 66.7874C122.903 66.8548 122.783 66.8907 122.66 66.8907C122.537 66.8907 122.416 66.8548 122.313 66.7874C122.194 66.7059 122.08 66.6152 121.975 66.5162L121.817 66.3806C121.769 66.489 121.696 66.5846 121.604 66.6594C121.512 66.7343 121.403 66.7863 121.287 66.8113C121.171 66.8362 121.051 66.8334 120.937 66.8031C120.822 66.7728 120.716 66.7157 120.628 66.6367L120.124 66.1169C119.965 66.0581 119.835 65.939 119.762 65.7854C119.762 65.7854 119.687 66.7949 119.665 66.7572C118.859 65.906 117.911 63.5631 117.114 62.1694C117.118 62.1025 117.099 62.0362 117.061 61.9811C116.436 60.9791 116.519 60.3765 116.444 59.2314C116.447 58.5696 116.389 57.9089 116.271 57.2577L114.984 56.2256C114.668 55.9845 114.329 55.6229 114.39 55.2613C114.368 55.188 114.358 55.1118 114.36 55.0353V55.0353Z" fill="#FBB5AD"/>
<path d="M109.49 73.5086C114.148 74.8796 114.938 74.3523 117.151 74.2619C119.363 74.1715 121.666 71.0979 121.666 71.0979C121.666 71.0979 122.222 64.1898 126.331 69.5912C129.401 73.6291 130.575 85.3208 130.974 90.9859C129.469 92.1988 127.415 92.6583 125.503 92.9446C124.242 93.1538 122.966 93.2596 121.688 93.261C120.91 93.2518 120.141 93.0826 119.431 92.7638L117.248 82.6239C113.739 82.8146 110.268 81.8198 107.391 79.7989L109.49 73.5086Z" fill="#FE9881"/>
<path d="M119.485 65.2074C119.485 65.2074 116.475 70.9553 119.448 72.5599C122.42 74.1645 124.715 71.4977 124.978 70.8046C125.242 70.1116 125.174 64.7855 119.485 65.2074Z" fill="#FBB5AD"/>
<path d="M119.26 64.3632C120.012 63.8724 120.862 63.5509 121.75 63.4208C122.639 63.2908 123.545 63.3553 124.407 63.6099C125.916 63.8855 127.305 64.6162 128.387 65.7042C128.771 65.4434 129.219 65.2924 129.682 65.2672C130.24 65.2257 130.797 65.3622 131.273 65.6573C131.749 65.9523 132.119 66.3907 132.33 66.9095C132.511 67.3946 132.52 67.9271 132.356 68.418C132.192 68.9089 131.864 69.3285 131.427 69.6064C130.753 69.9597 129.966 70.0328 129.238 69.8098V69.9454C129.14 71.0302 130.163 71.5802 130.562 72.4992C130.759 72.9198 130.815 73.3929 130.72 73.8477C130.615 74.2997 130.148 74.7894 130.163 75.2489C130.24 75.6059 130.406 75.9376 130.645 76.2132C130.857 76.5279 131.032 76.8667 131.164 77.2226C129.012 78.3828 126.318 78.3752 123.985 77.8931C121.416 77.4427 119.061 76.1714 117.273 74.2696C117.376 74.0308 117.53 73.8174 117.724 73.6443C118.125 73.3726 118.554 73.1452 119.004 72.9663C119.643 72.5972 119.004 71.4596 119.004 70.8796C119.041 69.8475 119.794 69.4181 120.652 69.064C121.269 68.8079 121.299 68.4312 121.299 67.7984C121.353 67.299 121.248 66.7952 120.998 66.3596C120.812 66.386 120.623 66.346 120.464 66.2466C120.143 66.053 119.799 65.9011 119.44 65.7946C119.266 65.7252 119.124 65.5934 119.042 65.4248C118.96 65.2562 118.944 65.063 118.996 64.883C118.992 64.781 119.014 64.6797 119.06 64.5886C119.106 64.4976 119.175 64.42 119.26 64.3632Z" fill="#56403D"/>
<path d="M121.532 66.6233C120.56 66.4134 119.619 66.0792 118.732 65.6289C118.732 65.5309 118.446 61.9526 124.79 63.1956C131.134 64.4386 128.124 72.0397 128.124 72.0397" fill="#56403D"/>
<path d="M128.457 145.722C129.137 145.599 129.773 145.297 130.3 144.848C130.628 144.237 130.762 143.541 130.684 142.852C130.684 142.209 130.684 141.566 130.684 140.924C130.72 140.895 130.749 140.86 130.77 140.82C130.79 140.78 130.802 140.735 130.804 140.69C130.84 140.166 130.84 139.64 130.804 139.116L133.446 138.859C133.902 140.513 134.269 142.191 134.544 143.884C134.469 144.404 131.963 147.824 130.692 148.058C129.42 148.291 125.876 147.176 125.582 146.687V146.641C126.523 146.385 127.493 146.084 128.457 145.722Z" fill="#FBB5AD"/>
<path d="M110.235 136.343C111.108 136.169 114.705 136.757 114.705 136.757C114.705 136.757 115.209 133.819 115.141 133.676L118.904 133.939C118.904 133.939 119.378 139.401 119.378 140.124C119.378 141.45 117.745 141.865 117.384 141.812C117.127 141.725 116.875 141.622 116.631 141.503C116.767 140.821 116.838 140.127 116.842 139.431C116.842 139.115 116.759 138.889 116.458 138.776C115.737 138.683 115.005 138.75 114.313 138.972C113.644 139.1 112.981 139.258 112.312 139.379C110.807 138.625 109.588 137.872 109.482 137.548C109.204 136.78 108.903 136.599 110.235 136.343Z" fill="#FBB5AD"/>
<path d="M108.981 136.569L109.071 136.471C109.357 136.192 110.109 136.215 110.463 136.207C111.892 136.216 113.315 136.398 114.7 136.749C114.7 136.749 111.298 136.282 111.17 136.893C111.116 137.137 111.119 137.391 111.179 137.634C111.239 137.877 111.355 138.103 111.517 138.294C112.939 139.559 115.151 138.166 116.536 137.54L119.102 136.433L119.267 138.527C119.356 139.484 119.356 140.448 119.267 141.405C119.094 141.699 117.567 142.497 117.251 142.339C116.935 142.181 115.926 141.586 115.926 141.586L116.129 139.062C116.129 139.062 114.007 139.981 113.007 139.725C112.277 139.544 108.1 137.759 108.981 136.569Z" fill="#56403D"/>
<path d="M132.09 143.974C132.09 143.974 130.713 148.291 130.209 148.569C129.704 148.848 124.407 147.161 125.197 146.151C125.701 145.503 128.899 145.511 129.185 145.398C129.185 145.398 127.507 145.948 127.507 146.219C127.507 146.49 129.622 147.47 129.765 147.266C129.908 147.063 132.18 143.288 132.18 143.288L134.347 142.535L136.131 146.505L134.626 147.153C134.626 147.153 134.159 148.358 134.009 148.358C133.488 147.641 133.023 146.886 132.617 146.098C132.516 146.646 132.339 147.176 132.09 147.673C131.872 147.831 130.111 149.278 129.313 148.17L130.818 146.505" fill="#56403D"/>
<path d="M121.08 135.401C117.747 136.033 114.217 135.453 111.712 133.178C111.651 127.619 111.14 122.632 111.305 117.049C111.569 108.009 112.886 99.0899 119.244 92.0161L130.818 90.2383C135.513 99.1803 136.469 140.094 136.469 140.094C136.469 140.094 130.622 143.861 126.092 142.053L124.316 107.964C124.316 107.964 121.253 111.595 120.696 113.629C120.328 115.091 121.148 128.553 121.08 135.401Z" fill="#999A1C"/>
<path d="M87.3608 113.388L113.698 98.2834C113.828 98.2075 113.922 98.0831 113.96 97.9376C113.999 97.7921 113.977 97.6374 113.902 97.5075C113.864 97.4432 113.814 97.3869 113.755 97.3419C113.696 97.2969 113.628 97.264 113.556 97.2451C113.411 97.207 113.256 97.2282 113.126 97.3041L86.7889 112.408C86.6592 112.484 86.5649 112.609 86.5268 112.754C86.4887 112.9 86.5099 113.055 86.5858 113.184C86.6616 113.314 86.7859 113.409 86.9312 113.447C87.0766 113.485 87.2311 113.464 87.3608 113.388V113.388Z" fill="white"/>
<path d="M86.9927 109.735L113.33 94.6311C113.46 94.5552 113.554 94.4308 113.592 94.2852C113.63 94.1397 113.609 93.985 113.533 93.8552C113.458 93.7253 113.333 93.6309 113.188 93.5928C113.043 93.5546 112.888 93.5758 112.758 93.6518L86.4208 108.756C86.291 108.832 86.1968 108.956 86.1587 109.102C86.1206 109.247 86.1418 109.402 86.2176 109.532C86.2934 109.662 86.4177 109.756 86.563 109.794C86.7084 109.833 86.8629 109.811 86.9927 109.735V109.735Z" fill="white"/>
<path d="M86.1797 105.841L112.517 90.7366C112.647 90.6606 112.741 90.5362 112.779 90.3907C112.817 90.2452 112.796 90.0905 112.72 89.9606C112.645 89.8308 112.52 89.7364 112.375 89.6982C112.23 89.6601 112.075 89.6813 111.945 89.7572L85.6078 104.862C85.4781 104.937 85.3838 105.062 85.3457 105.207C85.3076 105.353 85.3288 105.508 85.4046 105.637C85.4804 105.767 85.6047 105.862 85.7501 105.9C85.8954 105.938 86.05 105.917 86.1797 105.841V105.841Z" fill="white"/>
<path d="M79.1221 71.2766L91.749 64.0295C91.8787 63.9536 91.973 63.8292 92.0111 63.6837C92.0492 63.5382 92.028 63.3835 91.9522 63.2536C91.8763 63.1237 91.7521 63.0293 91.6067 62.9912C91.4614 62.953 91.3068 62.9743 91.1771 63.0502L78.5502 70.2973C78.4204 70.3732 78.3262 70.4976 78.288 70.6431C78.2499 70.7886 78.2711 70.9433 78.347 71.0732C78.4228 71.2031 78.5471 71.2975 78.6924 71.3356C78.8378 71.3737 78.9923 71.3525 79.1221 71.2766V71.2766Z" fill="white"/>
<path d="M79.5273 74.9094L92.1543 67.6623C92.284 67.5864 92.3783 67.462 92.4164 67.3165C92.4545 67.171 92.4333 67.0163 92.3574 66.8864C92.2816 66.7565 92.1573 66.6622 92.012 66.624C91.8666 66.5859 91.7121 66.6071 91.5824 66.683L78.9554 73.9301C78.8257 74.006 78.7314 74.1304 78.6933 74.2759C78.6552 74.4214 78.6764 74.5761 78.7523 74.706C78.8281 74.8359 78.9524 74.9303 79.0977 74.9684C79.2431 75.0066 79.3976 74.9853 79.5273 74.9094V74.9094Z" fill="white"/>
</g>
<defs>
<filter id="filter0_d_6240_5792" x="0.90625" y="-24.1641" width="376" height="290" filterUnits="userSpaceOnUse" color-interpolation-filters="sRGB">
<feFlood flood-opacity="0" result="BackgroundImageFix"/>
<feColorMatrix in="SourceAlpha" type="matrix" values="0 0 0 0 0 0 0 0 0 0 0 0 0 0 0 0 0 0 127 0" result="hardAlpha"/>
<feOffset dx="43" dy="6"/>
<feGaussianBlur stdDeviation="16"/>
<feColorMatrix type="matrix" values="0 0 0 0 0 0 0 0 0 0 0 0 0 0 0 0 0 0 0.25 0"/>
<feBlend mode="normal" in2="BackgroundImageFix" result="effect1_dropShadow_6240_5792"/>
<feBlend mode="normal" in="SourceGraphic" in2="effect1_dropShadow_6240_5792" result="shape"/>
</filter>
<linearGradient id="paint0_linear_6240_5792" x1="174.628" y1="110.664" x2="183.716" y2="97.9795" gradientUnits="userSpaceOnUse">
<stop stop-color="#AA4200" stop-opacity="0"/>
<stop offset="0.98" stop-color="#AA003D"/>
</linearGradient>
<linearGradient id="paint1_linear_6240_5792" x1="11482.2" y1="3741.87" x2="11621.4" y2="3368.53" gradientUnits="userSpaceOnUse">
<stop stop-color="#AA4200" stop-opacity="0"/>
<stop offset="0.98" stop-color="#AA003D"/>
</linearGradient>
<linearGradient id="paint2_linear_6240_5792" x1="11259.3" y1="13098.7" x2="12203.1" y2="10492.6" gradientUnits="userSpaceOnUse">
<stop stop-color="#AA4200" stop-opacity="0"/>
<stop offset="0.98" stop-color="#AA003D"/>
</linearGradient>
</defs>
</svg>
