<svg width="607" height="404" viewBox="0 0 607 404" fill="none" xmlns="http://www.w3.org/2000/svg">
<path d="M556.96 217.057L472.039 167.881C467.424 165.204 459.364 165.527 454.031 168.598L275.806 271.163C270.474 274.193 269.888 278.89 274.503 281.566L359.455 330.733C364.07 333.409 372.14 333.086 377.473 330.016L555.647 227.45C560.98 224.38 561.566 219.724 556.96 217.057Z" fill="#7DC3EA"/>
<path d="M367.294 322.039C364.297 322.115 361.33 321.42 358.679 320.019L273.758 270.842C271.273 269.408 269.9 267.337 269.91 265.035C269.91 262.368 271.788 259.762 275.071 257.874L453.285 155.308C459.123 151.955 467.688 151.632 472.788 154.591L557.699 203.768C560.194 205.202 561.557 207.263 561.557 209.575C561.557 212.242 559.669 214.848 556.396 216.736L378.172 319.302C374.839 321.127 371.094 322.07 367.294 322.039ZM464.254 155.561C460.961 155.526 457.712 156.325 454.81 157.884L276.556 260.449C274.253 261.772 272.879 263.479 272.879 265.045C272.879 266.61 274.162 267.64 275.253 268.277L360.163 317.443C364.294 319.837 371.859 319.463 376.687 316.726L554.912 214.12C557.204 212.797 558.578 211.09 558.578 209.525C558.578 207.959 557.295 206.919 556.214 206.293L471.294 157.157C469.109 156.025 466.673 155.469 464.214 155.54L464.254 155.561Z" fill="white"/>
<path d="M356.951 300.514L268.556 249.337C265.647 247.661 264.304 245.388 264.394 243.035V230.218L269.303 235.975C269.626 235.763 269.949 235.551 270.313 235.349L451.103 131.319C458.274 127.188 469.132 126.754 475.343 130.309L562.466 180.789C564.233 178.86 567.93 174.779 567.93 174.779V187.323C568.061 190.151 566.051 193.161 562.001 195.494L381.211 299.524C374 303.675 363.152 304.11 356.951 300.514Z" fill="#396CAA"/>
<path d="M309.159 269.125L314.209 272.064C314.885 272.448 315.441 272.064 315.441 271.135C315.433 270.677 315.318 270.227 315.103 269.822C314.889 269.416 314.583 269.067 314.209 268.802L309.159 265.863C308.482 265.469 307.937 265.863 307.937 266.782C307.944 267.241 308.058 267.691 308.27 268.098C308.483 268.505 308.787 268.857 309.159 269.125Z" fill="#173D7A"/>
<path d="M451.125 131.299C458.296 127.169 469.154 126.734 475.365 130.289L562.468 180.789C564.235 178.86 567.932 174.78 567.932 174.78V187.324C568.063 190.152 566.053 193.162 562.003 195.495L381.213 299.525C377.204 301.7 372.725 302.865 368.164 302.919L368.336 178.951L451.125 131.299Z" fill="url(#paint0_linear_1187_56349)"/>
<path d="M563.768 168.668L475.393 117.492C469.182 113.906 458.334 114.34 451.153 118.502L270.363 222.532C263.182 226.663 262.394 232.925 268.606 236.52L356.981 287.697C363.182 291.292 374.03 290.858 381.221 286.687L562.011 182.657C569.182 178.475 569.97 172.213 563.768 168.668Z" fill="#D4ECFF"/>
<path d="M356.922 288.99L268.557 237.814C265.356 235.965 264.033 233.4 264.467 230.744C264.629 232.865 265.982 234.875 268.628 236.41L357.003 287.586C363.205 291.182 374.052 290.748 381.243 286.576L562.033 182.546C565.518 180.526 567.477 178.052 567.881 175.598C568.093 178.466 566.093 181.547 561.973 183.92L381.183 287.95C373.971 292.152 363.124 292.586 356.922 288.99Z" fill="white"/>
<path d="M556.96 170.69L472.039 121.513C467.424 118.846 459.364 119.17 454.031 122.24L275.806 224.755C270.474 227.785 269.888 232.481 274.503 235.148L359.455 284.325C364.07 286.991 372.14 286.668 377.473 283.598L555.647 181.042C560.98 177.972 561.566 173.316 556.96 170.69Z" fill="url(#paint1_radial_1187_56349)"/>
<path d="M380.806 258.781L320.883 224.188L324.711 221.977L384.634 256.569L380.806 258.781Z" fill="#D4ECFF"/>
<path d="M339.114 248.702L308.774 231.178L312.602 228.977L342.942 246.49L339.114 248.702Z" fill="#D4ECFF"/>
<path d="M353.841 257.197L344.003 251.521L347.831 249.309L357.669 254.995L353.841 257.197Z" fill="#FF2C9C"/>
<path d="M368.697 265.771L358.859 260.095L362.677 257.883L372.525 263.569L368.697 265.771Z" fill="white"/>
<path d="M339.46 241.905L314.836 227.685L318.664 225.473L343.288 239.693L339.46 241.905Z" fill="white"/>
<path d="M369.515 259.259L344.892 245.038L348.719 242.836L373.343 257.047L369.515 259.259Z" fill="#D4ECFF"/>
<path d="M351.285 228.868C350.593 229.216 349.829 229.398 349.053 229.398C348.278 229.398 347.513 229.216 346.821 228.868C346.554 228.774 346.322 228.6 346.158 228.37C345.994 228.139 345.906 227.863 345.906 227.58C345.906 227.297 345.994 227.021 346.158 226.79C346.322 226.559 346.554 226.385 346.821 226.292C347.512 225.938 348.277 225.754 349.053 225.754C349.829 225.754 350.594 225.938 351.285 226.292C351.553 226.385 351.785 226.559 351.949 226.79C352.113 227.021 352.201 227.297 352.201 227.58C352.201 227.863 352.113 228.139 351.949 228.37C351.785 228.6 351.553 228.774 351.285 228.868Z" fill="#FF2C9C"/>
<path d="M357.95 232.716C357.258 233.065 356.493 233.246 355.718 233.246C354.942 233.246 354.178 233.065 353.486 232.716C353.218 232.623 352.986 232.449 352.822 232.218C352.658 231.987 352.57 231.711 352.57 231.428C352.57 231.145 352.658 230.869 352.822 230.638C352.986 230.407 353.218 230.233 353.486 230.14C354.178 229.791 354.942 229.609 355.718 229.609C356.493 229.609 357.258 229.791 357.95 230.14C358.217 230.233 358.449 230.407 358.613 230.638C358.777 230.869 358.865 231.145 358.865 231.428C358.865 231.711 358.777 231.987 358.613 232.218C358.449 232.449 358.217 232.623 357.95 232.716Z" fill="white"/>
<path d="M364.619 236.563C363.93 236.917 363.167 237.101 362.392 237.101C361.618 237.101 360.854 236.917 360.165 236.563C359.898 236.47 359.666 236.296 359.502 236.065C359.338 235.835 359.25 235.559 359.25 235.275C359.25 234.992 359.338 234.716 359.502 234.485C359.666 234.255 359.898 234.081 360.165 233.988C360.856 233.639 361.619 233.457 362.392 233.457C363.166 233.457 363.929 233.639 364.619 233.988C364.887 234.081 365.119 234.255 365.283 234.485C365.447 234.716 365.535 234.992 365.535 235.275C365.535 235.559 365.447 235.835 365.283 236.065C365.119 236.296 364.887 236.47 364.619 236.563Z" fill="#D4ECFF"/>
<path d="M371.283 240.38C370.594 240.733 369.83 240.918 369.056 240.918C368.281 240.918 367.518 240.733 366.829 240.38C366.562 240.286 366.33 240.113 366.166 239.882C366.002 239.651 365.914 239.375 365.914 239.092C365.914 238.809 366.002 238.533 366.166 238.302C366.33 238.071 366.562 237.897 366.829 237.804C367.519 237.455 368.282 237.273 369.056 237.273C369.83 237.273 370.592 237.455 371.283 237.804C371.55 237.897 371.782 238.071 371.946 238.302C372.11 238.533 372.198 238.809 372.198 239.092C372.198 239.375 372.11 239.651 371.946 239.882C371.782 240.113 371.55 240.286 371.283 240.38Z" fill="#FF2C9C"/>
<path d="M377.958 244.259C377.267 244.612 376.502 244.797 375.726 244.797C374.949 244.797 374.184 244.612 373.493 244.259C373.226 244.166 372.994 243.992 372.83 243.761C372.666 243.53 372.578 243.254 372.578 242.971C372.578 242.688 372.666 242.412 372.83 242.181C372.994 241.95 373.226 241.776 373.493 241.683C374.186 241.334 374.95 241.152 375.726 241.152C376.501 241.152 377.265 241.334 377.958 241.683C378.225 241.776 378.457 241.95 378.621 242.181C378.785 242.412 378.873 242.688 378.873 242.971C378.873 243.254 378.785 243.53 378.621 243.761C378.457 243.992 378.225 244.166 377.958 244.259Z" fill="white"/>
<path d="M511.976 171.024L501.886 165.196L505.805 162.934L515.895 168.761L511.976 171.024Z" fill="#FF2C9C"/>
<path d="M526.027 179.133L515.938 173.305L519.856 171.043L529.946 176.871L526.027 179.133Z" fill="white"/>
<path d="M466.911 144.752L456.821 138.934L460.74 136.672L470.829 142.49L466.911 144.752Z" fill="white"/>
<path d="M509.725 176.892L495.676 168.782L499.595 166.52L513.644 174.63L509.725 176.892Z" fill="white"/>
<path d="M519.813 182.718L513.652 179.153L517.571 176.891L523.732 180.446L519.813 182.718Z" fill="#D4ECFF"/>
<path d="M538.844 260.105C538.623 260.105 538.405 260.053 538.208 259.953C537.885 259.785 537.643 259.497 537.533 259.15C537.423 258.804 537.455 258.428 537.622 258.105C538.889 255.573 540.828 253.438 543.227 251.934C544.413 251.203 545.783 250.824 547.176 250.843C548.974 250.924 551.136 249.601 553.065 247.288C554.059 246.059 555.262 245.017 556.62 244.207C557.8 243.462 559.174 243.083 560.569 243.117C562.357 243.117 564.538 241.874 566.457 239.561C567.454 238.329 568.661 237.283 570.023 236.471C571.2 235.727 572.57 235.348 573.962 235.38C575.759 235.38 577.931 234.138 579.86 231.825C580.854 230.593 582.057 229.547 583.415 228.734C584.234 228.18 585.172 227.828 586.154 227.705C587.135 227.582 588.131 227.693 589.061 228.027C589.238 228.091 589.4 228.19 589.537 228.318C589.675 228.447 589.784 228.602 589.859 228.774C589.934 228.947 589.972 229.133 589.972 229.321C589.972 229.509 589.933 229.695 589.859 229.867C589.784 230.04 589.674 230.195 589.537 230.323C589.4 230.452 589.238 230.551 589.061 230.614C588.884 230.677 588.696 230.704 588.508 230.691C588.321 230.679 588.137 230.628 587.97 230.542C587.432 230.388 586.865 230.359 586.314 230.457C585.763 230.555 585.241 230.777 584.789 231.108C583.711 231.76 582.754 232.594 581.961 233.572C579.456 236.602 576.497 238.248 573.881 238.117C573.013 238.12 572.165 238.372 571.437 238.844C570.362 239.497 569.409 240.331 568.619 241.309C566.114 244.339 563.175 245.975 560.539 245.854C559.671 245.855 558.822 246.107 558.094 246.581C557.018 247.231 556.064 248.065 555.277 249.045C552.762 252.075 549.823 253.722 547.136 253.58C546.271 253.591 545.427 253.846 544.702 254.318C542.749 255.548 541.175 257.296 540.157 259.368C540.033 259.604 539.842 259.8 539.609 259.93C539.376 260.061 539.111 260.122 538.844 260.105Z" fill="#7DC3EA"/>
<path d="M458.356 312.777C458.307 313.693 458.043 314.585 457.585 315.38C457.127 316.175 456.488 316.851 455.72 317.353C454.255 318.191 453.074 317.514 453.074 315.827C453.122 314.911 453.387 314.02 453.847 313.226C454.307 312.433 454.949 311.76 455.72 311.262C457.174 310.414 458.356 311.08 458.356 312.777Z" fill="#572BD6"/>
<path d="M466.9 307.849C466.85 308.764 466.585 309.653 466.127 310.446C465.669 311.239 465.031 311.914 464.264 312.415C462.81 313.253 461.628 312.576 461.628 310.889C461.678 309.975 461.943 309.085 462.401 308.292C462.859 307.499 463.497 306.825 464.264 306.324C465.718 305.486 466.9 306.163 466.9 307.849Z" fill="#572BD6"/>
<path d="M475.455 302.908C475.404 303.822 475.139 304.712 474.681 305.505C474.223 306.298 473.585 306.972 472.819 307.473C471.354 308.321 470.183 307.635 470.183 305.948C470.231 305.033 470.495 304.143 470.953 303.349C471.411 302.556 472.05 301.882 472.819 301.383C474.273 300.545 475.455 301.221 475.455 302.908Z" fill="#572BD6"/>
<path d="M484.009 297.948C483.961 298.864 483.696 299.756 483.236 300.549C482.776 301.343 482.134 302.016 481.363 302.514C479.909 303.362 478.727 302.675 478.727 300.999C478.777 300.083 479.041 299.191 479.499 298.396C479.957 297.602 480.596 296.926 481.363 296.423C482.828 295.605 484.009 296.292 484.009 297.948Z" fill="#572BD6"/>
<path d="M437.521 89.3454C437.475 90.2649 437.212 91.1604 436.752 91.9578C436.291 92.7552 435.648 93.4315 434.874 93.9308C433.42 94.7792 432.238 94.0924 432.238 92.4158C432.293 91.5051 432.559 90.6198 433.017 89.8306C433.475 89.0414 434.111 88.3702 434.874 87.8708C436.339 86.982 437.521 87.6688 437.521 89.3454Z" fill="#72F7FF"/>
<path d="M444.792 85.1423C444.743 86.0571 444.478 86.9474 444.02 87.7407C443.562 88.534 442.923 89.2079 442.156 89.7075C440.701 90.5559 439.52 89.8691 439.52 88.1925C439.569 87.2766 439.834 86.3852 440.292 85.5904C440.75 84.7956 441.388 84.1197 442.156 83.6172C443.61 82.8193 444.792 83.4657 444.792 85.1423Z" fill="#72F7FF"/>
<path d="M437.521 80.9413C437.471 81.8583 437.205 82.7506 436.745 83.5456C436.285 84.3405 435.644 85.0158 434.874 85.5166C433.42 86.3549 432.238 85.6681 432.238 83.9915C432.288 83.0755 432.553 82.1842 433.011 81.3894C433.468 80.5946 434.107 79.9186 434.874 79.4162C436.339 78.5779 437.521 79.2647 437.521 80.9413Z" fill="#72F7FF"/>
<path d="M444.792 76.7585C444.742 77.6744 444.477 78.5658 444.019 79.3606C443.561 80.1554 442.923 80.8313 442.156 81.3338C440.701 82.1721 439.52 81.4853 439.52 79.8087C439.569 78.8927 439.834 78.0014 440.292 77.2066C440.75 76.4118 441.388 75.7358 442.156 75.2334C443.61 74.3749 444.792 75.0617 444.792 76.7585Z" fill="#72F7FF"/>
<path d="M277.173 186.336L271.891 189.387V183.296L277.173 180.246V186.336Z" fill="#72F7FF"/>
<path d="M285.718 181.405L280.445 184.445V178.355L285.718 175.305V181.405Z" fill="#72F7FF"/>
<path d="M294.271 176.465L288.999 179.505V173.415L294.271 170.375V176.465Z" fill="#72F7FF"/>
<path d="M302.826 171.528L297.543 174.578V168.478L302.826 165.438V171.528Z" fill="#72F7FF"/>
<path d="M402.522 343.786L397.25 346.836V340.746L402.522 337.695V343.786Z" fill="#572BD6"/>
<path d="M409.846 339.501L404.574 342.551V336.46L409.846 333.41V339.501Z" fill="#572BD6"/>
<path d="M402.571 351.692L397.289 354.732V348.642L402.571 345.602V351.692Z" fill="#572BD6"/>
<path d="M409.846 347.489L404.574 350.529V344.439L409.846 341.398V347.489Z" fill="#572BD6"/>
<path d="M525.401 67.4771C524.426 68.071 523.556 68.8218 522.826 69.6991C522.704 64.6491 519.058 62.6291 514.574 65.1743C513.054 66.0982 511.71 67.2849 510.604 68.679C508.584 65.1844 504.464 64.3764 499.666 67.1438C492.919 71.0424 487.445 80.5162 487.445 88.3538C487.448 88.9617 487.489 89.5688 487.566 90.1718C486.379 89.9424 485.149 90.1891 484.142 90.8586C482.447 91.968 481.036 93.4597 480.022 95.2139C479.008 96.9681 478.42 98.9357 478.305 100.959C478.305 104.685 480.921 106.2 484.142 104.332L525.401 80.4657C527.042 79.3966 528.408 77.9544 529.385 76.2571C530.363 74.5597 530.925 72.6552 531.027 70.699C531.027 67.1438 528.512 65.649 525.401 67.4771Z" fill="#72F7FF"/>
<path opacity="0.4" d="M283.04 314.464C282.006 315.086 281.084 315.878 280.313 316.807C280.182 311.424 276.324 309.272 271.567 312.019C269.963 312.986 268.54 314.227 267.365 315.686C265.254 311.989 260.871 311.131 255.791 314.06C248.64 318.191 242.853 328.2 242.853 336.472C242.856 337.116 242.896 337.76 242.974 338.401C241.72 338.162 240.422 338.423 239.358 339.128C237.563 340.308 236.071 341.893 235.002 343.757C233.933 345.62 233.319 347.709 233.207 349.854C233.207 353.803 235.974 355.399 239.398 353.429L283.081 328.179C284.815 327.053 286.259 325.533 287.295 323.742C288.33 321.952 288.928 319.943 289.04 317.877C288.999 314.11 286.333 312.565 283.04 314.464Z" fill="#72F7FF"/>
<path d="M348.7 169.093L409.391 134.056C415.956 130.258 415.138 123.633 407.552 119.26C399.967 114.876 388.484 114.401 381.919 118.189L321.228 153.236C314.663 157.023 315.481 163.649 323.066 168.032C330.661 172.406 342.135 172.891 348.7 169.093Z" fill="#7DC3EA"/>
<path d="M337.539 162.448C332.221 162.474 326.984 161.139 322.328 158.57C317.864 155.994 315.309 152.51 315.309 148.914C315.309 145.884 317.147 143.127 320.49 141.198L381.171 106.161C388.241 102.121 400.179 102.535 408.289 107.171C412.753 109.746 415.309 113.231 415.309 116.827C415.309 119.857 413.47 122.614 410.127 124.543L349.447 159.58C345.79 161.543 341.688 162.531 337.539 162.448ZM393.089 106.383C389.474 106.271 385.891 107.092 382.686 108.767L321.995 143.804C319.581 145.198 318.298 146.975 318.298 148.945C318.298 151.409 320.318 153.995 323.833 156.015C330.994 160.156 341.831 160.63 347.982 157.075L408.663 122.038C411.077 120.644 412.359 118.867 412.359 116.897C412.359 114.423 410.339 111.847 406.825 109.827C402.6 107.526 397.859 106.341 393.048 106.383H393.089Z" fill="#72F7FF"/>
<path d="M382.058 115.201V110.797L387.27 84.537L382.129 81.3555L371.827 87.0418L371.746 120.857C371.746 123.129 372.594 124.664 373.907 125.169L378.493 128.048L379.069 125.876L379.846 121.907C381.214 119.931 381.982 117.602 382.058 115.201Z" fill="#5793CE"/>
<path d="M382.04 127.976C379.192 129.552 376.9 127.794 376.91 124.057L376.98 90.2527L387.282 84.5664L387.212 118.371C387.202 122.108 384.889 126.411 382.04 127.976Z" fill="#5793CE"/>
<path d="M409.845 66.3586C409.845 57.7837 403.785 47.3504 396.392 43.0579C392.544 40.8359 389.079 40.7046 386.625 42.2701L345.831 65.8233L366.879 97.4464L405.855 75.1052L405.956 75.0446H406.037C408.39 73.5498 409.845 70.5703 409.845 66.3586Z" fill="url(#paint2_linear_1187_56349)"/>
<path d="M357.649 111.667C357.649 94.7394 345.761 74.1556 331.096 65.6817C323.783 61.4599 317.158 61.0559 312.36 63.8031L307.947 66.3887L309.462 66.0756C306.371 69.2975 304.543 74.3879 304.543 81.0135C304.543 97.9411 316.431 118.535 331.096 126.999C336.853 130.322 342.206 131.281 346.529 130.201L345.832 131.211L349.872 128.867H349.942L350.084 128.776C354.75 125.928 357.649 120.03 357.649 111.667Z" fill="#D4ECFF"/>
<path d="M354.538 113.485C354.538 96.5471 342.65 75.9633 327.985 67.4995C320.774 63.3282 314.229 62.8838 309.452 65.4795L308.785 65.8734C308.553 66.0148 308.33 66.1663 308.108 66.3279L309.462 66.0451C306.371 69.267 304.543 74.3574 304.543 80.983C304.543 97.9106 316.431 118.504 331.096 126.968C336.853 130.291 342.206 131.251 346.529 130.17L345.892 131.089C351.205 128.584 354.538 122.443 354.538 113.485Z" fill="white"/>
<path d="M390.635 77.8193C390.635 68.9919 384.444 58.2657 376.798 53.852C373.324 51.832 370.152 51.4886 367.708 52.5289H367.658H367.597L367.284 52.6804C352.841 59.8093 336.848 63.2251 320.753 62.6188L316.188 62.4471L353.316 126.077L355.336 122.189C362.665 108.019 373.378 95.8767 386.524 86.8386C389.06 85.3842 390.635 82.2734 390.635 77.8193Z" fill="url(#paint3_linear_1187_56349)"/>
<path d="M345.883 131.187C356.25 125.202 356.249 105.793 345.883 87.8375C335.516 69.8816 318.708 60.1774 308.341 66.1627C297.974 72.148 297.974 91.5562 308.341 109.512C318.708 127.468 335.516 137.172 345.883 131.187Z" fill="#5793CE"/>
<path d="M343.579 127.198C352.675 121.946 352.676 104.918 343.581 89.1654C334.486 73.4123 319.739 64.8992 310.643 70.151C301.546 75.4028 301.545 92.4306 310.64 108.184C319.735 123.937 334.482 132.45 343.579 127.198Z" fill="#173D7A"/>
<path d="M316.613 93.9442L337.576 80.7148C342.168 87.6033 346.055 94.9366 349.179 102.604L349.23 102.728L323.017 105.377L316.613 93.9442Z" fill="#D4ECFF"/>
<path d="M324.751 102.195C324.751 105.164 322.661 106.366 320.095 104.881C318.74 103.995 317.612 102.801 316.805 101.397C315.998 99.9934 315.533 98.4187 315.449 96.8013C315.449 93.842 317.53 92.6401 320.095 94.1248C321.452 95.0084 322.581 96.1998 323.39 97.6021C324.199 99.0044 324.665 100.578 324.751 102.195Z" fill="#5793CE"/>
<path d="M328.195 125.098C315.328 117.675 304.915 99.6056 304.915 84.7586C304.915 76.9513 307.783 71.6286 312.379 69.3359C307.157 71.2448 303.824 76.82 303.824 85.2232C303.824 100.08 314.247 118.139 327.115 125.563C333.175 129.088 338.78 129.603 342.941 127.583C338.912 129.017 333.781 128.33 328.195 125.098Z" fill="white"/>
<path d="M374.426 115.492L374.234 115.381C373.863 115.114 373.559 114.764 373.347 114.359C373.135 113.954 373.02 113.505 373.012 113.048V106.533C373.012 105.634 373.557 105.22 374.234 105.604L374.416 105.705C374.788 105.977 375.091 106.332 375.299 106.743C375.508 107.154 375.617 107.608 375.618 108.068V114.593C375.618 115.462 375.102 115.876 374.426 115.492Z" fill="white"/>
<path d="M424.602 225.846C443.768 225.846 459.306 216.875 459.306 205.808C459.306 194.741 443.768 185.77 424.602 185.77C405.436 185.77 389.898 194.741 389.898 205.808C389.898 216.875 405.436 225.846 424.602 225.846Z" fill="#092E63"/>
<path d="M467.748 178.618V166.498H465.506C462.961 162.422 459.392 159.086 455.154 156.822C438.307 147.085 410.986 147.085 394.14 156.822C389.869 159.079 386.268 162.419 383.696 166.508H381.414V178.557C381.414 184.95 385.585 191.354 394.039 196.232C410.895 205.968 438.206 205.968 455.063 196.232C463.537 191.374 467.748 185.001 467.748 178.618Z" fill="#572BD6"/>
<path d="M455.103 156.834C446.68 151.965 435.64 149.531 424.601 149.531V203.536C435.64 203.536 446.68 201.102 455.113 196.244C463.547 191.386 467.748 185.002 467.748 178.619V166.499H465.506C462.946 162.421 459.358 159.088 455.103 156.834Z" fill="#230088"/>
<path d="M424.6 191.415C448.43 191.415 467.748 180.264 467.748 166.508C467.748 152.753 448.43 141.602 424.6 141.602C400.771 141.602 381.453 152.753 381.453 166.508C381.453 180.264 400.771 191.415 424.6 191.415Z" fill="url(#paint4_linear_1187_56349)"/>
<path d="M455.114 184.123C438.258 193.85 410.947 193.85 394.09 184.123C386.01 179.457 381.859 173.407 381.526 167.297C381.162 173.943 385.323 180.639 394.09 185.709C410.947 195.435 438.258 195.435 455.114 185.709C463.881 180.659 468.042 173.943 467.679 167.307C467.346 173.407 463.184 179.457 455.114 184.123Z" fill="white"/>
<path d="M407.402 167.599L424.289 157.842C426.198 156.741 429.46 157.226 430.228 158.721L437.298 172.568C438.096 174.133 435.581 175.598 432.874 175.123L408.947 171.023C406.321 170.588 405.493 168.669 407.402 167.599Z" fill="white"/>
<path d="M417.844 243.934L348.962 204.17L350.79 203.109L419.672 242.883L417.844 243.934Z" fill="#79B1E0"/>
<path d="M371.181 218.15L347.961 204.747L351.789 202.535L374.999 215.938L371.181 218.15Z" fill="#D4ECFF"/>
<path d="M370.274 218.875L369.294 218.33L375.293 214.855L376.273 215.411L370.274 218.875Z" fill="white"/>
<path d="M193.505 315.321C193.283 315.321 193.064 315.265 192.869 315.159C192.707 315.075 192.564 314.96 192.448 314.82C192.331 314.681 192.243 314.52 192.188 314.346C192.134 314.173 192.114 313.99 192.131 313.809C192.147 313.628 192.198 313.452 192.283 313.29C193.561 310.739 195.518 308.59 197.939 307.079C199.126 306.346 200.504 305.98 201.898 306.029C203.686 306.13 205.938 304.766 207.837 302.433C208.842 301.191 210.059 300.138 211.432 299.322C212.62 298.567 214.005 298.184 215.412 298.221C217.24 298.302 219.452 296.969 221.361 294.626C222.366 293.384 223.583 292.331 224.956 291.515C226.145 290.764 227.53 290.381 228.936 290.414C230.733 290.495 232.976 289.162 234.885 286.828C235.882 285.577 237.101 284.519 238.48 283.708C239.306 283.148 240.253 282.792 241.243 282.669C242.234 282.546 243.239 282.66 244.177 283.001C244.513 283.148 244.777 283.423 244.91 283.765C245.044 284.107 245.036 284.487 244.889 284.824C244.741 285.16 244.466 285.424 244.125 285.557C243.783 285.691 243.402 285.683 243.066 285.536C242.524 285.381 241.954 285.352 241.4 285.45C240.845 285.548 240.32 285.771 239.864 286.101C238.774 286.761 237.807 287.605 237.006 288.596C234.481 291.626 231.521 293.313 228.804 293.171C227.931 293.187 227.079 293.442 226.34 293.909C225.253 294.565 224.29 295.406 223.492 296.393C220.957 299.423 217.997 301.13 215.281 300.979C214.407 300.996 213.555 301.251 212.816 301.716C211.729 302.372 210.765 303.213 209.968 304.2C207.443 307.23 204.474 308.927 201.757 308.786C200.883 308.8 200.03 309.055 199.292 309.523C197.338 310.761 195.756 312.506 194.717 314.573C194.6 314.794 194.426 314.98 194.213 315.112C194 315.243 193.755 315.315 193.505 315.321Z" fill="#572BD6"/>
<path d="M542.721 131.301C541.698 131.312 540.69 131.05 539.802 130.543C537.782 129.352 536.59 126.948 536.59 123.766C536.59 117.706 540.721 110.545 545.983 107.505C548.74 105.91 551.386 105.697 553.457 106.889C555.527 108.081 556.659 110.485 556.659 113.666C556.659 119.726 552.538 126.887 547.276 129.927C545.905 130.778 544.333 131.252 542.721 131.301ZM550.528 108.707C549.375 108.757 548.254 109.105 547.276 109.717C542.801 112.303 539.196 118.595 539.196 123.756C539.196 125.978 539.882 127.594 541.115 128.301C542.347 129.008 544.094 128.796 546.013 127.685C550.477 125.11 554.093 118.817 554.093 113.656C554.093 111.434 553.416 109.818 552.174 109.111C551.678 108.811 551.108 108.654 550.528 108.657V108.707Z" fill="#72F7FF"/>
<defs>
<linearGradient id="paint0_linear_1187_56349" x1="368.134" y1="215.422" x2="579.577" y2="215.422" gradientUnits="userSpaceOnUse">
<stop stop-color="#86B8E0"/>
<stop offset="0.12" stop-color="#98C4E7"/>
<stop offset="0.33" stop-color="#B2D6F2"/>
<stop offset="0.54" stop-color="#C5E2F9"/>
<stop offset="0.76" stop-color="#D0EAFE"/>
<stop offset="1" stop-color="#D4ECFF"/>
</linearGradient>
<radialGradient id="paint1_radial_1187_56349" cx="0" cy="0" r="1" gradientUnits="userSpaceOnUse" gradientTransform="translate(558.93 174.154) scale(205.959 205.959)">
<stop stop-color="#173D7A"/>
<stop offset="0.42" stop-color="#153B76"/>
<stop offset="0.82" stop-color="#0E336B"/>
<stop offset="1" stop-color="#092E63"/>
</radialGradient>
<linearGradient id="paint2_linear_1187_56349" x1="369.394" y1="52.8347" x2="395.624" y2="87.1141" gradientUnits="userSpaceOnUse">
<stop stop-color="#AA92F0"/>
<stop offset="1" stop-color="#CD98F8"/>
</linearGradient>
<linearGradient id="paint3_linear_1187_56349" x1="314.077" y1="64.6085" x2="382.101" y2="98.3931" gradientUnits="userSpaceOnUse">
<stop stop-color="#D4ECFF"/>
<stop offset="0.24" stop-color="#D0EAFE"/>
<stop offset="0.46" stop-color="#C5E2F9"/>
<stop offset="0.67" stop-color="#B2D6F2"/>
<stop offset="0.88" stop-color="#98C4E7"/>
<stop offset="1" stop-color="#86B8E0"/>
</linearGradient>
<linearGradient id="paint4_linear_1187_56349" x1="32895.5" y1="8353.81" x2="40268.5" y2="8353.81" gradientUnits="userSpaceOnUse">
<stop stop-color="#B49AFE"/>
<stop offset="0.31" stop-color="#FB289B"/>
<stop offset="0.6" stop-color="#F01D97"/>
<stop offset="0.88" stop-color="#DD0A91"/>
<stop offset="1" stop-color="#D3008D"/>
</linearGradient>
</defs>
</svg>
