<svg width="309" height="230" viewBox="0 0 309 230" fill="none" xmlns="http://www.w3.org/2000/svg">
<g filter="url(#filter0_d_6240_5864)">
<path d="M216.328 143.879L134.105 191.292L56.2082 146.372L138.992 99.3789L216.328 143.879Z" fill="#EFEFEF"/>
<path style="mix-blend-mode:multiply" d="M135.36 157.391C140.627 160.457 156.934 168.831 165.037 173.451C158.903 177.171 151.287 181.397 150.592 181.804L122.704 164.017C124.126 163.271 128.799 160.631 135.36 157.391Z" fill="url(#paint0_linear_6240_5864)"/>
<path style="mix-blend-mode:multiply" d="M80.739 133.742C90.5713 139.469 97.6 143.316 112.726 151.942C101.278 158.889 92.4069 165.276 91.1186 166.036L57.1295 146.109C59.7661 144.722 68.497 139.789 80.739 133.742Z" fill="url(#paint1_linear_6240_5864)"/>
<path d="M233.863 72.1705L145.947 26.2305L137.977 90.2571L224.351 137.81L233.863 72.1705Z" fill="#40006B"/>
<path d="M210.467 119.198L215.146 86.1242L211.075 84.3242L206.476 117.051L210.467 119.198Z" fill="white"/>
<path d="M203.665 88.6914L200.208 113.578L204.213 115.711L207.684 90.8381C206.295 90.1714 204.987 89.3781 203.665 88.6914Z" fill="#5ED18D"/>
<path d="M184.929 103.912L189.354 71.2791L185.249 69.5391L180.904 101.826L184.929 103.912Z" fill="white"/>
<path d="M177.839 73.8906L174.575 98.444L178.58 100.517L181.864 76.004C180.463 75.324 179.174 74.564 177.839 73.8906Z" fill="#5ED18D"/>
<path d="M162.013 90.7431L166.205 58.5031L162.067 56.8164L157.955 88.7097L162.013 90.7431Z" fill="white"/>
<path d="M154.665 61.1719L151.574 85.4252L155.639 87.4252L158.75 63.2052C157.342 62.5652 156.013 61.8252 154.665 61.1719Z" fill="#5ED18D"/>
<path d="M209.62 123.41C206.206 121.521 202.791 119.639 199.373 117.764C198.846 117.477 199.467 116.644 199.994 116.93C203.416 118.806 206.834 120.688 210.247 122.577C210.774 122.87 210.147 123.704 209.62 123.41V123.41Z" fill="#F2F2F2"/>
<path d="M183.594 107.172C180.149 105.341 176.701 103.515 173.247 101.692C172.713 101.412 173.334 100.586 173.868 100.866C177.321 102.683 180.77 104.508 184.215 106.339C184.749 106.626 184.128 107.452 183.594 107.166V107.172Z" fill="#F2F2F2"/>
<path d="M160.518 94.8373C157.047 93.0595 153.572 91.2817 150.092 89.5039C149.551 89.2306 150.172 88.4106 150.706 88.6839C154.186 90.4617 157.661 92.2395 161.132 94.0173C161.666 94.2906 161.052 95.1173 160.518 94.8373V94.8373Z" fill="#F2F2F2"/>
<path d="M200.83 63.5821L193.814 114.742C193.774 115.035 193.3 115.035 193.34 114.742L200.349 63.5954C200.389 63.3088 200.87 63.2888 200.83 63.5821Z" fill="#F2F2F2"/>
<path d="M173.648 48.9036L167.026 99.3436C166.986 99.6302 166.512 99.6369 166.546 99.3436L173.16 48.9102C173.201 48.6436 173.681 48.6169 173.648 48.9036Z" fill="#F2F2F2"/>
<path d="M230.513 73.6771L147.849 30.3438L140.173 88.6437L221.889 133.45L230.513 73.6771Z" stroke="#F2F2F2" stroke-miterlimit="10"/>
<path d="M57.1226 146.116L78.5827 133.742L90.2773 140.369L68.6103 152.896L57.1226 146.116Z" fill="#FFB164"/>
<path d="M79.6709 141.164V143.644L69.3914 149.431L63.7377 146.097V143.924" fill="#DBDBDB"/>
<path d="M63.7377 143.924L74.0505 137.984L79.6709 141.164L69.2579 147.184L63.7377 143.924Z" fill="#606060"/>
<path d="M78.3226 90.2099L90.2441 84.3633V140.47L78.3226 133.743V90.2099Z" fill="#E87F18"/>
<path d="M57.1226 107.951L78.5827 95.5781L90.2773 102.205L68.6103 114.731L57.1226 107.951Z" fill="#FFB164"/>
<path d="M71.5605 101.592L64.9723 97.7852L62.8497 98.9385L69.4379 103.158L71.5605 101.592Z" fill="#19847E"/>
<path d="M69.5322 102.624V110.964L62.8505 107.244V98.9375L69.5322 102.624Z" fill="#04AAA8"/>
<path d="M69.5313 102.623L71.5605 101.59V109.843L69.5313 110.963" fill="#2252A4"/>
<path d="M57.0894 90.1116L78.5495 77.7383L90.2441 84.3649L68.5704 96.8916L57.0894 90.1116Z" fill="#FFB164"/>
<path d="M57.0894 126.912L78.5495 114.539L90.2441 121.166L68.5704 133.692L57.0894 126.912Z" fill="#FFB164"/>
<path d="M68.5703 96.8894L57.0893 90.1094L57.1227 146.116L68.6104 152.896L68.5703 96.8894Z" fill="#FF9C28"/>
<path d="M88.4023 112.838L82.6085 109.484L80.7395 110.498L86.54 114.211L88.4023 112.838Z" fill="#19847E"/>
<path d="M86.6191 113.743V121.076L80.7385 117.803V110.496L86.6191 113.743Z" fill="#04AAA8"/>
<path d="M86.6201 113.743L88.4023 112.836V120.096L86.6201 121.076" fill="#2252A4"/>
<path d="M86.2119 113.252L79.6304 109.445L77.501 110.592L84.0959 114.812L86.2119 113.252Z" fill="#19847E"/>
<path d="M84.1826 114.283V122.623L77.5009 118.897V110.59L84.1826 114.283Z" fill="#04AAA8"/>
<path d="M84.1827 114.283L86.2119 113.25V121.503L84.1827 122.623" fill="#2252A4"/>
<path d="M128.779 151.012C128.779 151.012 127.57 157.598 128.538 158.265C128.538 158.265 134.766 155.785 135.767 158.165C136.555 160.045 132.096 162.072 129.76 162.885C127.424 163.698 122.965 165.058 122.084 163.198C121.202 161.338 124.28 147.398 124.28 147.398" fill="#352118"/>
<path d="M130.935 155.844C131.816 141.771 134.506 104.604 131.142 95.5909C126.903 84.2243 121.623 93.9309 121.236 99.0576C120.876 103.784 121.616 150.244 121.717 156.904C122.785 160.471 129.393 159.558 130.935 155.844Z" fill="#487A31"/>
<path d="M153.83 80.8644L157.481 65.1911L147.169 60.3711L142.102 76.3044L153.83 80.8644Z" fill="#352118"/>
<path d="M141.642 70.9087C141.642 70.9087 146.021 65.6887 147.022 66.6087C148.023 67.5287 145.487 69.8821 145.487 69.8821C145.568 70.3326 145.558 70.795 145.458 71.2417C145.357 71.6884 145.167 72.1102 144.899 72.4821C143.978 73.9354 142.636 74.6821 142.102 74.5154C141.568 74.3487 139.539 75.9021 139.539 75.9021L136.822 73.4154L141.642 70.9087Z" fill="#FFC799"/>
<path d="M142.642 75.3322C142.642 75.3322 143.436 71.5389 140.372 69.8789L133.337 72.6056L138.009 77.6722L142.642 75.3322Z" fill="#47BF78"/>
<path d="M150.379 79.5554C150.379 79.5554 151.494 77.3554 151.2 76.222C150.906 75.0887 149.485 73.4687 150.005 72.6487C150.526 71.8287 152.388 74.342 152.762 74.682C153.136 75.022 156.2 71.082 156.2 71.082C156.2 71.082 157.214 75.282 156.867 77.3887C156.52 79.4954 153.663 80.2954 152.622 82.3154" fill="#FFC799"/>
<path d="M139.419 155.719C139.419 155.719 138.211 162.305 139.179 162.972C139.179 162.972 145.407 160.492 146.408 162.872C147.196 164.752 142.737 166.779 140.4 167.592C138.064 168.405 133.605 169.765 132.724 167.905C131.843 166.045 134.92 152.105 134.92 152.105" fill="#352118"/>
<path d="M142.643 158.345C142.462 144.245 142.342 107.012 138.311 98.2522C133.224 87.2388 127.851 98.4122 127.851 103.585C127.851 108.325 131.736 155.452 132.336 162.085C135.914 163.785 141.381 162.172 142.643 158.345Z" fill="#487A31"/>
<path d="M138.412 98.7824C139.006 93.1091 140.574 76.1157 138.352 74.5091C134.293 71.5091 124.387 65.6891 122.332 71.2357C120.716 75.5357 121.11 88.4891 122.085 95.6091C126.85 98.4424 132.998 100.169 138.412 98.7824Z" fill="#5ED18D"/>
<path d="M132.403 66.4766C132.297 66.6366 132.403 70.9099 132.403 70.9099C132.403 70.9099 130.848 71.0232 127.891 68.9899L128.131 64.4766L132.403 66.4766Z" fill="#FFC799"/>
<path d="M134.953 58.0514C134.93 59.8997 135.046 61.7471 135.3 63.5781C135.848 66.1381 135.3 68.6514 132.817 69.4314C130.568 70.1381 126.236 64.7114 127.023 62.4047C127.811 60.0981 130.735 54.8381 134.953 58.0514Z" fill="#FFC799"/>
<path d="M123.972 56.7291C124.039 56.0467 124.278 55.3926 124.668 54.8282C125.058 54.2638 125.585 53.8078 126.2 53.5031C126.815 53.1983 127.497 53.0549 128.183 53.0863C128.869 53.1176 129.535 53.3228 130.119 53.6824C131.087 53.1688 132.216 53.0493 133.27 53.3491C133.815 53.5033 134.312 53.7935 134.714 54.1924C135.115 54.5912 135.409 55.0857 135.566 55.6291C135.586 55.7215 135.599 55.815 135.606 55.9091C135.962 56.482 136.106 57.1613 136.013 57.8291C135.946 58.3178 135.774 58.7862 135.509 59.2026C135.244 59.619 134.892 59.9737 134.478 60.2424C134.314 60.3688 134.137 60.4782 133.951 60.5691C133.566 60.7733 133.164 60.9428 132.749 61.0758C132.624 61.1154 132.494 61.14 132.362 61.1491C132.061 61.2334 131.802 61.4257 131.635 61.6891C131.582 61.8077 131.54 61.9303 131.508 62.0558C131.828 63.9358 132.249 66.6691 130.693 67.8958C129.485 68.8491 127.897 68.5024 126.655 67.6891L126.482 67.6091C126.139 67.4134 125.839 67.1504 125.6 66.8358C125.507 66.7358 125.42 66.6358 125.34 66.5291L125.3 66.4691C122.303 63.6024 119.593 58.5358 123.972 56.7291Z" fill="#352118"/>
<path d="M138.411 74.5117C138.411 74.5117 140.134 75.8917 141.702 79.7451C143.151 83.2984 146.582 82.8451 148.844 78.6451C149.006 78.3304 149.285 78.0926 149.622 77.9839C149.959 77.8751 150.325 77.9043 150.64 78.065C151.975 78.7784 153.978 80.0651 154.091 81.7184C154.258 84.1851 146.655 91.0517 141.669 91.8651C136.683 92.6784 132.871 84.8384 132.871 84.8384" fill="#5ED18D"/>
<path d="M70.8937 80.776C72.8695 80.6892 74.763 79.9613 76.2871 78.7027V84.4227C76.288 85.2044 76.1344 85.9787 75.835 86.701C75.5357 87.4233 75.0966 88.0795 74.5428 88.6319C73.989 89.1844 73.3315 89.6223 72.608 89.9204C71.8844 90.2186 71.1091 90.3711 70.3263 90.3694V90.3694C68.749 90.3694 67.2362 89.7435 66.1209 88.6296C65.0055 87.5156 64.3789 86.0048 64.3789 84.4294V78.6094C66.4282 79.436 68.731 80.9627 70.8937 80.776Z" fill="#40006B"/>
<path d="M70.3455 81.8168C67.0609 81.8168 64.3981 80.408 64.3981 78.6701C64.3981 76.9322 67.0609 75.5234 70.3455 75.5234C73.6302 75.5234 76.293 76.9322 76.293 78.6701C76.293 80.408 73.6302 81.8168 70.3455 81.8168Z" fill="#5ED18D"/>
<path d="M70.3253 79.2048C70.3253 79.2048 74.3704 78.6115 75.4384 72.0781C75.4584 72.0781 72.0141 73.9781 70.3253 79.2048Z" fill="#5ED18D"/>
<path d="M69.7516 78.3699C69.7516 78.3699 74.3908 70.0566 69.7516 64.4766C68.3366 68.9999 68.3366 73.8466 69.7516 78.3699V78.3699Z" fill="#5ED18D"/>
<path d="M70.3253 73.1423C70.3253 73.1423 74.3704 72.549 75.4384 66.0156C75.4584 66.0156 72.0141 67.9156 70.3253 73.1423Z" fill="#5ED18D"/>
<path d="M69.8583 75.8116C69.8583 75.8116 70.8729 71.8582 65.2525 68.3516C65.2458 68.3449 65.653 72.2582 69.8583 75.8116Z" fill="#5ED18D"/>
<path d="M70.3455 81.8168C67.0609 81.8168 64.3981 80.408 64.3981 78.6701C64.3981 76.9322 67.0609 75.5234 70.3455 75.5234C73.6302 75.5234 76.293 76.9322 76.293 78.6701C76.293 80.408 73.6302 81.8168 70.3455 81.8168Z" fill="#146666"/>
<path d="M70.3253 79.2048C70.3253 79.2048 74.3704 78.6115 75.4384 72.0781C75.4584 72.0781 72.0141 73.9781 70.3253 79.2048Z" fill="#5ED18D"/>
<path d="M69.7516 78.3699C69.7516 78.3699 74.3908 70.0566 69.7516 64.4766C68.3366 68.9999 68.3366 73.8466 69.7516 78.3699V78.3699Z" fill="#5ED18D"/>
<path d="M70.3253 73.1423C70.3253 73.1423 74.3704 72.549 75.4384 66.0156C75.4584 66.0156 72.0141 67.9156 70.3253 73.1423Z" fill="#5ED18D"/>
<path d="M69.8583 75.8116C69.8583 75.8116 70.8729 71.8582 65.2525 68.3516C65.2458 68.3449 65.653 72.2582 69.8583 75.8116Z" fill="#5ED18D"/>
</g>
<defs>
<filter id="filter0_d_6240_5864" x="0.90625" y="-19.1641" width="342" height="264" filterUnits="userSpaceOnUse" color-interpolation-filters="sRGB">
<feFlood flood-opacity="0" result="BackgroundImageFix"/>
<feColorMatrix in="SourceAlpha" type="matrix" values="0 0 0 0 0 0 0 0 0 0 0 0 0 0 0 0 0 0 127 0" result="hardAlpha"/>
<feOffset dx="43" dy="6"/>
<feGaussianBlur stdDeviation="16"/>
<feColorMatrix type="matrix" values="0 0 0 0 0 0 0 0 0 0 0 0 0 0 0 0 0 0 0.25 0"/>
<feBlend mode="normal" in2="BackgroundImageFix" result="effect1_dropShadow_6240_5864"/>
<feBlend mode="normal" in="SourceGraphic" in2="effect1_dropShadow_6240_5864" result="shape"/>
</filter>
<linearGradient id="paint0_linear_6240_5864" x1="126.789" y1="157.524" x2="151.108" y2="173.519" gradientUnits="userSpaceOnUse">
<stop stop-color="#808080"/>
<stop offset="1" stop-color="white"/>
</linearGradient>
<linearGradient id="paint1_linear_6240_5864" x1="-16005.7" y1="6717.06" x2="-14622.8" y2="8139.13" gradientUnits="userSpaceOnUse">
<stop stop-color="#808080"/>
<stop offset="1" stop-color="white"/>
</linearGradient>
</defs>
</svg>
