<svg width="100" height="102" viewBox="0 0 100 102" fill="none" xmlns="http://www.w3.org/2000/svg">
<g clip-path="url(#clip0_1197_47)">
<path d="M72.2882 39.3546C73.613 39.3546 74.872 38.8372 75.8327 37.8978C76.414 37.3295 76.429 36.3928 75.8663 35.806C75.3036 35.2189 74.3763 35.2035 73.7952 35.772C73.3837 36.1743 72.8485 36.396 72.2882 36.396H71.8616C71.3012 36.396 70.7661 36.1745 70.3546 35.772C69.7731 35.2035 68.846 35.2189 68.2835 35.806C67.7208 36.393 67.7358 37.3297 68.3171 37.8978C69.278 38.8372 70.5368 39.3546 71.8616 39.3546H72.2882Z" fill="#604CDA"/>
<path d="M42.8441 75.4714C43.2088 75.6769 43.6131 75.7793 44.017 75.7793C44.4553 75.7793 44.8932 75.6586 45.2793 75.4185L54.3762 69.7572C55.0924 69.3116 55.5199 68.5381 55.5199 67.6885C55.5199 66.8389 55.0924 66.0654 54.3762 65.6198L45.2791 59.9584C44.5377 59.497 43.6047 59.4769 42.8441 59.9056C42.0838 60.3344 41.6113 61.1473 41.6113 62.027V73.3496C41.6115 74.2294 42.0838 75.0423 42.8441 75.4714ZM44.541 62.9744L52.1158 67.6885L44.541 72.4025V62.9744Z" fill="#604CDA"/>
<path d="M60.8055 82.7001H46.7291C46.1193 80.9087 44.4355 79.6172 42.4578 79.6172C40.4799 79.6172 38.7961 80.9087 38.1861 82.7003H36.3182C35.5092 82.7003 34.8533 83.3629 34.8535 84.1799C34.8535 84.997 35.5094 85.6592 36.3184 85.6592H38.1863C38.7963 87.4504 40.4801 88.7413 42.4578 88.7413C44.4355 88.7413 46.1191 87.4502 46.7291 85.6592H60.8055C61.6142 85.6592 62.2703 84.997 62.2703 84.1799C62.2703 83.3629 61.6144 82.7001 60.8055 82.7001ZM42.4578 85.7821C41.5826 85.7821 40.8707 85.0631 40.8707 84.1792C40.8707 83.295 41.5826 82.5758 42.4578 82.5758C43.3328 82.5758 44.0447 83.295 44.0447 84.1792C44.0447 85.0631 43.3328 85.7821 42.4578 85.7821Z" fill="#604CDA"/>
<path d="M98.7512 72.5929V62.2258C98.7512 55.3343 93.2 49.7277 86.3768 49.7277H78.9006V44.493C82.2424 42.388 84.4721 38.6435 84.4721 34.381V33.2232H86.8123C90.1021 33.2232 92.7787 30.5199 92.7787 27.197C92.7787 25.6216 92.1764 24.1861 91.193 23.1112V18.001C91.193 13.5493 89.2406 9.36829 85.8367 6.52984C85.2129 6.00965 84.2896 6.09881 83.7746 6.72888C83.2596 7.35894 83.3479 8.29142 83.9717 8.81161C86.6992 11.0859 88.2635 14.4355 88.2635 18.001V21.3522C87.7986 21.2344 87.3127 21.1711 86.8123 21.1711H84.4328C84.0213 16.7101 80.2955 13.2063 75.773 13.2063H61.7363C60.6057 13.2063 59.6857 14.1354 59.6857 15.2774V21.1711H57.3449C56.8451 21.1711 56.36 21.2342 55.8957 21.3518V7.00801C55.8957 5.86722 56.4863 4.85683 57.4754 4.30547C58.4648 3.75352 59.627 3.78745 60.582 4.39483L61.4523 4.94974C62.6273 5.69737 63.9834 6.09269 65.3736 6.09269H76.4727C77.0854 6.09269 77.6953 6.13984 78.2859 6.23295C79.0855 6.35821 79.8342 5.80646 79.9588 4.99905C80.0836 4.19165 79.5367 3.43533 78.7373 3.30947C77.9978 3.19289 77.2359 3.13391 76.4727 3.13391H65.3736C64.5369 3.13391 63.7209 2.896 63.015 2.44703L62.1445 1.89192C60.2719 0.700833 57.9971 0.634551 56.0594 1.71517C54.1225 2.7952 52.9658 4.77397 52.9658 7.0082V23.1094C51.9813 24.1845 51.3781 25.6208 51.3781 27.1972C51.3781 30.5201 54.0547 33.2234 57.3445 33.2234H59.6854V34.3812C59.6854 38.6441 61.9156 42.3892 65.2582 44.494V46.5558H43.9785C44.5809 44.5155 44.9061 42.3535 44.9061 40.1147C44.9061 27.8065 35.1162 17.7929 23.083 17.7929C11.0498 17.7929 1.25977 27.8065 1.25977 40.1147C1.25977 52.4231 11.0496 62.4365 23.0828 62.4365C23.6195 62.4365 24.1516 62.4158 24.6785 62.3765V90.6088C24.6785 92.6884 26.3545 94.3803 28.4146 94.3803H39.5676V96.4648C39.5676 98.4647 41.1785 100.092 43.1586 100.092H47.8225C49.8025 100.092 51.4135 98.4647 51.4135 96.4648V94.3803H53.5734V100.47C53.5734 101.287 54.2293 101.949 55.0383 101.949H87.1285C87.9375 101.949 88.5934 101.287 88.5934 100.47V95.3587C88.5934 94.5417 87.9375 93.8793 87.1285 93.8793C86.3195 93.8793 85.6637 94.5417 85.6637 95.3587V98.9902H56.5033V94.3803H68.7098C70.7699 94.3803 72.4459 92.6884 72.4459 90.6088V82.1747H85.6641V88.4548C85.6641 89.2719 86.3199 89.9343 87.1289 89.9343C87.9379 89.9343 88.5938 89.2719 88.5938 88.4548V82.1745H91.2049C92.6354 82.1745 93.974 81.7705 95.115 81.0694C97.2934 79.7312 98.7514 77.3105 98.7514 74.5526V72.5929H98.7512ZM89.8492 27.1972C89.8492 28.8885 88.4869 30.2644 86.8123 30.2644H84.4721V24.1299H86.8123C88.4869 24.1299 89.8492 25.5058 89.8492 27.1972ZM57.3449 30.2644C55.6703 30.2644 54.308 28.8883 54.308 27.1972C54.308 25.506 55.6703 24.1299 57.3449 24.1299H59.6857V30.2644H57.3449ZM62.6152 34.381V31.7629C62.6152 31.7566 62.6162 31.7502 62.6162 31.7437C62.6162 31.7372 62.6154 31.7311 62.6152 31.7246V22.6693C62.6152 22.663 62.6162 22.6567 62.6162 22.6502C62.6162 22.6437 62.6154 22.6376 62.6152 22.6311V16.1647H75.773C78.9543 16.1647 81.5424 18.7787 81.5424 21.9917V34.3806C81.5424 39.3166 77.5664 43.3323 72.6793 43.3323H71.4781C66.5912 43.3327 62.6152 39.317 62.6152 34.381ZM68.1883 45.8163C69.2334 46.1236 70.3365 46.2915 71.4783 46.2915H72.6795C73.8219 46.2915 74.9256 46.1234 75.9711 45.8159V52.1696C75.9711 53.9251 74.557 55.3533 72.8189 55.3533H72.4459V50.3271C72.4459 48.2476 70.7697 46.5556 68.7098 46.5556H68.1883V45.8163ZM70.9924 79.2161C70.9885 79.2161 70.985 79.2155 70.9811 79.2155C70.9771 79.2155 70.9736 79.2161 70.9697 79.2161H69.2434C68.0547 79.2161 67.0875 78.2394 67.0875 77.0387V74.0742H72.1783V79.2159H70.9924V79.2161ZM68.7096 49.5146C69.1543 49.5146 69.5162 49.8792 69.5162 50.3273V53.3418C69.2561 53.2838 68.9867 53.2508 68.7096 53.2508H40.7154C41.5475 52.0856 42.2719 50.8351 42.8736 49.5148H68.7096V49.5146ZM4.18926 40.1147C4.18926 29.4379 12.6648 20.7517 23.0828 20.7517C33.5008 20.7517 41.9764 29.4379 41.9764 40.1147C41.9764 50.7915 33.5008 59.4777 23.0828 59.4777C12.6648 59.4777 4.18926 50.7915 4.18926 40.1147ZM48.4842 96.465C48.4842 96.8335 48.1875 97.1332 47.8227 97.1332H43.1588C42.7939 97.1332 42.4973 96.8335 42.4973 96.465V94.3805H48.484L48.4842 96.465ZM69.5164 90.609C69.5164 91.0572 69.1545 91.4217 68.7098 91.4217H28.4148C27.9701 91.4217 27.6082 91.0572 27.6082 90.609V61.9526C31.6619 61.0748 35.3037 59.0429 38.1883 56.2096H68.7096C69.1543 56.2096 69.5162 56.5742 69.5162 57.0223V71.1156H61.6125C60.8035 71.1156 60.1477 71.778 60.1477 72.5951C60.1477 73.4122 60.8035 74.0746 61.6125 74.0746H64.158V77.0391C64.158 79.8712 66.4393 82.1753 69.2434 82.1753H69.5164V90.609ZM95.3656 76.5725C94.6189 78.1351 93.0344 79.2157 91.2047 79.2157C90.3395 79.2157 75.9648 79.2161 75.1078 79.2161V74.0744H89.7273C90.5363 74.0744 91.1922 73.412 91.1922 72.5949C91.1922 71.7778 90.5363 71.1154 89.7273 71.1154H88.5941V61.7137C88.5941 60.8966 87.9383 60.2342 87.1293 60.2342C86.3203 60.2342 85.6645 60.8966 85.6645 61.7137V71.1154H72.4455V58.3121H72.8186C75.9996 58.3121 78.6162 55.8322 78.8772 52.6862H86.3766C91.5844 52.6862 95.8215 56.9655 95.8215 62.2256V74.5524C95.8217 74.9544 95.7838 75.7302 95.3656 76.5725Z" fill="#604CDA"/>
<path d="M38.1059 40.3063C38.9313 40.0546 39.4859 39.2987 39.4859 38.425C39.4859 37.5515 38.9314 36.7954 38.1059 36.5433L23.8078 32.1819C23.3369 32.0383 22.8387 32.0383 22.3676 32.1819L8.06934 36.5435C7.24395 36.7954 6.68945 37.5515 6.68945 38.425C6.68945 38.8351 6.81309 39.2186 7.02813 39.5368V44.4248C7.02813 45.2419 7.68398 45.9043 8.49297 45.9043C9.30195 45.9043 9.95781 45.2419 9.95781 44.4248V40.8823L12.1783 41.5595V48.3751C12.1783 49.5346 12.9506 50.547 14.0559 50.8365L22.2035 52.9747C22.4928 53.0508 22.7904 53.0887 23.0881 53.0887C23.3855 53.0887 23.6828 53.0508 23.9719 52.9747L32.1195 50.8367C33.2254 50.5468 33.9977 49.5346 33.9977 48.3751V41.5593L38.1059 40.3063ZM23.0877 35.0531L34.1412 38.4248L23.0877 41.7965L12.0342 38.4248L23.0877 35.0531ZM31.068 48.0557L23.2346 50.1114C23.1385 50.1366 23.0371 50.1364 22.9406 50.1114L15.1078 48.0559V42.4535L22.3676 44.668C22.6031 44.7398 22.8455 44.7758 23.0877 44.7758C23.3301 44.7758 23.5723 44.7398 23.8078 44.668L31.068 42.4533V48.0557Z" fill="#604CDA"/>
</g>
<defs>
<clipPath id="clip0_1197_47">
<rect width="100" height="101" fill="white" transform="translate(0 0.949219)"/>
</clipPath>
</defs>
</svg>
