<svg width="40" height="40" viewBox="0 0 40 40" fill="none" xmlns="http://www.w3.org/2000/svg">
<g clip-path="url(#clip0_6160_1521)">
<path d="M39.6441 9.16981C39.181 8.5024 38.2638 8.33638 37.5958 8.7997L33.0258 11.9707C32.6107 12.2586 32.3725 12.7392 32.3943 13.2437C32.4074 13.5463 32.4139 13.8301 32.4139 14.1111C32.4139 23.4527 25.3057 33.1149 13.4103 33.1149C10.9853 33.1149 8.60299 32.6534 6.37646 31.763L13.4291 29.7904C14.2119 29.5714 14.6689 28.7594 14.4499 27.9766C14.2309 27.194 13.4197 26.7368 12.6361 26.9558L1.98208 29.9358C1.42358 30.0921 1.00893 30.5617 0.922974 31.1353C0.837217 31.7087 1.09606 32.2793 1.5843 32.5923C5.12132 34.8599 9.21075 36.0587 13.4103 36.0587C21.6635 36.0587 26.8326 32.1594 29.716 28.8885C33.3013 24.8209 35.3575 19.4349 35.3575 14.1113C35.3575 14.053 35.3573 13.9947 35.3569 13.9363L39.274 11.2184C39.9416 10.7548 40.1074 9.83781 39.6441 9.16981Z" fill="white"/>
<path d="M4.15587 8.71136L18.9886 16.2303C19.199 16.337 19.427 16.3894 19.6539 16.3894C19.9769 16.3894 20.2979 16.2833 20.5623 16.0758C21.0122 15.723 21.2171 15.1415 21.0876 14.5844C20.9893 14.1617 20.9396 13.7217 20.9396 13.2771C20.9396 10.1209 23.5078 7.55316 26.6645 7.55316C28.2425 7.55316 29.7659 8.21194 30.8436 9.36072C31.2463 9.79009 31.8662 9.93786 32.4196 9.73691L36.9975 8.07359C37.7615 7.79591 38.1559 6.95169 37.8782 6.18773C37.6007 5.42357 36.7557 5.02972 35.9924 5.30701L32.2671 6.66047C30.7112 5.34723 28.7186 4.60938 26.6645 4.60938C22.1647 4.60938 18.4548 8.05553 18.0355 12.4468L5.48677 6.08588C4.76167 5.71813 3.87604 6.00817 3.50848 6.73308C3.14093 7.45818 3.43077 8.34381 4.15587 8.71136Z" fill="white"/>
<path d="M3.39694 17.5258L6.65609 18.4256C6.78717 18.4619 6.91885 18.479 7.04856 18.479C7.694 18.479 8.28624 18.051 8.46639 17.3985C8.68284 16.6151 8.22286 15.8044 7.43947 15.588L4.18033 14.6882C3.39734 14.4719 2.58628 14.9315 2.36983 15.7151C2.15357 16.4989 2.61336 17.3094 3.39694 17.5258Z" fill="white"/>
<path d="M6.25434 21.9055C5.44211 21.9363 4.80865 22.6196 4.83946 23.4319C4.86948 24.2253 5.52198 24.8479 6.30929 24.8479C6.32813 24.8479 6.34697 24.8475 6.36581 24.8469L9.61592 24.7237C10.4282 24.6929 11.0616 24.0096 11.031 23.1972C11.0002 22.3849 10.3151 21.7523 9.50465 21.7823L6.25434 21.9055Z" fill="white"/>
</g>
<defs>
<clipPath id="clip0_6160_1521">
<rect width="39" height="39" fill="white" transform="translate(0.90625 0.833984)"/>
</clipPath>
</defs>
</svg>
