<svg width="34" height="34" viewBox="0 0 34 34" fill="none" xmlns="http://www.w3.org/2000/svg">
<g clip-path="url(#clip0_6160_1527)">
<path d="M16.7464 8.30277C17.6016 8.30277 18.2949 7.60941 18.2949 6.75417C18.2949 5.19752 19.5615 3.93118 21.1179 3.93118H25.491C26.3462 3.93118 27.0396 3.23782 27.0396 2.38258C27.0396 1.52734 26.3462 0.833984 25.491 0.833984H21.1179C17.8535 0.833984 15.1978 3.48973 15.1978 6.75417C15.1978 7.6092 15.8911 8.30277 16.7464 8.30277Z" fill="white"/>
<path d="M25.159 13.1465H9.32155C8.46631 13.1465 7.77295 13.8398 7.77295 14.6951C7.77295 15.5503 8.46631 16.2437 9.32155 16.2437H15.198V32.2861C15.198 33.1414 15.8913 33.8347 16.7466 33.8347C17.6018 33.8347 18.2952 33.1414 18.2952 32.2861V16.2437H25.1592C26.0144 16.2437 26.7078 15.5503 26.7078 14.6951C26.7078 13.8398 26.0142 13.1465 25.159 13.1465Z" fill="white"/>
</g>
<defs>
<clipPath id="clip0_6160_1527">
<rect width="33" height="33" fill="white" transform="translate(0.90625 0.833984)"/>
</clipPath>
</defs>
</svg>
