<svg width="20" height="20" viewBox="0 0 20 20" fill="none" xmlns="http://www.w3.org/2000/svg">
<g clip-path="url(#clip0_6240_8132)">
<path d="M17.1238 13.1184C16.0891 12.0837 14.8575 11.3177 13.5138 10.8541C14.9529 9.86283 15.8984 8.20393 15.8984 6.32812C15.8984 3.29974 13.4346 0.835938 10.4062 0.835938C7.37787 0.835938 4.91406 3.29974 4.91406 6.32812C4.91406 8.20393 5.85957 9.86283 7.29878 10.8541C5.95505 11.3177 4.72347 12.0837 3.68875 13.1184C1.89444 14.9127 0.90625 17.2984 0.90625 19.8359H2.39062C2.39062 15.4161 5.98641 11.8203 10.4062 11.8203C14.8261 11.8203 18.4219 15.4161 18.4219 19.8359H19.9062C19.9062 17.2984 18.9181 14.9127 17.1238 13.1184ZM10.4062 10.3359C8.19635 10.3359 6.39844 8.53806 6.39844 6.32812C6.39844 4.11819 8.19635 2.32031 10.4062 2.32031C12.6161 2.32031 14.4141 4.11819 14.4141 6.32812C14.4141 8.53806 12.6161 10.3359 10.4062 10.3359Z" fill="#1D607A"/>
</g>
<defs>
<clipPath id="clip0_6240_8132">
<rect width="19" height="19" fill="white" transform="translate(0.90625 0.835938)"/>
</clipPath>
</defs>
</svg>
