<svg width="35" height="36" viewBox="0 0 35 36" fill="none" xmlns="http://www.w3.org/2000/svg">
<g clip-path="url(#clip0_6240_8116)">
<path d="M29.2396 18.3372C27.6813 18.3372 26.4062 17.0247 26.4062 15.4206C26.4062 13.8164 27.6813 12.5039 29.2396 12.5039C30.7979 12.5039 32.0729 13.8164 32.0729 15.4206C32.0729 17.0247 30.7979 18.3372 29.2396 18.3372ZM29.2396 13.9622C28.3896 13.9622 27.8229 14.5456 27.8229 15.4206C27.8229 16.2956 28.3896 16.8789 29.2396 16.8789C30.0896 16.8789 30.6563 16.2956 30.6563 15.4206C30.6563 14.5456 30.0896 13.9622 29.2396 13.9622Z" fill="#1D607A"/>
<path d="M34.1979 25.6263C33.7729 25.6263 33.4896 25.3346 33.4896 24.8971V23.4388C33.4896 22.2721 32.4979 21.2513 31.3646 21.2513H27.1146C26.6896 21.2513 26.4062 20.9596 26.4062 20.5221C26.4062 20.0846 26.6896 19.793 27.1146 19.793H31.3646C33.3479 19.793 34.9062 21.3971 34.9062 23.4388V24.8971C34.9062 25.3346 34.6229 25.6263 34.1979 25.6263Z" fill="#1D607A"/>
<path d="M6.57161 18.3372C5.01328 18.3372 3.73828 17.0247 3.73828 15.4206C3.73828 13.8164 5.01328 12.5039 6.57161 12.5039C8.12995 12.5039 9.40495 13.8164 9.40495 15.4206C9.40495 17.0247 8.12995 18.3372 6.57161 18.3372ZM6.57161 13.9622C5.72161 13.9622 5.15495 14.5456 5.15495 15.4206C5.15495 16.2956 5.72161 16.8789 6.57161 16.8789C7.42161 16.8789 7.98828 16.2956 7.98828 15.4206C7.98828 14.5456 7.42161 13.9622 6.57161 13.9622Z" fill="#1D607A"/>
<path d="M1.61458 25.6263C1.18958 25.6263 0.90625 25.3346 0.90625 24.8971V23.4388C0.90625 21.3971 2.46458 19.793 4.44792 19.793H8.69792C9.12292 19.793 9.40625 20.0846 9.40625 20.5221C9.40625 20.9596 9.12292 21.2513 8.69792 21.2513H4.44792C3.31458 21.2513 2.32292 22.2721 2.32292 23.4388V24.8971C2.32292 25.3346 2.03958 25.6263 1.61458 25.6263Z" fill="#1D607A"/>
<path d="M17.9062 19.0664C15.4979 19.0664 13.6562 17.1706 13.6562 14.6914C13.6562 12.2122 15.4979 10.3164 17.9062 10.3164C20.3146 10.3164 22.1562 12.2122 22.1562 14.6914C22.1562 17.1706 20.3146 19.0664 17.9062 19.0664ZM17.9062 11.7747C16.3479 11.7747 15.0729 13.0872 15.0729 14.6914C15.0729 16.2956 16.3479 17.6081 17.9062 17.6081C19.4646 17.6081 20.7396 16.2956 20.7396 14.6914C20.7396 13.0872 19.4646 11.7747 17.9062 11.7747Z" fill="#1D607A"/>
<path d="M24.9883 28.5456C24.5633 28.5456 24.28 28.2539 24.28 27.8164V24.8997C24.28 23.7331 23.2883 22.7122 22.1549 22.7122H13.6549C12.5216 22.7122 11.5299 23.7331 11.5299 24.8997V27.8164C11.5299 28.2539 11.2466 28.5456 10.8216 28.5456C10.3966 28.5456 10.1133 28.2539 10.1133 27.8164V24.8997C10.1133 22.8581 11.6716 21.2539 13.6549 21.2539H22.1549C24.1383 21.2539 25.6966 22.8581 25.6966 24.8997V27.8164C25.6966 28.2539 25.4133 28.5456 24.9883 28.5456Z" fill="#1D607A"/>
</g>
<defs>
<clipPath id="clip0_6240_8116">
<rect width="34" height="35" fill="white" transform="translate(0.90625 0.835938)"/>
</clipPath>
</defs>
</svg>
