<svg width="334" height="230" viewBox="0 0 334 230" fill="none" xmlns="http://www.w3.org/2000/svg">
<g filter="url(#filter0_d_6240_5931)">
<path d="M120.944 44.5625L14.9626 106.139C13.9391 106.742 13.0923 107.603 12.5071 108.635C11.9219 109.668 11.6189 110.836 11.6285 112.023C11.6381 113.21 11.96 114.373 12.5618 115.396C13.1637 116.419 14.0243 117.266 15.0575 117.852L144.792 190.364C146.36 191.24 148.123 191.708 149.919 191.723C151.716 191.739 153.487 191.301 155.07 190.452L254.75 136.907C256.017 136.22 257.079 135.208 257.825 133.976C258.572 132.744 258.977 131.336 258.999 129.896C259.021 128.456 258.659 127.036 257.951 125.782C257.242 124.527 256.212 123.484 254.967 122.758L120.944 44.5625Z" fill="#AAACF9"/>
<path opacity="0.32" d="M168.145 84.8711L208.531 109.996L200.184 119.631L156.289 92.5648C160.795 89.5063 164.216 88.6604 168.145 84.8711Z" fill="url(#paint0_linear_6240_5931)"/>
<path d="M163.609 87.5859L157.132 90.6986C156.889 90.8162 156.683 90.9977 156.535 91.2236C156.387 91.4494 156.303 91.7112 156.293 91.9809C156.282 92.2506 156.345 92.518 156.475 92.7546C156.605 92.9912 156.797 93.188 157.031 93.3241L172.383 102.276C172.717 102.478 173.117 102.541 173.498 102.451C173.878 102.361 174.207 102.126 174.415 101.796L178.148 96.0037" fill="#56403D"/>
<path d="M195.838 70.824L144.179 41.1048C143.823 40.8999 143.42 40.7924 143.01 40.793C142.6 40.7936 142.197 40.9024 141.842 41.1084C141.487 41.3143 141.193 41.6102 140.99 41.966C140.786 42.3219 140.68 42.7251 140.683 43.1348V74.0585C140.682 74.3986 140.772 74.7328 140.942 75.0274C141.112 75.322 141.357 75.5666 141.652 75.7366L196.705 107.459C196.895 107.57 197.111 107.629 197.332 107.63C197.552 107.63 197.768 107.573 197.959 107.463C198.15 107.353 198.308 107.194 198.417 107.003C198.527 106.812 198.583 106.596 198.582 106.376V75.5878C198.584 74.623 198.331 73.6749 197.849 72.8387C197.368 72.0024 196.674 71.3076 195.838 70.824V70.824Z" fill="#40006B"/>
<path d="M144.182 43.439L194.27 72.2244C194.805 72.5314 195.25 72.974 195.559 73.5074C195.868 74.0408 196.031 74.6463 196.031 75.2627V98.4452C196.031 98.6669 195.972 98.8846 195.861 99.0765C195.75 99.2685 195.591 99.4279 195.399 99.5389C195.207 99.6499 194.989 99.7086 194.767 99.709C194.545 99.7095 194.327 99.6517 194.134 99.5415L143.051 70.2621C142.86 70.1528 142.701 69.9952 142.59 69.8051C142.48 69.615 142.421 69.3992 142.421 69.1794V44.4608C142.421 44.2549 142.475 44.0527 142.578 43.8744C142.681 43.6961 142.829 43.5478 143.007 43.4444C143.186 43.341 143.388 43.2861 143.594 43.2852C143.8 43.2842 144.003 43.3373 144.182 43.439V43.439Z" fill="white"/>
<path d="M163.958 86.1347C163.828 85.4595 164.202 84.8199 164.793 84.7061C165.385 84.5923 165.97 85.0475 166.1 85.7227C166.23 86.3979 165.856 87.0375 165.265 87.1513C164.673 87.2651 164.088 86.81 163.958 86.1347Z" fill="#AB643C"/>
<path d="M192.231 73.5251C191.928 73.5251 191.683 73.2615 191.683 72.9364C191.683 72.6112 191.928 72.3477 192.231 72.3477C192.535 72.3477 192.78 72.6112 192.78 72.9364C192.78 73.2615 192.535 73.5251 192.231 73.5251Z" fill="#659FE4"/>
<path d="M190.491 72.6579C190.188 72.6579 189.942 72.3943 189.942 72.0692C189.942 71.744 190.188 71.4805 190.491 71.4805C190.794 71.4805 191.04 71.744 191.04 72.0692C191.04 72.3943 190.794 72.6579 190.491 72.6579Z" fill="#C5E9FF"/>
<path opacity="0.32" d="M120.254 54.6875L147.449 71.0019L134.191 78.8039L108.391 63.8225C112.931 60.7504 116.325 58.4768 120.254 54.6875Z" fill="url(#paint1_linear_6240_5931)"/>
<path opacity="0.32" d="M96.1011 105.984L129.387 122.055L92.1852 147.43L66.386 132.449C70.9252 129.377 92.1784 109.774 96.1011 105.984Z" fill="url(#paint2_linear_6240_5931)"/>
<path opacity="0.32" d="M166.121 128.883L205.328 153.513L154.319 185.912L120.824 163.785C125.363 160.713 162.198 132.672 166.121 128.883Z" fill="url(#paint3_linear_6240_5931)"/>
<path opacity="0.32" d="M210.579 128.469L237.773 144.783L224.515 152.585L198.736 137.604C203.255 134.532 206.649 132.258 210.579 128.469Z" fill="url(#paint4_linear_6240_5931)"/>
<path d="M225.238 132.537C225.069 132.808 211.932 140.156 211.932 140.156L202.84 135.061L198.721 132.666L203.789 129.729L211.973 124.992L225.238 132.537Z" fill="#967371"/>
<path d="M211.934 140.155V145.243L198.722 137.604V132.664L211.934 140.155Z" fill="#56403D"/>
<path d="M225.238 132.535V137.61L211.932 145.243V140.154L225.238 132.535Z" fill="#56403D"/>
<path d="M211.636 135.372C208.834 135.372 206.562 134.105 206.562 132.543C206.562 130.981 208.834 129.715 211.636 129.715C214.439 129.715 216.711 130.981 216.711 132.543C216.711 134.105 214.439 135.372 211.636 135.372Z" fill="#56403D"/>
<path d="M210.577 117.665C210.577 117.123 211.015 116.684 211.556 116.684C212.097 116.684 212.535 117.123 212.535 117.665V132.396C212.535 132.938 212.097 133.377 211.556 133.377C211.015 133.377 210.577 132.938 210.577 132.396V117.665Z" fill="#6D5351"/>
<path d="M211.554 121.001C208.627 121.001 206.255 118.632 206.255 115.71C206.255 112.787 208.627 110.418 211.554 110.418C214.48 110.418 216.852 112.787 216.852 115.71C216.852 118.632 214.48 121.001 211.554 121.001Z" fill="#ED1C24"/>
<path d="M211.392 110.395C210.702 111.035 210.149 111.808 209.766 112.667C209.383 113.527 209.178 114.455 209.163 115.395C209.09 116.613 209.455 117.818 210.193 118.791C210.931 119.764 211.993 120.441 213.188 120.7C212.466 120.936 211.703 121.014 210.948 120.928C210.194 120.843 209.467 120.597 208.817 120.207C208.166 119.816 207.608 119.29 207.179 118.665C206.749 118.04 206.46 117.33 206.33 116.583C206.2 115.836 206.232 115.07 206.425 114.337C206.617 113.604 206.965 112.921 207.445 112.334C207.925 111.747 208.526 111.27 209.207 110.935C209.888 110.6 210.634 110.416 211.392 110.395V110.395Z" fill="#E01B2A"/>
<path d="M213.871 112.952C214.404 113.402 214.812 113.979 215.059 114.631C215.305 115.282 215.382 115.985 215.28 116.674C215.754 115.685 215.837 114.554 215.511 113.507C214.996 111.667 213.871 112.952 213.871 112.952Z" fill="white"/>
<path d="M102.226 84.3787C109.841 82.2202 119.705 87.2952 126.385 90.3469C136.284 94.9922 145.892 100.23 155.159 106.032C162.916 110.769 168.302 115.607 170.213 124.891C170.545 129.025 170.721 133.16 170.213 134.364C169.169 137.071 139.122 163.745 124.102 165.207C109.082 166.668 129.651 130.196 127.815 127.279C125.979 124.363 109.522 115.194 106.995 116.026C104.468 116.859 70.4577 136.847 67.768 132.699C59.1706 119.383 86.7855 88.7432 102.226 84.3787Z" fill="#40006B"/>
<path d="M66.2979 124.639C66.2979 124.639 67.4632 130.83 72.8629 129.707C78.2626 128.584 102.402 109.373 106.948 110.463C111.494 111.552 129.387 122.054 129.387 122.054L127.774 129.152L105.485 117.838C105.485 117.838 79.7395 134.924 71.0472 134.349C62.3549 133.774 66.2979 124.639 66.2979 124.639Z" fill="#40006B"/>
<path d="M121.758 160.72C124.014 160.551 126.148 159.57 128.127 158.527C130.688 157.174 133.228 155.767 135.755 154.359C141.211 151.345 146.45 147.953 151.433 144.209C155.369 141.232 159.407 138.356 163.255 135.264C165.931 133.112 168.574 130.723 170.43 127.82C170.599 130.831 170.62 133.443 170.254 134.384C169.21 137.091 139.163 163.765 124.143 165.226C120.315 165.599 118.804 163.508 118.635 160.138C119.605 160.608 120.684 160.809 121.758 160.72Z" fill="#40006B"/>
<path opacity="0.52" d="M66.2979 124.639C66.2979 124.639 67.4632 130.83 72.8629 129.707C78.2626 128.584 102.402 109.373 106.948 110.463C111.494 111.552 129.387 122.054 129.387 122.054L127.774 129.152L105.485 117.838C105.485 117.838 79.7395 134.924 71.0472 134.349C62.3549 133.774 66.2979 124.639 66.2979 124.639Z" fill="#505A63"/>
<path opacity="0.52" d="M121.758 160.72C124.014 160.551 126.148 159.57 128.127 158.527C130.688 157.174 133.228 155.767 135.755 154.359C141.211 151.345 146.45 147.953 151.433 144.209C155.369 141.232 159.407 138.356 163.255 135.264C165.931 133.112 168.574 130.723 170.43 127.82C170.599 130.831 170.62 133.443 170.254 134.384C169.21 137.091 139.163 163.765 124.143 165.226C120.315 165.599 118.804 163.508 118.635 160.138C119.605 160.608 120.684 160.809 121.758 160.72Z" fill="#505A63"/>
<path d="M105.013 104.027C98.6823 104.027 93.55 100.31 93.55 95.7246C93.55 91.1391 98.6823 87.4219 105.013 87.4219C111.344 87.4219 116.477 91.1391 116.477 95.7246C116.477 100.31 111.344 104.027 105.013 104.027Z" fill="#505A63"/>
<path d="M149.489 131.096C142.668 131.096 137.138 127.094 137.138 122.158C137.138 117.221 142.668 113.219 149.489 113.219C156.31 113.219 161.84 117.221 161.84 122.158C161.84 127.094 156.31 131.096 149.489 131.096Z" fill="#505A63"/>
<path d="M129.388 117.529C126.114 117.529 123.46 116.039 123.46 114.2C123.46 112.362 126.114 110.871 129.388 110.871C132.662 110.871 135.316 112.362 135.316 114.2C135.316 116.039 132.662 117.529 129.388 117.529Z" fill="#757575"/>
<path d="M134.766 115.591C134.766 115.591 133.607 113.047 131.744 112.776C129.881 112.505 126.182 111.889 124.82 113.04C123.458 114.19 123.567 114.813 123.567 114.813C124.114 115.643 124.859 116.325 125.735 116.797C126.612 117.27 127.591 117.518 128.587 117.519C132.232 117.702 134.339 116.328 134.766 115.591Z" fill="#494949"/>
<path d="M129.171 116.021C127.09 116.021 125.404 114.767 125.404 113.219C125.404 111.672 127.09 110.418 129.171 110.418C131.251 110.418 132.938 111.672 132.938 113.219C132.938 114.767 131.251 116.021 129.171 116.021Z" fill="#090502"/>
<path d="M129.387 113.962C126.988 113.962 125.044 112.578 125.044 110.87C125.044 109.162 126.988 107.777 129.387 107.777C131.785 107.777 133.729 109.162 133.729 110.87C133.729 112.578 131.785 113.962 129.387 113.962Z" fill="#757575"/>
<path d="M133.696 111.01C133.588 112.654 131.664 113.96 129.36 113.96C127.057 113.96 125.018 112.607 125.018 110.868C125.023 110.638 125.064 110.409 125.139 110.191C127.07 112.506 130.79 112.174 133.696 111.01Z" fill="#494949"/>
<path d="M117.533 112.643C114.259 112.643 111.605 111.152 111.605 109.314C111.605 107.475 114.259 105.984 117.533 105.984C120.807 105.984 123.461 107.475 123.461 109.314C123.461 111.152 120.807 112.643 117.533 112.643Z" fill="#757575"/>
<path d="M122.911 110.716C122.911 110.716 121.753 108.172 119.889 107.901C118.026 107.63 114.327 107.014 112.965 108.165C111.604 109.315 111.712 109.938 111.712 109.938C112.26 110.768 113.005 111.45 113.881 111.922C114.757 112.395 115.737 112.643 116.732 112.644C120.377 112.82 122.484 111.447 122.911 110.716Z" fill="#494949"/>
<path d="M117.315 111.134C115.235 111.134 113.548 109.88 113.548 108.333C113.548 106.785 115.235 105.531 117.315 105.531C119.396 105.531 121.082 106.785 121.082 108.333C121.082 109.88 119.396 111.134 117.315 111.134Z" fill="#090502"/>
<path d="M117.532 109.075C115.134 109.075 113.189 107.691 113.189 105.983C113.189 104.275 115.134 102.891 117.532 102.891C119.931 102.891 121.875 104.275 121.875 105.983C121.875 107.691 119.931 109.075 117.532 109.075Z" fill="#757575"/>
<path d="M121.875 106.131C121.767 107.776 119.842 109.082 117.539 109.082C115.236 109.082 113.196 107.728 113.196 105.989C113.202 105.759 113.243 105.53 113.318 105.312C115.215 107.62 118.935 107.295 121.875 106.131Z" fill="#494949"/>
<path d="M141.919 105.224L137.515 102.646C137.272 102.5 136.993 102.422 136.709 102.422C136.424 102.422 136.146 102.5 135.902 102.646L135.841 102.68C135.614 102.823 135.428 103.023 135.3 103.259C135.173 103.495 135.109 103.76 135.114 104.029C135.12 104.297 135.195 104.559 135.331 104.79C135.468 105.021 135.663 105.213 135.896 105.346L140.36 107.891C140.607 108.03 140.886 108.1 141.169 108.093C141.452 108.086 141.727 108.002 141.966 107.85V107.85C142.185 107.705 142.363 107.508 142.485 107.276C142.607 107.045 142.669 106.786 142.664 106.524C142.659 106.262 142.588 106.006 142.458 105.779C142.328 105.552 142.142 105.361 141.919 105.224Z" fill="#505A63"/>
<path d="M130.946 98.7088L126.542 96.1307C126.299 95.9839 126.02 95.9062 125.736 95.9062C125.452 95.9062 125.173 95.9839 124.93 96.1307L124.869 96.1646C124.642 96.3076 124.455 96.507 124.328 96.7432C124.2 96.9795 124.136 97.2446 124.142 97.5129C124.147 97.7812 124.222 98.0435 124.359 98.2744C124.496 98.5053 124.69 98.6969 124.923 98.8307L129.388 101.375C129.634 101.514 129.913 101.584 130.196 101.577C130.479 101.57 130.755 101.486 130.993 101.334V101.334C131.212 101.19 131.391 100.993 131.512 100.761C131.634 100.529 131.696 100.27 131.691 100.009C131.686 99.7468 131.616 99.4905 131.485 99.2633C131.355 99.0361 131.17 98.8454 130.946 98.7088V98.7088Z" fill="#505A63"/>
<path d="M113.309 98.5146C113.051 98.5552 107.983 101.411 107.983 101.411L96.0256 94.1568L101.446 90.875L113.309 98.501" fill="#090502"/>
<path d="M112.734 94.3574L101.664 100.792C101.664 100.792 96.8606 97.7271 96.9893 97.5783C97.118 97.4294 107.829 91.4883 107.829 91.4883L112.734 94.3574Z" fill="#090502"/>
<path d="M112.734 93.2617V94.3579L111.068 94.0196L112.734 93.2617Z" fill="#090502"/>
<path d="M96.0278 93.0664V94.1694L97.3828 93.8919L96.0278 93.0664Z" fill="#090502"/>
<path d="M96.988 96.4766V97.5728L97.6993 98.0532L97.9297 97.2683L96.988 96.4766Z" fill="#090502"/>
<path d="M113.309 98.5209V97.418L111.764 97.6345L112.435 98.2367L113.309 98.5209Z" fill="#090502"/>
<path d="M113.309 97.418C113.051 97.4586 107.983 100.314 107.983 100.314L96.0256 93.067L101.446 89.7852L113.309 97.4112" fill="#757575"/>
<path d="M112.734 93.2636L101.664 99.6987C101.664 99.6987 96.8606 96.6334 96.9893 96.4845C97.118 96.3357 107.829 90.3945 107.829 90.3945L112.734 93.2636Z" fill="#757575"/>
<path d="M154.32 127.515C152.801 127.515 151.569 126.785 151.569 125.885C151.569 124.984 152.801 124.254 154.32 124.254C155.839 124.254 157.07 124.984 157.07 125.885C157.07 126.785 155.839 127.515 154.32 127.515Z" fill="#C6172B"/>
<path d="M157.07 125.885V123.902H151.569V125.885" fill="#C6172B"/>
<path d="M154.32 125.531C152.801 125.531 151.569 124.801 151.569 123.9C151.569 123 152.801 122.27 154.32 122.27C155.839 122.27 157.07 123 157.07 123.9C157.07 124.801 155.839 125.531 154.32 125.531Z" fill="#F62435"/>
<path d="M153.538 121.262C152.019 121.262 150.788 120.531 150.788 119.631C150.788 118.73 152.019 118 153.538 118C155.058 118 156.289 118.73 156.289 119.631C156.289 120.531 155.058 121.262 153.538 121.262Z" fill="#D38A09"/>
<path d="M156.289 119.631V117.648H150.788V119.631" fill="#D38A09"/>
<path d="M153.538 119.281C152.019 119.281 150.788 118.551 150.788 117.65C150.788 116.75 152.019 116.02 153.538 116.02C155.058 116.02 156.289 116.75 156.289 117.65C156.289 118.551 155.058 119.281 153.538 119.281Z" fill="#F4BD21"/>
<path d="M145.066 121.262C143.547 121.262 142.315 120.531 142.315 119.631C142.315 118.73 143.547 118 145.066 118C146.585 118 147.816 118.73 147.816 119.631C147.816 120.531 146.585 121.262 145.066 121.262Z" fill="#0071BC"/>
<path d="M147.816 119.631V117.648H142.315V119.631" fill="#0071BC"/>
<path d="M145.066 119.281C143.547 119.281 142.315 118.551 142.315 117.65C142.315 116.75 143.547 116.02 145.066 116.02C146.585 116.02 147.816 116.75 147.816 117.65C147.816 118.551 146.585 119.281 145.066 119.281Z" fill="#29ABE2"/>
<path d="M145.96 126.879C144.441 126.879 143.21 126.149 143.21 125.248C143.21 124.347 144.441 123.617 145.96 123.617C147.479 123.617 148.711 124.347 148.711 125.248C148.711 126.149 147.479 126.879 145.96 126.879Z" fill="#39B54A"/>
<path d="M148.711 125.247V123.258H143.21V125.247" fill="#39B54A"/>
<path d="M145.96 124.89C144.441 124.89 143.21 124.16 143.21 123.26C143.21 122.359 144.441 121.629 145.96 121.629C147.479 121.629 148.711 122.359 148.711 123.26C148.711 124.16 147.479 124.89 145.96 124.89Z" fill="#3AD84A"/>
<path d="M117.56 66.9129C111.525 66.9129 106.632 63.4714 106.632 59.226C106.632 54.9806 111.525 51.5391 117.56 51.5391C123.596 51.5391 128.488 54.9806 128.488 59.226C128.488 63.4714 123.596 66.9129 117.56 66.9129Z" fill="#40006B"/>
<path d="M117.55 58.0349C113.03 58.0349 109.366 56.5353 109.366 54.6854C109.366 52.8356 113.03 51.3359 117.55 51.3359C122.07 51.3359 125.734 52.8356 125.734 54.6854C125.734 56.5353 122.07 58.0349 117.55 58.0349Z" fill="#974C26"/>
<path d="M117.002 54.7689C116.324 53.8689 115.714 52.9216 115.037 51.8592C114.17 50.5059 113.357 49.1187 112.618 47.691C111.926 46.4221 111.335 45.1008 110.85 43.7392C110.311 42.263 109.879 40.7502 109.556 39.2123C109.475 38.8063 109.4 38.4003 109.332 37.9943C109.332 37.8049 109.298 37.8252 109.298 37.8522C109.298 37.8793 109.298 37.7237 109.298 37.5004C109.224 36.6748 109.17 35.8493 109.163 35.017C109.124 32.1494 109.678 29.3046 110.789 26.6602C113.744 30.9406 115.736 35.809 116.629 40.9311C116.688 41.2378 116.742 41.5446 116.792 41.8513C116.792 41.8513 116.873 42.413 116.907 42.6363L116.968 43.4077C117.008 43.7956 117.045 44.1858 117.076 44.5783C117.198 46.0805 117.252 47.5962 117.246 49.1052C117.246 50.9931 117.151 52.881 117.002 54.7689ZM113.519 32.2088C113.321 31.9833 113.117 31.7577 112.91 31.5322C112.966 31.723 112.98 31.924 112.95 32.1209C113.143 32.1208 113.335 32.1504 113.519 32.2088V32.2088Z" fill="#999A1C"/>
<path d="M116.801 54.9092C116.747 53.8062 116.719 52.6559 116.719 51.404C116.719 49.8003 116.794 48.1899 116.943 46.5929C117.056 45.1519 117.283 43.7219 117.621 42.3164C117.964 40.7839 118.417 39.2779 118.976 37.8098C119.125 37.4241 119.28 37.0452 119.443 36.6662C119.518 36.4903 119.504 36.5038 119.49 36.5309L119.66 36.2196C120.046 35.4888 120.446 34.758 120.886 34.0611C122.405 31.6286 124.409 29.5348 126.774 27.9102C126.944 33.1055 125.987 38.2763 123.969 43.0675C123.851 43.3562 123.732 43.6427 123.61 43.9269L123.284 44.6509L122.939 45.3276C122.763 45.6794 122.582 46.0268 122.397 46.3696C121.686 47.723 120.913 49.0019 120.093 50.2672C119.043 51.8574 117.946 53.4002 116.801 54.9092ZM126.083 34.0543C126.037 33.7566 125.983 33.4611 125.92 33.1679C125.864 33.358 125.767 33.5336 125.635 33.6821C125.8 33.7787 125.948 33.8996 126.076 34.0408L126.083 34.0543Z" fill="#999A1C"/>
<path d="M116.76 55.4771C117.085 54.8613 117.437 54.232 117.85 53.5554C118.372 52.6892 118.928 51.8434 119.524 51.0314C120.046 50.2878 120.626 49.5865 121.258 48.9337C121.941 48.2169 122.675 47.5498 123.453 46.9376L124.077 46.4707C124.171 46.403 124.158 46.403 124.144 46.4098L124.334 46.2947C124.781 46.0241 125.228 45.7602 125.689 45.5233C127.292 44.6936 129.05 44.203 130.852 44.082C129.263 46.9406 127.075 49.4221 124.436 51.3562L123.961 51.7013L123.555 51.9855L123.142 52.2494L122.512 52.6351C121.694 53.1223 120.858 53.5734 120.005 53.9884C118.941 54.5568 117.85 55.0373 116.76 55.4771ZM128.494 47.215C128.566 47.0391 128.632 46.8631 128.69 46.6872C128.599 46.7704 128.49 46.8328 128.372 46.8699C128.43 46.9779 128.471 47.0943 128.494 47.215V47.215Z" fill="#999A1C"/>
<path d="M117.002 54.7689C116.324 53.8689 115.714 52.9216 115.037 51.8592C114.17 50.5059 113.357 49.1187 112.618 47.691C111.926 46.4221 111.335 45.1008 110.85 43.7392C110.311 42.263 109.879 40.7502 109.556 39.2123C109.475 38.8063 109.4 38.4003 109.332 37.9943C109.332 37.8049 109.298 37.8252 109.298 37.8522C109.298 37.8793 109.298 37.7237 109.298 37.5004C109.224 36.6748 109.17 35.8493 109.163 35.017C109.124 32.1494 109.678 29.3046 110.789 26.6602C113.744 30.9406 115.736 35.809 116.629 40.9311C116.688 41.2378 116.742 41.5446 116.792 41.8513C116.792 41.8513 116.873 42.413 116.907 42.6363L116.968 43.4077C117.008 43.7956 117.045 44.1858 117.076 44.5783C117.198 46.0805 117.252 47.5962 117.246 49.1052C117.246 50.9931 117.151 52.881 117.002 54.7689ZM113.519 32.2088C113.321 31.9833 113.117 31.7577 112.91 31.5322C112.966 31.723 112.98 31.924 112.95 32.1209C113.143 32.1208 113.335 32.1504 113.519 32.2088V32.2088Z" fill="#999A1C"/>
<path d="M116.801 54.9092C116.747 53.8062 116.719 52.6559 116.719 51.404C116.719 49.8003 116.794 48.1899 116.943 46.5929C117.056 45.1519 117.283 43.7219 117.621 42.3164C117.964 40.7839 118.417 39.2779 118.976 37.8098C119.125 37.4241 119.28 37.0452 119.443 36.6662C119.518 36.4903 119.504 36.5038 119.49 36.5309L119.66 36.2196C120.046 35.4888 120.446 34.758 120.886 34.0611C122.405 31.6286 124.409 29.5348 126.774 27.9102C126.944 33.1055 125.987 38.2763 123.969 43.0675C123.851 43.3562 123.732 43.6427 123.61 43.9269L123.284 44.6509L122.939 45.3276C122.763 45.6794 122.582 46.0268 122.397 46.3696C121.686 47.723 120.913 49.0019 120.093 50.2672C119.043 51.8574 117.946 53.4002 116.801 54.9092ZM126.083 34.0543C126.037 33.7566 125.983 33.4611 125.92 33.1679C125.864 33.358 125.767 33.5336 125.635 33.6821C125.8 33.7787 125.948 33.8996 126.076 34.0408L126.083 34.0543Z" fill="#999A1C"/>
<path d="M116.76 55.4771C117.085 54.8613 117.437 54.232 117.85 53.5554C118.372 52.6892 118.928 51.8434 119.524 51.0314C120.046 50.2878 120.626 49.5865 121.258 48.9337C121.941 48.2169 122.675 47.5498 123.453 46.9376L124.077 46.4707C124.171 46.403 124.158 46.403 124.144 46.4098L124.334 46.2947C124.781 46.0241 125.228 45.7602 125.689 45.5233C127.292 44.6936 129.05 44.203 130.852 44.082C129.263 46.9406 127.075 49.4221 124.436 51.3562L123.961 51.7013L123.555 51.9855L123.142 52.2494L122.512 52.6351C121.694 53.1223 120.858 53.5734 120.005 53.9884C118.941 54.5568 117.85 55.0373 116.76 55.4771ZM128.494 47.215C128.566 47.0391 128.632 46.8631 128.69 46.6872C128.599 46.7704 128.49 46.8328 128.372 46.8699C128.43 46.9779 128.471 47.0943 128.494 47.215V47.215Z" fill="#999A1C"/>
<path d="M104.84 83.1732L103.885 84.946L101.439 83.6874L102.008 81.8672L104.84 83.1732Z" fill="#F4C2AE"/>
<path d="M100.402 81.707C100.402 81.707 94.7452 85.767 93.3496 89.7255C91.9539 93.684 95.3821 98.0079 95.3821 98.0079" fill="#F7734F"/>
<path d="M94.2109 140.94L91.3721 139.586L92.5239 136.582L94.7461 137.489" fill="#1E3180"/>
<path d="M90.5531 133.09H93.7238C93.7916 134.382 94.0829 135.966 95.2008 136.473C95.6411 136.737 97.3552 137.258 97.9108 137.048C98.4663 136.839 100.214 136.406 100.424 136.568C100.634 136.73 101.447 137.211 99.8078 138.679C98.1682 140.147 94.6384 141.122 94.1642 140.966C93.6899 140.811 94.7468 137.887 93.4257 138.334C91.9826 138.821 92.816 142.022 92.5992 142.279C92.1531 142.549 91.6655 142.743 91.1561 142.854C90.7882 142.669 90.4309 142.463 90.0856 142.238C90.0924 139.173 90.3363 136.108 90.5531 133.09Z" fill="#1E3180"/>
<path d="M111 148.006L108.223 146.518L109.51 143.574L111.691 144.576" fill="#1E3180"/>
<path d="M107.32 139L110.897 140.171C110.897 142.201 111.52 143.676 113.607 144.163C114.487 144.366 115.179 144.075 116.032 143.96C116.261 143.911 116.499 143.925 116.721 144C116.943 144.075 117.14 144.208 117.292 144.386C117.76 145.002 117.204 145.598 116.716 145.997C115.016 147.397 111.439 148.203 110.971 148.027C110.504 147.851 111.696 144.975 110.348 145.361C108.885 145.78 109.569 149.015 109.345 149.265C108.889 149.513 108.394 149.685 107.882 149.773C107.522 149.566 107.174 149.34 106.839 149.096C106.96 146.051 106.954 142.031 107.32 139Z" fill="#1E3180"/>
<path d="M96.6756 94.7383C95.1163 100.781 93.933 106.914 93.1323 113.103C91.8586 123.023 89.0199 135.054 89.2638 135.433C89.5077 135.812 91.7705 138.37 96.9737 137.071L102.949 101.112" fill="#BF4225"/>
<path d="M105.336 102.785C105.336 102.785 111.224 114.681 112.531 121.881C113.839 129.08 112.531 140.942 112.531 140.942C112.531 140.942 107.958 142.864 104.15 141.619C104.15 141.619 103.588 124.026 102.958 122.395C102.328 120.764 97.992 114.079 97.8023 107.116C97.6126 100.153 99.2725 96.2891 99.2725 96.2891" fill="#BF4225"/>
<path d="M106.785 94.6145C107.111 92.2191 107.415 89.668 106.697 87.32C105.533 85.996 104.218 84.8107 102.781 83.7878C102.781 83.7878 100.823 81.4398 99.0484 82.7728C97.0768 84.2479 94.6446 93.5589 95.1798 97.2196C95.6744 100.603 98.5673 101.381 101.894 102.247C103.021 102.536 104.174 102.715 105.336 102.782C105.918 100.075 106.413 97.355 106.785 94.6145Z" fill="#FFB93E"/>
<path d="M107.801 76.4886C107.801 76.4886 107.211 82.9711 106.073 83.4786C104.935 83.9861 102.923 82.6193 102.591 81.5028C102.259 80.3863 102.591 80.19 103.749 80.1494C104.908 80.1088 104.088 80.1021 104.793 79.8314C106.283 79.2698 104.156 75.5887 107.801 76.4886Z" fill="#FFE4D7"/>
<path d="M106.068 73.6184C105.496 73.3472 104.893 73.145 104.273 73.0162C103.574 72.8265 102.839 72.8086 102.131 72.9642C101.423 73.1197 100.763 73.444 100.208 73.9094C99.0291 74.9601 98.273 76.4031 98.0806 77.9694C97.9655 79.3227 98.2636 81.0008 99.4018 81.9076C100.818 83.0376 103.311 83.9376 104.381 82.2594C104.574 81.9895 104.727 81.6933 104.835 81.3798C105.364 80.1147 106.096 78.9444 107.003 77.9153C107.34 77.5318 107.566 77.0644 107.658 76.5628C107.75 76.0612 107.704 75.5441 107.525 75.0665C107.233 74.4224 106.715 73.9073 106.068 73.6184V73.6184Z" fill="#F7734F"/>
<path d="M116.982 87.6265C116.803 87.4604 116.578 87.3512 116.337 87.3126C116.096 87.2741 115.848 87.308 115.627 87.41L115.762 87.1529C115.766 87.1214 115.766 87.0896 115.762 87.0581C116.053 86.9093 115.87 86.3815 115.484 86.4424C114.807 86.5506 114.38 86.6251 114.075 87.3017C113.857 87.8442 113.692 88.4061 113.58 88.9799C112.685 90.021 111.684 90.9666 110.593 91.8016C110.254 92.079 110.735 92.5527 111.074 92.282L111.209 92.1737C111.232 92.2234 111.266 92.2674 111.308 92.3025C111.351 92.3376 111.4 92.3629 111.453 92.3767C111.429 92.4245 111.416 92.477 111.415 92.5304C111.414 92.5837 111.425 92.6367 111.447 92.6853C111.469 92.734 111.502 92.777 111.543 92.8115C111.584 92.8459 111.632 92.8707 111.683 92.8842C111.467 93.094 111.243 93.2902 111.006 93.5C110.688 93.818 111.148 94.2376 111.487 93.9804C111.826 93.7233 112.246 93.4188 112.618 93.1346C112.456 93.3038 112.28 93.4729 112.117 93.6489C111.819 93.9669 112.3 94.4473 112.598 94.1293C113.411 93.2429 114.272 92.4038 115.152 91.585C115.633 91.4292 116.099 91.2346 116.548 91.0031C117.049 90.746 117.74 90.3873 117.754 89.7377C117.683 88.9793 117.417 88.252 116.982 87.6265V87.6265Z" fill="#FFE4D7"/>
<path d="M118.793 86.5514C118.556 86.1995 118.291 86.1927 117.946 86.0303L118.244 85.8003C118.603 85.5702 118.907 85.2627 119.131 84.9003C119.253 84.6635 119.043 84.2846 118.752 84.4064C117.93 84.7246 117.152 85.1452 116.435 85.6582V85.6582C115.758 86.0507 115.297 87.1604 114.999 87.6882C114.789 88.0671 115.371 88.4122 115.581 88.0265L115.751 87.6882C115.794 87.7486 115.856 87.7936 115.927 87.8167C115.927 87.8776 115.873 87.9318 115.839 87.9927C115.803 88.0539 115.789 88.1254 115.798 88.1957C115.776 88.233 115.762 88.2745 115.758 88.3175C115.71 88.6626 115.419 89.2648 115.852 89.4881C115.913 89.5184 115.981 89.5324 116.049 89.5287L115.5 90.1039C115.457 90.1467 115.426 90.2005 115.412 90.2594C115.397 90.3184 115.399 90.3802 115.417 90.4381C115.435 90.4961 115.469 90.5479 115.515 90.588C115.561 90.6281 115.616 90.6549 115.676 90.6655C115.679 90.7106 115.692 90.7544 115.716 90.7931C115.739 90.8318 115.771 90.8643 115.81 90.8876C115.849 90.911 115.893 90.9245 115.938 90.9271C115.983 90.9296 116.028 90.9211 116.069 90.9023C117.018 90.5031 118.4 89.9212 119.016 89.0347C119.181 88.6332 119.247 88.198 119.208 87.7658C119.169 87.3336 119.027 86.9171 118.793 86.5514Z" fill="#FFE4D7"/>
<path d="M113.163 89.06L108.36 93.2892L108.082 91.3404C107.878 90.1699 107.518 89.032 107.012 87.957C103.868 89.5201 101.734 93.4989 103.048 96.6928C104.214 98.3574 105.758 100.008 107.52 100.239C111.151 100.712 116.246 93.6478 116.246 93.6478C116.023 91.8546 113.163 89.06 113.163 89.06Z" fill="#F7734F"/>
<path d="M101.012 73.8577C101.012 69.3443 93.356 68.5729 92.2042 72.7547C92.0553 73.3208 92.0423 73.9141 92.1661 74.4862C92.2898 75.0583 92.547 75.5932 92.9166 76.0474C93.2863 76.5017 93.758 76.8624 94.2934 77.1004C94.8288 77.3383 95.4129 77.4468 95.9982 77.4169C97.5429 77.3123 99.0503 76.8956 100.429 76.1922" fill="#F7734F"/>
</g>
<defs>
<filter id="filter0_d_6240_5931" x="0.90625" y="-21.1641" width="346" height="267" filterUnits="userSpaceOnUse" color-interpolation-filters="sRGB">
<feFlood flood-opacity="0" result="BackgroundImageFix"/>
<feColorMatrix in="SourceAlpha" type="matrix" values="0 0 0 0 0 0 0 0 0 0 0 0 0 0 0 0 0 0 127 0" result="hardAlpha"/>
<feOffset dx="43" dy="6"/>
<feGaussianBlur stdDeviation="16"/>
<feColorMatrix type="matrix" values="0 0 0 0 0 0 0 0 0 0 0 0 0 0 0 0 0 0 0.25 0"/>
<feBlend mode="normal" in2="BackgroundImageFix" result="effect1_dropShadow_6240_5931"/>
<feBlend mode="normal" in="SourceGraphic" in2="effect1_dropShadow_6240_5931" result="shape"/>
</filter>
<linearGradient id="paint0_linear_6240_5931" x1="202.712" y1="115.565" x2="181.557" y2="100.647" gradientUnits="userSpaceOnUse">
<stop stop-color="white" stop-opacity="0"/>
<stop offset="0.98" stop-color="#0800BF"/>
</linearGradient>
<linearGradient id="paint1_linear_6240_5931" x1="-7352.84" y1="2632.73" x2="-7895.68" y2="2013.99" gradientUnits="userSpaceOnUse">
<stop stop-color="white" stop-opacity="0"/>
<stop offset="0.98" stop-color="#0800BF"/>
</linearGradient>
<linearGradient id="paint2_linear_6240_5931" x1="-15521.9" y1="8067.32" x2="-16262.1" y2="6572.4" gradientUnits="userSpaceOnUse">
<stop stop-color="white" stop-opacity="0"/>
<stop offset="0.98" stop-color="#0800BF"/>
</linearGradient>
<linearGradient id="paint3_linear_6240_5931" x1="-10712.7" y1="15026.1" x2="-13023.5" y2="11332.3" gradientUnits="userSpaceOnUse">
<stop stop-color="white" stop-opacity="0"/>
<stop offset="0.98" stop-color="#0800BF"/>
</linearGradient>
<linearGradient id="paint4_linear_6240_5931" x1="-2054.12" y1="5336.16" x2="-2596.99" y2="4717.7" gradientUnits="userSpaceOnUse">
<stop stop-color="white" stop-opacity="0"/>
<stop offset="0.98" stop-color="#0800BF"/>
</linearGradient>
</defs>
</svg>
