<svg width="321" height="252" viewBox="0 0 321 252" fill="none" xmlns="http://www.w3.org/2000/svg">
<g filter="url(#filter0_d_6240_5671)">
<path d="M242.406 167.859L165.252 212.9C164.256 213.483 163.122 213.79 161.967 213.79C160.813 213.79 159.679 213.483 158.682 212.9L66.6076 159.742C65.6142 159.171 64.789 158.349 64.2151 157.357C63.6412 156.366 63.339 155.241 63.339 154.095C63.339 152.95 63.6412 151.824 64.2151 150.833C64.789 149.842 65.6142 149.019 66.6076 148.449L144.718 103.919C145.704 103.353 146.821 103.055 147.959 103.055C149.096 103.055 150.214 103.353 151.2 103.919L242.377 156.566C243.372 157.134 244.199 157.955 244.776 158.944C245.352 159.934 245.657 161.059 245.66 162.204C245.663 163.35 245.364 164.476 244.792 165.469C244.221 166.462 243.398 167.286 242.406 167.859Z" fill="#AA29A4"/>
<path d="M173.334 26.836C183.444 32.8293 208.461 47.6337 215.944 51.9845C216.582 52.3554 217.11 52.8883 217.475 53.5294C217.841 54.1704 218.03 54.8967 218.024 55.6345V158.353C218.177 160.448 215.834 162.39 213.878 161.273L171.808 137.322C170.114 136.351 169.034 134.986 169.034 133.036V29.2815C169.034 28.7791 169.168 28.2859 169.421 27.8517C169.673 27.4176 170.037 27.0581 170.473 26.8098C170.91 26.5614 171.405 26.433 171.907 26.4376C172.409 26.4422 172.901 26.5797 173.334 26.836V26.836Z" fill="#172D51"/>
<path d="M169.318 28.0844L182.677 35.7786V38.6402C182.677 38.8813 182.74 39.1183 182.86 39.3272C182.981 39.5361 183.154 39.7095 183.363 39.8301L193.583 45.7504C193.72 45.8297 193.876 45.8716 194.035 45.8717C194.194 45.8718 194.349 45.8302 194.487 45.7511C194.625 45.672 194.739 45.5581 194.818 45.4209C194.898 45.2837 194.94 45.128 194.941 44.9693V42.8742L214.22 54.1454C214.403 54.2534 214.554 54.4072 214.659 54.5915C214.764 54.7759 214.819 54.9844 214.819 55.1966V157.864C214.82 158.011 214.783 158.155 214.711 158.283C214.638 158.411 214.533 158.517 214.407 158.592C214.28 158.666 214.136 158.705 213.989 158.705C213.842 158.706 213.698 158.667 213.57 158.594L169.04 132.781C168.97 133.573 169.114 134.37 169.458 135.087C169.803 135.804 170.334 136.415 170.997 136.854C173.304 138.314 213.877 161.28 213.877 161.28C213.877 161.28 217.082 162.74 218.023 158.9V55.6273C218.026 54.9525 217.867 54.287 217.56 53.6863C217.252 53.0855 216.806 52.5671 216.257 52.1744C214.395 50.8239 173.304 26.8069 173.304 26.8069C172.959 26.6237 172.581 26.5113 172.193 26.4765C171.804 26.4417 171.413 26.4851 171.041 26.6042C170.669 26.7233 170.326 26.9156 170.03 27.1699C169.734 27.4241 169.492 27.7351 169.318 28.0844Z" fill="#40006B"/>
<path d="M124.436 153.361C124.356 153.772 124.366 154.195 124.467 154.601C124.568 155.008 124.757 155.387 125.02 155.712C125.911 156.668 129.298 159.669 129.619 160.318C129.94 160.968 130.393 162.742 129.619 163.355C128.845 163.968 127.341 164.041 125.502 163.355C122.953 162.187 120.566 160.695 118.399 158.917C117.581 158.026 118.399 148.879 118.399 148.879C118.399 148.879 123.151 147.718 124.75 148.879L124.436 153.361Z" fill="#F96156"/>
<path d="M129.985 161.566C130.075 161.868 130.088 162.188 130.023 162.496C129.958 162.805 129.817 163.092 129.612 163.332C128.838 163.946 127.335 164.019 125.495 163.332C122.946 162.164 120.559 160.673 118.392 158.894C118.11 158.244 117.99 157.535 118.042 156.828C121.122 159.77 127.634 164.676 129.985 161.566Z" fill="#391A3A"/>
<path d="M122.489 156.845C122.771 156.421 123.165 156.082 123.627 155.867C124.169 155.683 124.746 155.623 125.314 155.692C125.781 155.692 125.781 156.422 125.314 156.422C124.911 156.334 124.493 156.362 124.105 156.501C123.718 156.64 123.378 156.886 123.124 157.21C122.817 157.583 122.204 157.218 122.489 156.845Z" fill="#391A3A"/>
<path d="M123.546 158.105C123.921 157.661 124.408 157.326 124.956 157.134C125.504 156.941 126.093 156.898 126.663 157.01C127.123 157.105 126.926 157.805 126.466 157.74C126.021 157.664 125.563 157.709 125.141 157.869C124.719 158.029 124.347 158.3 124.064 158.652C123.721 158.966 123.203 158.448 123.546 158.105Z" fill="#391A3A"/>
<path d="M113.167 158.959C113.087 159.37 113.098 159.793 113.198 160.199C113.299 160.605 113.488 160.984 113.751 161.31C114.642 162.266 118.029 165.266 118.35 165.916C118.672 166.566 119.124 168.34 118.35 168.953C117.577 169.566 116.073 169.639 114.233 168.953C111.685 167.785 109.297 166.293 107.13 164.514C106.313 163.624 107.13 154.477 107.13 154.477C107.13 154.477 111.883 153.316 113.481 154.477L113.167 158.959Z" fill="#F96156"/>
<path d="M118.714 167.159C118.804 167.461 118.817 167.781 118.752 168.089C118.687 168.398 118.546 168.685 118.342 168.925C117.568 169.538 116.064 169.611 114.224 168.925C111.676 167.757 109.289 166.265 107.122 164.487C106.832 163.833 106.707 163.119 106.757 162.406C109.852 165.363 116.363 170.276 118.714 167.159Z" fill="#391A3A"/>
<path d="M111.215 162.443C111.498 162.018 111.892 161.68 112.354 161.465C112.896 161.28 113.472 161.221 114.04 161.289C114.507 161.289 114.507 162.019 114.04 162.019C113.638 161.932 113.219 161.959 112.832 162.099C112.444 162.238 112.104 162.484 111.85 162.808C111.566 163.18 110.93 162.815 111.215 162.443Z" fill="#391A3A"/>
<path d="M112.254 163.706C112.629 163.263 113.116 162.928 113.664 162.735C114.212 162.543 114.801 162.5 115.371 162.611C115.831 162.706 115.634 163.407 115.174 163.341C114.729 163.265 114.271 163.31 113.849 163.471C113.427 163.631 113.055 163.901 112.772 164.254C112.451 164.597 111.933 164.049 112.254 163.706Z" fill="#391A3A"/>
<path d="M123.482 96.6641C126.022 102.475 127.422 108.721 127.606 115.06C127.767 125.119 126.577 152.151 126.577 152.151C126.577 152.151 123.788 154.83 117.664 153.889V116.381C117.664 116.381 115.517 117.148 115.517 118.761C115.517 120.374 113.561 158.721 113.561 158.721C113.561 158.721 112.466 160.758 104.451 157.648C104.451 157.648 103.356 107.417 109.239 97.5547" fill="#5B434D"/>
<path d="M152.914 113.088V170.904L136.277 180.423L117.487 169.327V111.504" fill="#40006B"/>
<path d="M152.914 113.088L133.606 102.094L117.487 111.503L136.277 122.607L152.914 113.088Z" fill="#40006B"/>
<path d="M136.277 122.607V180.423L117.487 169.327V111.504L136.277 122.607Z" fill="#40006B"/>
<path opacity="0.1" d="M152.914 113.088V170.904L136.277 180.423L117.487 169.327V111.504" fill="#2E90A0"/>
<path d="M152.914 113.088L133.606 102.094L117.487 111.503L136.277 122.607L152.914 113.088Z" fill="#40006B"/>
<path opacity="0.47" d="M136.277 122.607V180.423L117.487 169.327V111.504L136.277 122.607Z" fill="#2E90A0"/>
<path d="M136.599 112.57L146.001 117.045V174.861L192.977 149.45" stroke="#1B1464" stroke-miterlimit="10"/>
<path d="M127.655 119.547L113.639 111.32L135.911 98.793L148.941 107.027L127.655 119.547Z" fill="#5B434D"/>
<path d="M124.318 99.3212C120.485 100.65 116.572 100.723 112.565 100.489C110.973 98.8159 109.638 96.9169 108.601 94.8536C105.177 87.7726 103.943 75.8736 103.943 75.8736C103.943 75.8736 109.053 71.9243 112.441 70.9753C115.828 70.0263 123.31 71.7053 124.537 73.7566C125.763 75.8079 126.216 85.0351 124.537 98.1532C124.486 98.3868 124.354 99.0949 124.318 99.3212Z" fill="#A5DD73"/>
<path d="M117.858 72.2128C119.055 72.4683 119.282 69.1541 118.771 68.8475C118.26 68.5409 112.653 68.5044 111.792 68.8913C109.901 69.7308 111.792 72.5413 111.792 72.5413" fill="#A5DD73"/>
<path d="M110.653 58.3516C111.733 58.1618 111.696 56.3587 113.704 55.5411C115.711 54.7235 118.084 55.8988 118.96 56.5339C119.836 57.169 120.478 55.8769 121.442 56.8697C122.406 57.8625 121.792 59.3809 122.354 59.9211L122.435 59.9795C122.678 60.3879 122.813 60.8517 122.827 61.3269C122.841 61.802 122.734 62.2729 122.515 62.6951C122.074 63.285 121.556 63.8129 120.975 64.2646L111.967 68.9658C110.879 68.1993 108.798 60.9358 108.915 60.0671C108.957 59.6224 109.154 59.2066 109.471 58.8929C109.789 58.5791 110.207 58.3874 110.653 58.3516V58.3516Z" fill="#200904"/>
<path d="M120.538 61.104C120.947 61.542 119.597 70.229 116.961 70.5356C114.326 70.8422 111.209 67.3528 110.932 66.3162C110.654 65.2796 110.815 59.7462 111.888 59.1914C112.961 58.6366 118.064 58.4395 120.538 61.104Z" fill="#F67770"/>
<path d="M119.304 58.5981C119.304 58.5981 119.823 60.6202 116.669 60.9998C113.515 61.3794 113.296 62.0875 112.924 63.1898C112.194 65.2703 110.004 67.6866 109.274 61.4451C109.238 61.1458 111.508 56.868 113.961 56.5322C116.413 56.1964 119.304 58.5981 119.304 58.5981Z" fill="#200904"/>
<path d="M112.641 64.2996C112.641 64.2996 111.648 62.5914 110.881 63.4017C110.115 64.212 110.67 66.1173 111.706 66.7159" fill="#F67770"/>
<path d="M136.553 100.355C136.553 100.355 139.123 102.385 139.802 102.794C140.48 103.202 136.882 104.37 136.823 104.772C136.765 105.173 133.305 102.049 133.305 102.049L136.553 100.355Z" fill="#F67770"/>
<path d="M127.656 119.547L133.138 105.465L154.425 92.8945L148.942 107.027L127.656 119.547Z" fill="#172D51"/>
<path d="M124.54 73.7539C124.54 73.7539 125.927 75.7395 126.569 80.9736C127.211 86.2077 129.058 90.7629 130.124 92.4127C131.19 94.0625 138.264 100.676 137.972 101.333C137.68 101.99 135.782 103.158 134.548 103.596C131.099 101.437 128.014 98.7435 125.408 95.6174C121.758 90.9673 121.882 82.7256 121.882 82.7256" fill="#A5DD73"/>
<path d="M122.152 114.145C122.139 113.591 122.025 113.044 121.816 112.531C121.624 112.265 121.374 112.046 121.086 111.889C120.735 111.667 120.399 111.423 120.079 111.159L117.597 108.531L121.342 107.969C122.166 108.516 123.019 109.021 123.897 109.48C124.064 109.48 126.452 110.94 126.335 111.305C126.218 111.67 124.612 110.443 124.612 110.443C125.506 110.842 126.365 111.313 127.182 111.852C127.474 112.195 127.853 113.94 127.59 114.181C127.328 114.422 126.919 114.181 126.649 114.05C126.379 113.918 126.831 114.78 126.415 114.918C126.103 115.027 125.775 115.084 125.444 115.086C125.283 115.171 125.099 115.203 124.918 115.178C124.738 115.153 124.569 115.073 124.437 114.948C123.949 114.355 123.586 113.67 123.371 112.933C123.371 112.933 123.466 115.028 122.867 114.889C122.656 114.809 122.4 114.517 122.152 114.145Z" fill="#F67770"/>
<path d="M124.781 111.059C125.235 111.259 125.652 111.536 126.014 111.876C126.475 112.458 126.759 113.16 126.832 113.898C126.876 114.103 126.547 114.146 126.511 113.942C126.455 113.209 126.151 112.516 125.649 111.978C125.284 111.687 124.884 111.442 124.459 111.248C124.575 111.2 124.683 111.137 124.781 111.059V111.059Z" fill="#5B434D"/>
<path d="M123.898 111.43C124.264 111.693 124.602 111.994 124.905 112.328C125.402 112.963 125.453 114.116 125.635 114.875C125.686 115.08 125.358 115.123 125.314 114.919C125.088 113.977 125.015 112.912 124.299 112.218C124.037 111.963 123.759 111.714 123.474 111.488C123.617 111.476 123.758 111.457 123.898 111.43V111.43Z" fill="#5B434D"/>
<path d="M103.939 75.8705C103.939 75.8705 102.479 76.1844 102.669 81.4915C102.859 86.7986 104.173 97.3252 106.582 99.8802C108.991 102.435 120.043 111.56 120.043 111.56C120.043 111.56 123.467 110.1 123.197 108.808C122.927 107.516 111.225 95.9747 111.225 95.9747C111.225 95.9747 109.458 72.4979 103.939 75.8705Z" fill="#A5DD73"/>
<path d="M123.796 77.7242L124.613 99.1716C124.613 99.6388 123.883 99.6388 123.883 99.1716L123.066 77.7242C123.044 77.2862 123.774 77.2935 123.796 77.7242Z" fill="#75A542"/>
<path d="M111.173 83.188L112.297 90.0792C112.677 92.4152 112.764 95.1381 113.918 97.2551C115.071 99.3721 116.837 101.007 118.341 102.752L123.313 108.592C123.619 108.95 123.101 109.468 122.794 109.11L117.589 103.007C116.129 101.299 114.377 99.6203 113.29 97.642C112.202 95.6637 112.063 93.189 111.706 90.9844L110.472 83.3997C110.406 82.9179 111.1 82.7208 111.173 83.188Z" fill="#75A542"/>
<path d="M209.422 68.9424V71.8478L175.645 52.2035V49.8164L209.422 68.9424Z" fill="#8CC63F"/>
<path d="M191.683 67.2422L209.422 77.287V80.1924L191.683 69.8702V67.2422Z" fill="#F7931E"/>
<path d="M189.195 65.8332V68.4247L185.392 66.2128V63.6797L189.195 65.8332Z" fill="#00A99D"/>
<path d="M182.91 62.2734V64.77L175.647 60.5506V58.1562L182.91 62.2734Z" fill="#F15A24"/>
<path d="M193.734 75.6016L209.422 84.4857V87.3911L193.734 78.2661V75.6016Z" fill="#F15A24"/>
<path d="M208.984 92.5513V95.4567L175.207 75.8124V73.418L208.984 92.5513Z" fill="#8CC63F"/>
<path d="M198.051 94.7063V97.4438L189.889 92.6915V90.0781L198.051 94.7063Z" fill="#00A99D"/>
<path d="M200.538 96.1133L208.984 100.895V103.8L200.538 98.8873V96.1133Z" fill="#F15A24"/>
<path d="M187.398 88.6675V91.2444L175.207 84.1488V81.7617L187.398 88.6675Z" fill="#F7931E"/>
<path d="M180.777 92.1133L208.984 108.093V110.998L180.777 94.588V92.1133Z" fill="#F7931E"/>
<path d="M178.289 90.7056V93.1438L175.208 91.348V88.9609L178.289 90.7056Z" fill="#00A99D"/>
<path d="M208.984 116.833V119.731L175.207 100.086V97.6992L208.984 116.833Z" fill="#00A99D"/>
<path d="M196.512 118.11V120.825L175.21 108.43V106.043L196.512 118.11Z" fill="#F7931E"/>
<path d="M198.998 119.52L208.984 125.17V128.075L198.998 122.272V119.52Z" fill="#F15A24"/>
<path d="M188.092 120.539L208.984 132.365V135.27L188.092 123.123V120.539Z" fill="#00A99D"/>
<path d="M185.602 119.133V121.681L175.206 115.629V113.242L185.602 119.133Z" fill="#8CC63F"/>
<path d="M165.076 187.438L159.696 193.927L160.404 194.613L165.784 188.131L165.076 187.438Z" fill="white"/>
<path d="M178.829 190.801C178.685 191.167 178.43 191.478 178.099 191.691C178.226 191.835 178.319 192.005 178.369 192.19C178.42 192.375 178.428 192.569 178.391 192.757L178.829 190.801Z" fill="#C46200"/>
<path d="M166.924 190.793L165.573 191.72L166.296 194.516L163.069 193.428L161.719 194.348L167.135 196.115L168.062 195.48L166.924 190.793Z" fill="white"/>
<path d="M144.913 191.414C144.902 191.58 144.924 191.745 144.978 191.902C145.032 192.059 145.117 192.203 145.227 192.327C145.339 192.455 145.469 192.566 145.614 192.655L158.754 200.904C159.246 201.189 159.817 201.307 160.382 201.24C160.788 201.203 161.183 201.084 161.542 200.89L177.902 191.816L178.106 191.692C178.437 191.479 178.692 191.167 178.836 190.801C178.943 190.506 178.94 190.183 178.829 189.89C178.718 189.597 178.505 189.353 178.23 189.202L165.82 181.172C165.326 180.879 164.749 180.756 164.178 180.822C163.799 180.857 163.429 180.963 163.09 181.136L146.001 189.954C145.707 190.081 145.452 190.282 145.261 190.538C145.07 190.795 144.95 191.097 144.913 191.414V191.414ZM160.411 194.612L159.681 193.926L165.054 187.443L165.784 188.129L160.404 194.612H160.411ZM167.134 196.116L161.718 194.349L163.068 193.422L166.295 194.524L165.565 191.728L166.915 190.801L168.076 195.48L167.149 196.116H167.134ZM158.389 191.079L157.243 186.399L158.177 185.764L163.586 187.531L162.236 188.451L159.002 187.356L159.732 190.159L158.382 191.086" fill="#F7931E"/>
<path d="M158.169 185.766L163.578 187.525L162.235 188.445L158.994 187.35L159.731 190.153L158.381 191.08L157.234 186.393L158.169 185.766Z" fill="white"/>
<path d="M145.22 192.334C145.109 192.211 145.025 192.066 144.971 191.91C144.917 191.753 144.895 191.587 144.906 191.422L144.461 193.298C144.595 192.899 144.863 192.559 145.22 192.334V192.334Z" fill="#C46200"/>
<path d="M145.222 192.334C144.877 192.564 144.62 192.903 144.492 193.298C144.477 193.348 144.465 193.399 144.456 193.451C144.414 193.723 144.458 194.001 144.581 194.246C144.704 194.492 144.9 194.694 145.142 194.824L158.282 203.073C158.773 203.36 159.344 203.48 159.91 203.416C160.317 203.377 160.712 203.256 161.07 203.058L177.43 193.984C177.674 193.865 177.889 193.695 178.061 193.484C178.232 193.274 178.356 193.028 178.423 192.765C178.459 192.577 178.452 192.383 178.401 192.198C178.35 192.013 178.258 191.843 178.131 191.699L177.926 191.823L161.508 200.89C161.149 201.084 160.754 201.204 160.348 201.24C159.783 201.307 159.212 201.19 158.72 200.904L145.58 192.656C145.446 192.566 145.326 192.458 145.222 192.334Z" fill="#C46200"/>
</g>
<defs>
<filter id="filter0_d_6240_5671" x="0.90625" y="-16.1641" width="367" height="283" filterUnits="userSpaceOnUse" color-interpolation-filters="sRGB">
<feFlood flood-opacity="0" result="BackgroundImageFix"/>
<feColorMatrix in="SourceAlpha" type="matrix" values="0 0 0 0 0 0 0 0 0 0 0 0 0 0 0 0 0 0 127 0" result="hardAlpha"/>
<feOffset dx="43" dy="6"/>
<feGaussianBlur stdDeviation="16"/>
<feColorMatrix type="matrix" values="0 0 0 0 0 0 0 0 0 0 0 0 0 0 0 0 0 0 0.25 0"/>
<feBlend mode="normal" in2="BackgroundImageFix" result="effect1_dropShadow_6240_5671"/>
<feBlend mode="normal" in="SourceGraphic" in2="effect1_dropShadow_6240_5671" result="shape"/>
</filter>
</defs>
</svg>
