<svg width="82" height="82" viewBox="0 0 82 82" fill="none" xmlns="http://www.w3.org/2000/svg">
<circle cx="41.0003" cy="41.2235" r="40.5477" fill="#9F91F5" fill-opacity="0.38"/>
<circle cx="41" cy="41.2266" r="35" fill="#9F91F5"/>
<path fill-rule="evenodd" clip-rule="evenodd" d="M31.9899 34.1001C32.3063 33.5753 34.0502 31.6703 35.2929 31.7278C35.6647 31.7597 35.9933 31.9835 36.2604 32.2444H36.2614C36.8735 32.8441 38.6297 35.1075 38.7283 35.584C38.9717 36.7527 37.5781 37.4263 38.0043 38.6042C39.0909 41.263 40.9632 43.1351 43.6232 44.2206C44.8002 44.6478 45.4739 43.2553 46.6427 43.4976C47.1192 43.5972 49.3839 45.3523 49.9826 45.9654V45.9654C50.2425 46.2314 50.4684 46.561 50.4992 46.9328C50.5454 48.2421 48.5222 50.0095 48.1278 50.2354C47.1973 50.9019 45.9833 50.8896 44.5034 50.2015C40.3737 48.4834 33.7739 42.0086 32.0238 37.7231C31.3542 36.2515 31.309 35.0295 31.9899 34.1001Z" stroke="white" stroke-width="1.5" stroke-linecap="round" stroke-linejoin="round"/>
<path d="M43.5654 31.9766C47.2674 32.3876 50.1904 35.3076 50.6064 39.0086" stroke="white" stroke-width="1.5" stroke-linecap="round" stroke-linejoin="round"/>
<path d="M43.5654 35.5195C45.3354 35.8645 46.7184 37.2475 47.0634 39.0175" stroke="white" stroke-width="1.5" stroke-linecap="round" stroke-linejoin="round"/>
</svg>
