<svg width="345" height="244" viewBox="0 0 345 244" fill="none" xmlns="http://www.w3.org/2000/svg">
<g filter="url(#filter0_d_6240_5605)">
<path d="M159.779 73.5469L266.068 128.747C267.102 129.283 267.958 130.054 268.549 130.981C269.141 131.909 269.447 132.959 269.437 134.027C269.427 135.094 269.101 136.14 268.491 137.058C267.882 137.976 267.011 138.734 265.968 139.254L135.882 204.281C134.31 205.067 132.542 205.485 130.74 205.499C128.939 205.512 127.163 205.12 125.576 204.358L25.6118 156.341C24.338 155.728 23.2699 154.823 22.5171 153.719C21.7644 152.616 21.3541 151.353 21.3285 150.061C21.3029 148.77 21.6629 147.495 22.3714 146.368C23.08 145.242 24.1115 144.304 25.3602 143.651L159.779 73.5469Z" fill="#AAACF9"/>
<path opacity="0.32" d="M175.115 158.286C169.164 152.83 162.768 147.778 157.105 142.111L179.995 131.289L228.558 154.473C219.481 158.722 206.192 167.811 193.219 175.687C187.182 169.884 181.303 163.96 175.115 158.286Z" fill="url(#paint0_linear_6240_5605)"/>
<path opacity="0.32" d="M212.037 133.958C202.039 127.353 192.078 120.697 181.65 114.664L203.082 104.535L248.23 129.427C241.381 132.636 235.531 136.891 225.828 143.015C221.243 139.972 216.651 136.981 212.037 133.958Z" fill="url(#paint1_linear_6240_5605)"/>
<path opacity="0.32" d="M155.184 172.774C144.403 167.594 121.275 147.478 110.624 142.182L151.245 122.984L199.758 146.175C188.496 151.425 170.758 164.166 155.184 172.774Z" fill="url(#paint2_linear_6240_5605)"/>
<path d="M133.322 115.391L146.977 121.264C147.49 121.485 147.926 121.827 148.239 122.253C148.551 122.679 148.728 123.173 148.751 123.682C148.774 124.19 148.642 124.695 148.369 125.142C148.095 125.589 147.691 125.961 147.2 126.219L114.822 143.081C114.122 143.446 113.291 143.555 112.502 143.387C111.714 143.218 111.028 142.784 110.589 142.175L102.719 131.264" fill="#56403D"/>
<path d="M64.7031 84.1125L176.239 26.7301C176.788 26.4359 177.416 26.2783 178.057 26.2735C178.697 26.2688 179.328 26.4172 179.883 26.7033C180.438 26.9894 180.897 27.4028 181.213 27.9007C181.529 28.3986 181.69 28.9628 181.679 29.535V90.5118C181.679 90.9505 181.549 91.3815 181.303 91.7612C181.057 92.141 180.704 92.4561 180.278 92.6749L61.5623 153.876C61.3568 153.982 61.1237 154.038 60.8864 154.038C60.6491 154.038 60.416 153.982 60.2106 153.876C60.0051 153.77 59.8346 153.617 59.7161 153.434C59.5976 153.25 59.5354 153.042 59.5356 152.83V92.0972C59.5351 90.4781 60.0125 88.8875 60.9197 87.4856C61.8269 86.0838 63.1319 84.9203 64.7031 84.1125Z" fill="#40006B"/>
<path d="M174.297 32.1269L68.6471 86.4155C67.5185 86.9951 66.5809 87.8301 65.9286 88.8364C65.2763 89.8426 64.9323 90.9846 64.9314 92.1473V135.864C64.9311 136.283 65.054 136.694 65.2879 137.057C65.5217 137.42 65.8583 137.722 66.2638 137.932C66.6693 138.142 67.1295 138.253 67.5983 138.254C68.0671 138.255 68.5279 138.146 68.9346 137.938L176.69 82.744C177.092 82.5376 177.425 82.2402 177.658 81.8819C177.89 81.5235 178.012 81.1169 178.012 80.7029V34.046C178.012 33.6577 177.898 33.2761 177.68 32.9398C177.463 32.6034 177.15 32.324 176.774 32.1295C176.398 31.9351 175.971 31.8325 175.536 31.832C175.101 31.8316 174.673 31.9332 174.297 32.1269Z" fill="white"/>
<path d="M128.715 114.401C128.092 114.293 127.587 114.203 127.587 114.2C127.588 114.196 128.094 114.281 128.718 114.388C129.342 114.495 129.847 114.585 129.846 114.588C129.846 114.592 129.339 114.508 128.715 114.401Z" fill="#AB643C"/>
<path d="M72.9516 88.8665C72.3166 88.8665 71.8017 88.3665 71.8017 87.7496C71.8017 87.1328 72.3166 86.6328 72.9516 86.6328C73.5867 86.6328 74.1016 87.1328 74.1016 87.7496C74.1016 88.3665 73.5867 88.8665 72.9516 88.8665Z" fill="#659FE4"/>
<path d="M76.6167 87.2454C75.9816 87.2454 75.4668 86.7454 75.4668 86.1286C75.4668 85.5117 75.9816 85.0117 76.6167 85.0117C77.2518 85.0117 77.7666 85.5117 77.7666 86.1286C77.7666 86.7454 77.2518 87.2454 76.6167 87.2454Z" fill="#C5E9FF"/>
<path d="M191.673 137.844L191.68 138.454L191.335 138.839" fill="#ADCEE1"/>
<path d="M177.903 130.461L191.285 137.797C191.412 137.862 191.517 137.955 191.591 138.068C191.664 138.181 191.703 138.309 191.703 138.439C191.703 138.57 191.664 138.698 191.591 138.811C191.517 138.923 191.412 139.017 191.285 139.081L171.075 149.389C170.793 149.535 170.473 149.611 170.148 149.611C169.822 149.611 169.502 149.535 169.221 149.389L155.881 142.438C154.911 141.732 154.976 140.397 155.881 140.339L176.005 130.435C176.296 130.289 176.624 130.214 176.958 130.219C177.291 130.223 177.617 130.307 177.903 130.461V130.461Z" fill="#88D3D8"/>
<path d="M177.902 129.953L191.285 137.302C191.412 137.367 191.517 137.46 191.591 137.573C191.664 137.686 191.703 137.814 191.703 137.944C191.703 138.075 191.664 138.203 191.591 138.316C191.517 138.428 191.412 138.522 191.285 138.586L171.053 148.856C170.771 149.001 170.452 149.078 170.126 149.078C169.801 149.078 169.481 149.001 169.199 148.856L155.881 141.93C155.725 141.85 155.594 141.734 155.504 141.594C155.413 141.454 155.366 141.296 155.366 141.134C155.366 140.973 155.413 140.814 155.504 140.674C155.594 140.535 155.725 140.419 155.881 140.338L176.005 129.927C176.296 129.781 176.624 129.707 176.958 129.711C177.291 129.716 177.617 129.799 177.902 129.953V129.953Z" fill="white"/>
<path d="M177.357 128.96C177.357 128.96 171.744 113.003 171.773 113.003C171.802 113.003 171.6 112.291 170.609 112.702L149.392 123.96C149.392 123.96 148.365 124.339 148.566 125.192C148.767 126.046 154.057 140.809 154.057 140.809C154.166 140.949 154.322 141.055 154.503 141.11C154.684 141.166 154.88 141.168 155.063 141.117C155.71 140.937 176.861 129.859 176.861 129.859C177.057 129.795 177.219 129.666 177.311 129.498C177.403 129.331 177.42 129.138 177.357 128.96Z" fill="#053855"/>
<path d="M171.427 114.152L149.693 125.571L154.271 139.101L176.285 128.017L171.427 114.152Z" fill="#40006B"/>
<path d="M178.731 131.641L183.626 134.337C183.714 134.383 183.786 134.449 183.837 134.529C183.887 134.608 183.914 134.698 183.914 134.789C183.914 134.88 183.887 134.97 183.837 135.049C183.786 135.129 183.714 135.195 183.626 135.242L166.147 144.228C165.885 144.363 165.587 144.434 165.284 144.434C164.982 144.434 164.684 144.363 164.422 144.228C163.294 143.644 161.353 142.597 160.16 141.949C160.054 141.892 159.967 141.811 159.907 141.715C159.846 141.619 159.814 141.511 159.814 141.4C159.814 141.29 159.846 141.182 159.907 141.085C159.967 140.989 160.054 140.909 160.16 140.851L177.747 131.634C177.896 131.556 178.067 131.515 178.24 131.516C178.413 131.517 178.583 131.56 178.731 131.641V131.641Z" fill="#40006B"/>
<path d="M178.501 139.01L172.399 142.103C172.305 142.151 172.226 142.22 172.172 142.303C172.117 142.387 172.088 142.482 172.088 142.578C172.088 142.675 172.117 142.77 172.172 142.853C172.226 142.937 172.305 143.006 172.399 143.053L175.992 144.921C176.116 144.985 176.256 145.018 176.398 145.018C176.541 145.018 176.681 144.985 176.804 144.921L183.05 141.712C183.129 141.672 183.195 141.615 183.241 141.545C183.287 141.475 183.312 141.395 183.312 141.314C183.312 141.233 183.287 141.153 183.241 141.083C183.195 141.013 183.129 140.956 183.05 140.916L179.298 138.99C179.175 138.932 179.036 138.903 178.897 138.907C178.757 138.91 178.62 138.945 178.501 139.01Z" fill="#40006B"/>
<path opacity="0.1" d="M178.731 131.641L183.626 134.337C183.714 134.383 183.786 134.449 183.837 134.529C183.887 134.608 183.914 134.698 183.914 134.789C183.914 134.88 183.887 134.97 183.837 135.049C183.786 135.129 183.714 135.195 183.626 135.242L166.147 144.228C165.885 144.363 165.587 144.434 165.284 144.434C164.982 144.434 164.684 144.363 164.422 144.228C163.294 143.644 161.353 142.597 160.16 141.949C160.054 141.892 159.967 141.811 159.907 141.715C159.846 141.619 159.814 141.511 159.814 141.4C159.814 141.29 159.846 141.182 159.907 141.085C159.967 140.989 160.054 140.909 160.16 140.851L177.747 131.634C177.896 131.556 178.067 131.515 178.24 131.516C178.413 131.517 178.583 131.56 178.731 131.641V131.641Z" fill="#053855"/>
<path opacity="0.1" d="M178.501 139.01L172.399 142.103C172.305 142.151 172.226 142.22 172.172 142.303C172.117 142.387 172.088 142.482 172.088 142.578C172.088 142.675 172.117 142.77 172.172 142.853C172.226 142.937 172.305 143.006 172.399 143.053L175.992 144.921C176.116 144.985 176.256 145.018 176.398 145.018C176.541 145.018 176.681 144.985 176.804 144.921L183.05 141.712C183.129 141.672 183.195 141.615 183.241 141.545C183.287 141.475 183.312 141.395 183.312 141.314C183.312 141.233 183.287 141.153 183.241 141.083C183.195 141.013 183.129 140.956 183.05 140.916L179.298 138.99C179.175 138.932 179.036 138.903 178.897 138.907C178.757 138.91 178.62 138.945 178.501 139.01Z" fill="#053855"/>
<path d="M202.096 128.777C204.966 130.984 207.137 133.827 208.391 137.019C210.605 142.468 205.078 151.384 205.078 151.384L196.454 145.312" fill="#FF8F6F"/>
<path d="M209.011 158.486C209.007 159.7 208.577 160.884 207.782 161.869C206.986 162.854 205.865 163.593 204.576 163.98C202.812 164.509 200.95 164.727 199.093 164.622C195.283 164.404 191.949 162.812 189.146 160.617C189.678 154.583 191.582 150.347 193.214 148.325L203.62 143.832C203.671 144.673 209.154 150.347 209.025 157.26C209.02 157.692 209.016 158.101 209.011 158.486Z" fill="#3E2928"/>
<path d="M193.4 137.946L204.432 137.465L206.336 149.307C203.052 151.329 194.377 150.11 192.408 149.808C192.99 145.886 192.933 141.862 193.4 137.946Z" fill="#FF8F6F"/>
<path d="M177.12 136.316L178.227 137.182C177.296 136.706 176.336 136.278 175.352 135.898C174.684 135.629 174.317 136.592 174.978 136.861L175.316 137.002C174.961 136.883 174.604 136.767 174.245 136.656C174.102 136.611 173.945 136.62 173.809 136.679C173.673 136.738 173.569 136.843 173.519 136.97C173.47 137.098 173.479 137.238 173.545 137.36C173.611 137.481 173.728 137.574 173.871 137.619C174.807 137.905 175.725 138.232 176.624 138.601C175.816 138.371 174.993 138.186 174.159 138.049C173.44 137.927 173.375 138.947 174.087 139.063C175.035 139.22 175.968 139.446 176.876 139.737C176.585 139.738 176.296 139.782 176.02 139.865C175.69 139.942 174.842 139.987 174.691 140.282C174.654 140.356 174.637 140.437 174.642 140.518C174.647 140.599 174.674 140.678 174.719 140.748C174.765 140.818 174.828 140.878 174.904 140.922C174.981 140.966 175.068 140.993 175.158 141.001L179.434 141.393C179.858 141.61 180.246 141.88 180.584 142.195C181.016 141.736 181.475 141.297 181.957 140.879C182.383 140.507 182.832 140.155 183.301 139.827C182.879 139.467 182.448 139.118 182.007 138.78C181.914 138.665 181.684 138.723 181.425 138.53C179.988 137.426 179.65 137.349 178.083 136.033C176.926 135.006 176.444 135.789 177.12 136.316Z" fill="#FFB5A9"/>
<path d="M196.964 130.922C196.964 130.922 192.947 131.891 191.315 134.215C190.296 135.813 189.398 137.47 188.627 139.176L181.325 137.655C181.325 137.655 179.205 139.869 177.775 141.455C177.775 141.455 184.904 145.948 188.627 146.686C192.35 147.424 196.303 141.744 196.303 141.744C196.303 141.744 197.122 144.093 196.964 141.583" fill="#FF8F6F"/>
<path d="M194.022 138.47C195.184 137.629 196.065 136.519 196.567 135.261C197.048 133.797 196.444 132.507 195.848 131.14C195.24 129.789 194.886 128.358 194.799 126.904C194.748 125.472 194.935 124.048 195.043 122.623C195.059 122.561 195.059 122.498 195.043 122.436C195.575 120.825 196.682 119.465 198.852 119.304C204.465 118.881 204.781 124.439 204.738 126.686C204.695 128.932 204.429 130.466 206.291 131.416C208.152 132.366 209.496 134.831 207.728 136.833C205.96 138.836 207.548 138.117 208.727 139.882C209.906 141.647 209.604 143.881 207.175 144.683C204.745 145.486 193.447 143.977 192.405 143.04C192.037 142.665 191.847 142.177 191.873 141.679C192.128 140.412 192.892 139.271 194.022 138.47Z" fill="#007F68"/>
<path d="M191.931 151.39C190.573 151.127 177.406 150.189 174.337 154.278C171.268 158.367 187.992 164.188 199.089 164.657C210.186 165.126 197.889 152.532 191.931 151.39Z" fill="#3E2928"/>
<path d="M208.614 90.8242V111.011L191.106 120.042L176.847 112.468V93.7126" fill="#3ACEB2"/>
<path d="M191.106 120.042V100.119L176.847 92.6602V112.468L191.106 120.042Z" fill="#4BE2C5"/>
<path d="M194.197 83.1992L208.614 90.8245L191.106 100.119L176.847 92.6602L194.197 83.1992Z" fill="#52EFD1"/>
<path d="M206.329 94.1445V98.323L193.212 105.011V100.91L206.329 94.1445Z" fill="#7374B7"/>
<path d="M194.538 102.748C194.352 102.697 194.274 102.441 194.365 102.177C194.456 101.913 194.681 101.74 194.866 101.791C195.052 101.842 195.129 102.097 195.039 102.361C194.948 102.626 194.723 102.799 194.538 102.748Z" fill="#F7931E"/>
<path d="M195.663 102.162C195.477 102.111 195.399 101.855 195.49 101.591C195.581 101.327 195.806 101.154 195.991 101.205C196.177 101.256 196.254 101.511 196.164 101.775C196.073 102.04 195.848 102.213 195.663 102.162Z" fill="#D9E021"/>
<path d="M197.058 101.218L205.165 97.0586" stroke="#F2F2F2" stroke-width="0.25" stroke-miterlimit="10"/>
<path d="M206.638 100.004V104.182L193.521 110.864V106.769L206.638 100.004Z" fill="#7374B7"/>
<path d="M194.846 108.603C194.66 108.552 194.583 108.297 194.674 108.032C194.765 107.768 194.989 107.595 195.175 107.646C195.361 107.697 195.438 107.953 195.347 108.217C195.256 108.481 195.032 108.654 194.846 108.603Z" fill="#F7931E"/>
<path d="M195.968 108.025C195.782 107.974 195.705 107.719 195.795 107.454C195.886 107.19 196.111 107.017 196.297 107.068C196.483 107.119 196.56 107.374 196.469 107.639C196.378 107.903 196.154 108.076 195.968 108.025Z" fill="#D9E021"/>
<path d="M197.367 107.077L205.474 102.918" stroke="#F2F2F2" stroke-width="0.25" stroke-miterlimit="10"/>
<path d="M206.638 105.852V110.03L193.521 116.712V112.617L206.638 105.852Z" fill="#7374B7"/>
<path d="M194.854 114.459C194.668 114.408 194.591 114.152 194.682 113.888C194.773 113.623 194.997 113.451 195.183 113.501C195.369 113.552 195.446 113.808 195.355 114.072C195.264 114.337 195.04 114.51 194.854 114.459Z" fill="#F7931E"/>
<path d="M195.971 113.873C195.785 113.822 195.708 113.566 195.799 113.302C195.89 113.038 196.114 112.865 196.3 112.916C196.486 112.967 196.563 113.222 196.472 113.486C196.381 113.751 196.157 113.924 195.971 113.873Z" fill="#D9E021"/>
<path d="M197.367 112.925L205.474 108.766" stroke="#F2F2F2" stroke-width="0.25" stroke-miterlimit="10"/>
<path d="M176.847 99.6002L191.041 107.078L208.614 97.957" stroke="#1B1464" stroke-width="0.25" stroke-miterlimit="10"/>
<path d="M176.847 105.449L191.041 112.927L208.614 103.812" stroke="#1B1464" stroke-width="0.25" stroke-miterlimit="10"/>
<path d="M47.3142 82.9757V115.21C47.3138 115.845 47.5019 116.468 47.8594 117.017C48.2169 117.565 48.731 118.019 49.3491 118.333C49.9673 118.646 50.6674 118.807 51.3781 118.8C52.0887 118.792 52.7845 118.617 53.3944 118.291L87.6981 100.017C88.2958 99.6992 88.7909 99.2482 89.1348 98.7081C89.4788 98.168 89.6598 97.5575 89.6602 96.9362V65.2924C89.6573 64.6628 89.4691 64.045 89.1143 63.501C88.7596 62.957 88.2508 62.5059 87.639 62.1931C87.0273 61.8803 86.3342 61.7167 85.6293 61.7188C84.9243 61.7209 84.2324 61.8886 83.6231 62.205L49.3193 79.8947C48.7136 80.2078 48.2099 80.6568 47.8582 81.1972C47.5065 81.7376 47.319 82.3506 47.3142 82.9757V82.9757Z" fill="#A5DD73"/>
<path opacity="0.32" d="M99.1406 186.636C93.2256 183.119 87.2101 179.73 81.2305 176.309L89.7255 170.77L122.621 183.035C118.646 184.897 113.277 188.382 107.628 191.932C104.826 190.134 102.015 188.344 99.1406 186.636Z" fill="url(#paint3_linear_6240_5605)"/>
<path d="M78.0039 155.549C78.0527 155.368 78.1433 155.197 78.2698 155.049C78.5019 154.796 78.7787 154.579 79.0891 154.407C83.2648 151.884 89.0503 151.197 93.4632 153.656C94.4694 154.221 95.9714 155.498 95.3749 156.705C95.0299 157.404 93.9806 157.815 93.2188 158.097C90.7907 158.956 88.254 159.547 85.6652 159.856C84.7309 159.997 83.7822 160.139 82.8407 160.216C82.1894 160.272 81.5327 160.18 80.9312 159.951C80.3296 159.721 79.8024 159.359 79.3981 158.9C78.7657 158.155 77.7092 156.647 78.0039 155.549Z" fill="#754C24"/>
<path d="M95.4961 156.156C95.4961 156.156 91.687 159.237 85.1036 158.787C78.5203 158.338 78.01 155.578 78.01 155.578C78.01 155.578 79.7134 175.065 80.6117 175.399C81.5101 175.733 84.8737 177.183 86.4979 177.292C88.1222 177.401 93.2537 175.566 93.3831 175.059C93.5125 174.552 95.4961 156.156 95.4961 156.156Z" fill="#FF8F6F"/>
<path d="M94.2965 127.759C94.4977 127.393 95.123 127.714 94.9146 128.08C90.4083 136.193 89.5315 145.327 88.7194 154.197C88.6834 154.602 87.9647 154.608 88.0006 154.197C88.82 145.205 89.7255 135.975 94.2965 127.759Z" fill="#007F68"/>
<path d="M94.8724 127.836C94.8724 127.836 93.6146 132.047 94.9155 134.152C96.2163 136.257 97.2872 136.674 95.7348 139.287C94.1824 141.899 90.0283 142.252 89.7552 144.255C89.4821 146.257 91.7388 131.411 94.8724 127.836Z" fill="#007F68"/>
<path d="M80.4618 135.436C83.9324 141.918 85.8886 148.963 86.2114 156.143C86.2114 156.643 85.3562 156.637 85.3346 156.143C85.0299 149.1 83.1251 142.186 79.7359 135.821C79.4628 135.378 80.2174 134.98 80.4618 135.436Z" fill="#007F68"/>
<path d="M79.846 137.488C79.846 137.065 79.9538 136.205 79.9035 135.492L80.4066 135.775C82.1171 139.491 84.6757 148.22 85.4375 150.89C84.3954 148.888 80.1335 148.612 78.8829 145.756C78.3311 144.543 78.3055 143.191 78.8111 141.962C79.4279 140.532 79.7775 139.02 79.846 137.488V137.488Z" fill="#007F68"/>
<path d="M71.8035 79.3438L82.9219 86.6417L72.9535 99.1387" stroke="#006837" stroke-width="4" stroke-miterlimit="10"/>
<path d="M61.9615 84.6133L53.7826 98.8883L65.2891 103.683" stroke="#006837" stroke-width="4" stroke-miterlimit="10"/>
<path d="M172.089 40.6641L107.291 73.5466" stroke="#00A99D" stroke-width="4" stroke-miterlimit="10"/>
<path d="M171.852 49.2656L161.366 54.5867" stroke="#D4145A" stroke-width="4" stroke-miterlimit="10"/>
<path d="M158.254 56.3828L99.946 85.0098" stroke="#29ABE2" stroke-width="4" stroke-miterlimit="10"/>
<path d="M172.089 57.1016L149.695 68.1352" stroke="#F7931E" stroke-width="4" stroke-miterlimit="10"/>
<path d="M145.98 70.2266L96.8787 93.6802" stroke="#00A99D" stroke-width="4" stroke-miterlimit="10"/>
</g>
<defs>
<filter id="filter0_d_6240_5605" x="0.319336" y="-7.44141" width="362.481" height="256.559" filterUnits="userSpaceOnUse" color-interpolation-filters="sRGB">
<feFlood flood-opacity="0" result="BackgroundImageFix"/>
<feColorMatrix in="SourceAlpha" type="matrix" values="0 0 0 0 0 0 0 0 0 0 0 0 0 0 0 0 0 0 127 0" result="hardAlpha"/>
<feOffset dx="43" dy="6"/>
<feGaussianBlur stdDeviation="16"/>
<feColorMatrix type="matrix" values="0 0 0 0 0 0 0 0 0 0 0 0 0 0 0 0 0 0 0.25 0"/>
<feBlend mode="normal" in2="BackgroundImageFix" result="effect1_dropShadow_6240_5605"/>
<feBlend mode="normal" in="SourceGraphic" in2="effect1_dropShadow_6240_5605" result="shape"/>
</filter>
<linearGradient id="paint0_linear_6240_5605" x1="212.969" y1="166.534" x2="181.614" y2="139.126" gradientUnits="userSpaceOnUse">
<stop stop-color="white" stop-opacity="0"/>
<stop offset="0.98" stop-color="#0800BF"/>
</linearGradient>
<linearGradient id="paint1_linear_6240_5605" x1="-5293.28" y1="7019.31" x2="-6832.4" y2="4309.87" gradientUnits="userSpaceOnUse">
<stop stop-color="white" stop-opacity="0"/>
<stop offset="0.98" stop-color="#0800BF"/>
</linearGradient>
<linearGradient id="paint2_linear_6240_5605" x1="-15468.1" y1="11175.2" x2="-16165.5" y2="7429.31" gradientUnits="userSpaceOnUse">
<stop stop-color="white" stop-opacity="0"/>
<stop offset="0.98" stop-color="#0800BF"/>
</linearGradient>
<linearGradient id="paint3_linear_6240_5605" x1="-10350.3" y1="5577.91" x2="-10812.1" y2="4849.93" gradientUnits="userSpaceOnUse">
<stop stop-color="white" stop-opacity="0"/>
<stop offset="0.98" stop-color="#0800BF"/>
</linearGradient>
</defs>
</svg>
