<svg width="100" height="102" viewBox="0 0 100 102" fill="none" xmlns="http://www.w3.org/2000/svg">
<g clip-path="url(#clip0_1197_8)">
<path d="M87.0194 72.9582C88.872 70.9069 88.7274 67.7272 86.6965 65.856C85.7739 65.0061 84.5687 64.5373 83.3199 64.5428H79.1538C77.7734 64.5428 76.6542 63.4124 76.6542 62.0182V59.4935C76.6488 54.8482 72.9214 51.0836 68.3221 51.0781C67.4018 51.0781 66.6557 51.8317 66.6557 52.7612V65.4836C66.6559 66.2084 66.1966 66.8518 65.5158 67.0809L64.9893 67.2576V66.2259C64.9893 65.2964 64.2431 64.5428 63.3228 64.5428H56.6571C55.7369 64.5428 54.9907 65.2964 54.9907 66.2259V86.4229C54.9907 87.3524 55.7369 88.106 56.6571 88.106H63.3228C64.2431 88.106 64.9893 87.3524 64.9893 86.4229V86.061C67.4058 87.3923 70.1123 88.095 72.8648 88.106H83.3199C86.0689 88.1182 88.3073 85.8773 88.3196 83.1009C88.3252 81.8396 87.8611 80.6223 87.0194 79.6905C88.7533 77.7882 88.7533 74.8607 87.0194 72.9582ZM61.6564 84.7398H58.3236V67.909H61.6564V84.7398ZM84.9863 76.3244C84.9863 77.2539 84.2402 78.0075 83.3199 78.0075V81.3736C84.2402 81.3736 84.9863 82.1272 84.9863 83.0567C84.9863 83.9862 84.2402 84.7398 83.3199 84.7398H72.8648C70.2322 84.7417 67.6582 83.9544 65.4692 82.4777L64.9893 82.1563V70.8055L66.5707 70.2737C68.6119 69.5861 69.9885 67.6567 69.9885 65.4836V54.7321C71.9845 55.448 73.3189 57.3543 73.3214 59.4935V62.0182C73.3214 65.2716 75.9327 67.909 79.1538 67.909H83.3199C84.2402 67.909 84.9863 68.6626 84.9863 69.592C84.9863 70.5215 84.2402 71.2751 83.3199 71.2751V74.6413C84.2402 74.6413 84.9863 75.3949 84.9863 76.3244Z" fill="#604CDA"/>
<path d="M83.4258 46.9246C79.7307 45.2226 75.7165 44.3432 71.6552 44.3461C62.7803 44.3541 54.424 48.5709 49.0886 55.7339L41.6597 53.2328V46.9902C41.8046 46.8758 41.9546 46.7731 42.0979 46.6536C47.7586 41.8857 51.1943 34.9497 51.5782 27.5153H51.6582C52.5785 27.5153 53.3246 26.7617 53.3246 25.8322V24.1491C53.3246 11.1355 42.8795 0.585938 29.9947 0.585938C17.11 0.585938 6.66486 11.1355 6.66486 24.1491V27.5153C6.66486 28.4448 7.411 29.1984 8.33128 29.1984C8.3996 29.1918 8.46751 29.1813 8.53458 29.1664C9.31655 35.9921 12.6667 42.253 17.8915 46.6536C18.0332 46.7731 18.1848 46.8758 18.3298 46.9902V53.2328L4.47185 57.8983C3.84007 58.1112 3.39431 58.6837 3.33869 59.3542L0.00585116 99.7482C-0.0705958 100.675 0.61097 101.488 1.52813 101.565C1.57374 101.569 1.61957 101.571 1.6656 101.571H58.3239C59.2441 101.574 59.9928 100.823 59.9961 99.8938C59.9963 99.8452 59.9944 99.7966 59.9903 99.7482L59.9253 98.9689C74.1546 105.523 90.9505 99.1863 97.4401 84.8146C103.93 70.443 97.6551 53.479 83.4258 46.9246ZM18.3298 98.2048H3.477L6.56821 60.7394L18.3298 56.7808V98.2048ZM9.9977 24.1491C9.9977 12.9947 18.9507 3.95211 29.9947 3.95211C41.0387 3.95211 49.9918 12.9947 49.9918 24.1491H44.9925C40.3932 24.1436 36.6658 20.379 36.6604 15.7337C36.6612 14.8042 35.9157 14.05 34.9954 14.0491C34.8734 14.0491 34.7517 14.0624 34.6324 14.0893L33.6325 14.3149C25.2223 16.1913 17.216 19.5835 9.9977 24.3292V24.1491ZM38.3268 98.2048H21.6626V67.4397L27.5684 65.452L23.3874 80.9364C23.2795 81.3357 23.3209 81.7611 23.504 82.1314L28.5033 92.2299C28.9147 93.0613 29.9156 93.3986 30.739 92.9828C31.0617 92.82 31.3233 92.5558 31.4845 92.2299L36.4838 82.1314C36.6669 81.7611 36.7083 81.3357 36.6004 80.9364L32.4194 65.452L38.3268 67.4397V98.2048ZM21.6626 63.8901V60.534L25.6504 62.5537L21.6626 63.8901ZM29.9947 69.2558L33.2192 81.1973L29.9947 87.7091L26.7702 81.1973L29.9947 69.2558ZM38.3268 63.8901L34.3391 62.5436L38.3268 60.534V63.8901ZM38.3268 56.7707L29.9947 60.9784L21.6626 56.7707V49.1093C24.2543 50.4008 27.1047 51.0745 29.9947 51.0785C32.8847 51.0745 35.7351 50.4008 38.3268 49.1093V56.7707ZM20.0262 44.0667C15.0517 39.8664 12.0468 33.7536 11.7408 27.2123C18.3985 22.8182 25.7647 19.6321 33.5075 17.7972C34.5053 23.4155 39.341 27.5073 44.9925 27.5153H48.2454C47.8625 33.9495 44.8663 39.9385 39.9649 44.0667C34.1904 48.9287 25.8008 48.9287 20.0262 44.0667ZM41.6597 98.2048V56.7808L47.1705 58.6321C39.5264 71.8629 43.6117 88.8302 56.4175 97.0384L56.5125 98.2048H41.6597ZM71.6552 98.2048C57.8502 98.2048 46.6589 86.9016 46.6589 72.9586C46.6589 59.0155 57.8502 47.7123 71.6552 47.7123C85.4602 47.7123 96.6515 59.0155 96.6515 72.9586C96.6359 86.8953 85.4538 98.189 71.6552 98.2048Z" fill="#604CDA"/>
<path d="M59.9905 3.95312H56.6577V7.31929H59.9905V3.95312Z" fill="#604CDA"/>
<path d="M66.6556 3.95312H63.3228V7.31929H66.6556V3.95312Z" fill="#604CDA"/>
<path d="M73.3216 37.6133H69.9888V40.9795H73.3216V37.6133Z" fill="#604CDA"/>
<path d="M73.3211 30.8828H69.9883V34.249H73.3211V30.8828Z" fill="#604CDA"/>
<path d="M73.3216 24.1484H69.9888V27.5146H73.3216V24.1484Z" fill="#604CDA"/>
<path d="M73.3211 17.418H69.9883V20.7841H73.3211V17.418Z" fill="#604CDA"/>
<path d="M73.3216 10.6836H69.9888V14.0498H73.3216V10.6836Z" fill="#604CDA"/>
<path d="M73.3211 3.95312H69.9883V7.31929H73.3211V3.95312Z" fill="#604CDA"/>
<path d="M53.3251 3.95312H49.9922V7.31929H53.3251V3.95312Z" fill="#604CDA"/>
</g>
<defs>
<clipPath id="clip0_1197_8">
<rect width="100" height="101" fill="white" transform="translate(0 0.578125)"/>
</clipPath>
</defs>
</svg>
